P2
92 112
246
156 145 152 168 119 118 120 120 105 119 218 232 235 235 229 229 228 228 228 227 228 229 228 227 227 227 228 229 228 227 225 227 227 225 226 225 227 226 228 227 228 226 226 226 228 226 227 229 228 227 229 229 230 230 231 231 231 233 232 232 233 233 233 234 232 235 235 235 234 235 237 238 238 237 238 236 239 240 241 241 242 241 243 241 243 242 243 243 243 243 244 245 
148 147 171 141 131 119 115 114 117 106 77 235 235 231 229 227 229 227 228 226 230 228 227 227 226 224 228 227 228 227 226 227 227 226 227 226 225 226 226 226 226 226 226 226 227 228 228 230 227 228 228 227 230 231 229 231 231 232 233 230 233 231 233 234 233 235 235 235 236 235 235 237 238 237 237 239 239 239 240 240 240 244 242 242 243 241 245 242 243 244 245 244 
149 151 165 131 125 120 118 109 120 75 66 232 232 235 228 227 228 228 230 228 228 228 226 226 226 224 228 226 228 227 227 227 227 225 226 226 227 227 227 227 228 226 227 229 229 227 228 228 228 227 228 229 230 228 230 229 231 232 233 233 233 233 232 235 235 233 234 235 235 235 235 237 238 237 239 238 240 238 239 241 242 242 241 242 243 243 242 243 243 243 246 243 
147 152 144 122 130 159 116 105 215 143 63 191 240 231 227 229 226 227 227 226 228 226 225 228 226 227 225 225 226 229 229 228 227 227 227 227 227 227 227 226 225 228 228 228 228 229 228 226 228 227 227 229 232 230 231 231 231 234 232 232 231 232 233 232 233 234 235 235 234 235 236 237 237 239 238 240 239 239 241 240 242 243 242 241 243 241 242 242 246 245 246 246 
150 157 124 130 133 134 119 109 228 229 55 89 238 230 228 226 228 226 228 226 226 226 228 227 227 224 228 223 228 229 226 227 226 229 228 226 225 225 226 226 229 227 228 226 230 228 228 228 228 226 230 228 232 231 230 232 234 232 233 233 233 233 234 233 235 234 236 234 238 234 238 237 239 237 238 237 240 238 240 241 241 242 241 243 242 241 242 243 244 245 246 244 
152 157 124 127 135 132 133 111 231 232 122 72 174 230 227 230 227 227 227 226 225 225 225 226 225 226 224 225 228 226 225 226 227 228 228 226 225 225 227 226 228 228 228 226 227 227 227 229 228 227 227 228 231 230 228 230 233 231 234 232 234 231 233 235 236 233 234 231 237 236 236 237 238 237 238 237 240 239 240 240 241 242 241 242 244 242 244 244 243 242 246 244 
164 143 130 128 134 133 129 134 144 233 230 60 71 170 227 227 226 226 226 224 224 225 224 225 224 225 226 226 226 226 225 226 226 226 229 225 225 225 224 225 224 223 226 226 226 226 226 226 227 225 226 228 225 228 227 228 232 232 232 232 233 234 235 233 234 231 234 232 238 238 238 238 238 237 237 237 238 240 241 241 240 241 243 240 243 240 243 242 243 242 244 246 
163 143 131 129 133 133 130 73 63 165 229 65 59 83 232 226 226 224 225 224 223 225 226 225 224 225 226 225 224 224 225 226 226 225 225 225 224 222 222 224 221 219 226 224 226 224 224 227 221 222 216 220 220 221 228 227 229 232 232 231 233 234 234 233 232 231 235 234 236 236 237 236 238 236 237 237 239 239 239 240 241 242 242 241 242 243 243 244 242 243 243 243 
170 133 121 130 132 139 80 61 42 41 144 179 55 49 85 135 228 222 223 221 223 226 223 225 225 224 225 224 224 226 226 225 228 229 226 215 148 138 134 127 163 185 140 213 221 199 154 72 54 45 51 76 84 120 115 177 202 195 230 228 235 237 235 235 233 235 235 237 236 235 235 235 235 236 237 237 237 237 239 240 239 240 241 239 241 242 242 243 242 242 244 244 
133 135 130 132 125 190 86 60 48 133 225 202 68 44 104 86 206 221 221 220 223 224 222 222 226 224 224 222 225 225 220 224 224 162 116 73 53 37 63 69 107 94 75 167 116 93 90 82 69 38 59 53 60 69 73 61 92 108 119 159 183 218 231 231 233 230 233 232 236 235 236 235 234 235 235 237 238 237 237 239 237 239 239 240 240 241 242 243 241 242 244 245 
112 159 128 129 127 220 216 81 87 204 230 207 59 50 64 128 217 219 220 219 222 220 222 222 221 222 225 219 220 218 202 147 74 44 53 51 60 51 65 67 61 66 65 52 52 68 56 54 49 55 58 56 61 70 62 57 57 58 81 91 94 113 140 178 217 217 227 228 237 229 235 238 236 235 236 236 237 237 236 236 237 238 240 241 242 241 243 243 242 241 242 242 
106 94 132 119 167 224 219 192 176 218 228 225 166 92 66 81 219 217 219 219 221 221 221 221 219 217 215 204 207 182 107 80 46 55 55 55 51 56 55 50 62 50 33 41 44 35 49 35 34 43 46 42 54 43 54 57 47 47 57 69 77 92 121 108 131 188 193 212 224 228 238 237 236 235 236 237 238 237 235 236 236 239 238 238 241 240 242 243 242 243 244 244 
90 100 130 143 218 228 226 222 191 185 200 198 202 209 213 212 216 214 218 217 222 221 220 219 204 151 100 66 77 78 60 81 56 64 50 44 38 51 46 42 30 37 34 29 28 34 27 22 26 21 30 24 28 36 51 64 58 62 69 58 60 70 84 75 74 60 64 67 121 148 217 236 236 236 238 236 238 236 236 236 237 235 240 238 242 243 241 244 245 243 244 244 
93 110 117 149 222 229 224 226 207 181 177 180 171 179 204 214 212 212 214 215 216 217 219 215 137 68 49 48 68 40 52 59 54 55 42 28 37 40 39 35 35 34 31 26 30 33 19 22 23 19 21 23 31 44 48 51 60 49 60 57 56 70 65 59 63 122 97 69 68 91 204 234 235 232 238 236 238 238 238 236 237 237 240 240 241 241 242 242 244 244 245 243 
97 113 121 182 224 228 223 226 217 181 173 171 171 181 209 211 212 213 214 214 215 217 214 199 71 41 44 52 70 43 38 55 50 34 31 43 40 28 28 30 39 35 30 30 21 32 20 18 22 22 28 23 34 31 52 44 49 42 41 43 53 66 65 58 68 88 99 58 45 62 107 238 235 231 236 235 238 237 237 236 236 237 239 236 241 241 241 243 243 242 244 244 
110 107 124 203 227 226 227 225 222 217 197 205 209 212 210 211 210 210 212 211 215 146 79 58 49 38 47 49 50 47 30 35 29 47 32 33 23 30 28 24 29 31 28 20 28 21 20 16 18 20 21 25 28 23 29 43 45 81 61 39 46 62 62 73 70 81 52 56 48 67 83 113 200 232 236 236 236 237 237 235 237 239 238 239 242 241 241 241 242 242 244 243 
106 110 135 218 228 227 226 226 226 225 219 211 214 212 211 210 214 216 215 216 203 57 51 37 49 41 32 37 37 39 28 29 27 40 28 35 20 22 27 22 21 18 22 21 22 19 20 16 20 18 15 17 28 23 23 35 30 63 33 28 43 39 59 49 42 71 89 74 56 62 69 56 143 183 219 236 238 237 238 238 236 238 239 238 241 242 241 243 242 242 245 243 
109 121 172 228 228 228 228 228 227 223 218 214 214 216 215 212 212 213 205 173 106 41 37 34 37 42 35 28 29 30 26 19 19 31 24 24 16 18 20 22 17 17 19 16 18 15 20 21 14 15 15 21 26 20 19 22 27 21 19 27 33 33 21 40 44 71 67 70 36 54 62 36 52 86 111 238 239 235 234 237 236 238 238 237 241 240 239 244 241 243 244 243 
113 118 198 230 228 228 229 229 227 221 220 215 215 215 213 213 215 209 206 156 76 48 47 35 42 37 39 25 22 33 18 15 30 25 20 21 13 15 21 16 20 14 17 16 16 13 16 16 13 11 13 18 25 19 19 20 25 20 25 29 27 26 40 39 40 54 36 33 63 85 73 44 64 101 80 230 243 229 242 235 236 237 238 238 241 239 239 241 244 241 243 243 
117 115 228 230 230 231 229 230 226 224 220 217 215 217 214 209 213 143 107 81 44 37 53 31 41 35 28 15 31 23 16 25 21 17 15 16 16 18 14 19 11 11 14 13 13 13 13 13 11 13 17 14 18 17 17 17 21 22 23 24 38 26 36 38 42 34 36 35 58 73 80 67 66 56 65 69 135 222 226 234 233 240 236 240 239 239 239 241 242 241 240 242 
117 117 227 230 229 231 231 226 227 223 222 215 219 216 214 211 199 70 59 41 38 32 43 30 34 30 23 17 33 15 18 21 18 17 18 19 18 22 16 17 12 11 13 12 13 11 10 10 11 12 14 16 18 18 19 21 22 23 27 26 45 35 51 38 28 27 34 42 45 37 71 61 60 53 43 52 91 125 239 236 233 236 239 238 240 239 240 242 241 240 243 244 
113 128 232 231 231 230 228 228 224 221 220 217 220 216 212 213 211 94 73 31 33 41 35 36 21 16 24 15 22 23 15 13 14 14 13 13 17 18 17 16 14 12 12 10 15 12 11 9 13 10 15 14 18 19 18 17 15 17 27 24 30 37 25 20 22 26 27 23 43 28 36 48 45 43 39 46 95 65 163 138 205 234 238 240 242 239 240 241 241 241 244 242 
117 145 231 231 230 231 230 229 224 221 221 217 219 217 216 208 198 96 52 34 31 37 30 34 19 19 23 17 20 20 15 13 14 11 12 10 17 17 15 15 13 11 12 10 13 15 10 11 15 11 14 12 19 20 16 15 18 18 21 35 27 24 21 27 30 24 23 30 19 25 46 44 46 55 29 44 140 85 105 163 119 225 233 240 239 241 239 241 243 242 241 243 
160 173 231 230 233 231 229 229 223 219 219 216 216 215 179 151 113 57 36 24 29 24 36 29 20 17 23 17 20 17 11 12 13 13 12 11 15 16 12 11 12 11 11 9 12 12 13 11 11 13 15 16 17 16 17 16 24 26 33 20 21 22 20 23 29 41 29 27 60 60 67 40 55 35 36 45 103 71 112 107 110 210 232 239 241 241 240 243 243 239 244 243 
99 206 230 229 231 233 230 230 222 218 222 215 207 134 155 132 66 28 29 24 25 22 17 15 16 11 15 14 14 14 12 12 11 12 11 11 12 11 13 12 11 12 14 9 13 13 13 13 15 16 17 17 20 21 21 23 14 12 13 14 26 20 24 37 44 32 38 52 52 54 57 43 46 68 33 61 35 50 117 125 80 101 215 241 240 242 241 240 241 241 243 241 
108 218 228 230 233 231 231 226 221 220 222 215 202 150 94 67 62 26 31 20 22 20 14 14 13 12 11 13 13 12 11 12 9 10 12 11 14 12 11 11 14 14 14 11 14 15 12 14 17 18 18 20 19 20 21 19 17 19 12 25 21 20 23 24 28 33 38 40 47 55 75 68 46 72 58 46 30 45 99 151 105 106 189 237 239 241 240 241 241 241 240 243 
167 227 232 231 233 234 229 224 219 219 220 209 185 124 39 37 31 20 22 16 19 16 15 12 12 10 12 15 11 15 12 11 11 12 13 12 13 15 17 19 14 14 19 15 18 16 21 21 26 32 34 36 28 25 28 22 27 33 23 28 28 24 23 23 24 29 31 36 51 54 67 61 62 62 61 37 42 88 109 174 67 55 143 237 243 241 240 240 241 241 242 240 
196 227 232 230 230 232 228 224 220 219 219 198 166 183 36 26 23 17 17 15 16 15 14 12 10 10 11 13 12 13 13 14 14 14 16 18 18 20 22 25 21 21 22 23 23 19 23 28 35 40 42 38 36 27 25 24 29 30 32 31 25 29 38 30 29 32 30 36 50 51 47 53 45 60 51 29 49 100 135 77 74 67 119 220 240 240 238 241 241 240 243 243 
222 228 230 233 233 231 225 224 221 220 217 200 189 196 30 22 19 17 15 15 16 17 15 12 9 9 14 12 16 17 20 24 26 31 35 34 38 41 45 42 45 43 41 39 37 41 38 42 44 51 64 54 47 48 48 44 56 64 75 59 50 40 46 45 43 38 43 29 34 40 37 34 41 53 28 50 49 35 63 55 44 79 146 235 241 241 241 241 243 242 242 240 
226 230 230 232 232 230 224 221 220 219 221 181 178 159 29 22 16 15 16 14 15 14 15 12 11 10 12 17 18 26 28 35 37 46 48 48 57 56 57 56 57 55 58 47 49 46 46 44 53 68 76 73 52 55 55 57 70 73 95 73 73 63 53 53 52 41 37 30 40 36 51 44 37 31 42 47 45 41 61 51 47 89 200 239 239 241 238 241 239 239 241 240 
229 229 232 230 231 225 224 222 220 219 219 185 143 85 22 21 20 11 14 12 13 11 11 10 12 15 16 27 30 37 53 56 65 74 82 81 80 80 78 76 70 70 69 67 73 77 70 76 75 80 84 81 62 64 64 66 67 72 82 110 91 83 68 64 59 43 48 42 35 42 50 41 47 57 39 37 49 31 48 59 68 161 235 243 240 239 239 239 239 238 241 240 
226 229 231 230 232 224 223 222 220 218 212 178 129 68 20 22 22 14 12 14 12 11 10 11 13 15 25 29 33 47 61 70 77 83 86 90 87 86 87 84 80 82 84 80 89 90 89 89 87 89 85 86 81 83 78 72 72 75 79 91 99 81 80 76 72 57 60 52 39 33 45 46 65 45 54 35 37 39 54 58 68 181 239 241 239 241 239 238 239 241 240 240 
229 228 230 230 234 226 221 220 219 220 218 206 156 37 20 16 17 13 13 12 13 10 13 15 26 27 32 40 50 60 71 76 81 88 90 94 101 104 104 102 98 98 98 100 102 104 104 101 100 107 111 109 112 106 104 101 100 94 94 100 114 98 111 125 114 95 84 68 63 49 43 34 51 38 66 41 54 57 67 73 92 213 238 241 240 239 237 240 240 240 242 243 
227 228 231 232 232 225 221 220 219 221 219 206 168 34 20 16 14 15 14 12 12 10 15 20 31 36 38 49 58 63 75 78 82 93 94 97 104 104 105 104 105 107 107 108 109 110 110 113 109 112 112 114 119 121 117 115 118 118 119 127 130 139 140 137 139 112 97 77 86 67 47 38 49 66 39 28 28 40 54 64 78 230 239 240 241 238 238 241 240 241 242 242 
228 229 231 231 230 223 223 221 219 218 220 214 166 34 19 15 17 13 12 12 11 11 15 23 35 38 43 50 56 62 72 79 84 93 97 96 107 106 104 103 105 107 109 111 115 114 114 113 114 116 120 118 121 122 121 119 121 126 128 151 156 163 168 154 148 122 108 91 89 80 60 39 39 25 25 26 25 30 49 61 70 239 238 239 241 236 240 240 240 240 242 244 
229 230 228 231 225 223 221 220 218 218 222 210 180 45 17 17 13 11 12 10 11 18 26 31 40 44 47 54 59 63 77 78 82 93 96 96 106 106 105 103 104 108 111 118 122 122 125 125 124 124 124 125 123 123 126 126 130 139 152 157 167 180 169 163 157 146 138 131 103 94 86 54 49 53 38 20 36 45 52 73 70 221 238 238 238 237 239 241 240 242 242 242 
229 230 231 228 224 221 221 219 217 217 218 212 204 42 17 19 19 10 14 10 13 20 30 37 46 46 51 54 60 64 72 78 81 92 96 95 102 107 104 104 105 109 115 120 124 123 125 130 130 127 129 128 130 132 131 129 133 142 150 157 165 173 168 164 160 150 145 136 126 119 98 54 55 34 30 38 48 53 54 73 73 222 237 237 239 240 239 239 241 241 242 242 
228 227 232 226 224 220 220 219 216 216 218 217 223 112 23 20 25 16 13 12 15 30 37 44 49 47 51 57 62 60 74 77 84 92 97 101 103 105 107 108 111 113 118 122 126 127 131 134 131 133 137 136 139 138 138 140 139 143 150 159 163 165 166 164 163 157 157 154 147 146 139 95 67 45 40 23 27 54 60 68 69 229 226 239 240 237 236 240 241 239 243 242 
229 229 232 227 223 222 220 218 217 215 218 217 224 177 25 17 16 13 13 13 16 29 39 46 50 50 54 56 60 63 73 78 84 94 97 101 105 107 108 108 115 117 119 124 126 128 128 132 132 131 134 138 139 140 143 145 149 150 157 167 168 168 163 163 159 158 157 156 150 148 143 104 76 64 38 36 32 36 77 75 72 239 234 238 241 239 239 240 240 241 242 240 
229 230 227 222 224 221 219 217 214 215 219 218 223 214 29 20 22 16 18 14 18 37 43 46 51 48 52 56 63 67 76 83 87 97 103 107 112 113 118 120 121 121 123 129 130 128 129 128 129 132 133 136 145 147 147 150 155 163 171 177 177 176 168 165 161 158 156 156 159 156 153 118 97 74 58 39 38 47 76 65 81 239 236 239 241 239 239 239 240 240 242 242 
230 231 227 223 222 219 218 218 216 214 217 217 220 224 24 23 20 15 17 16 19 35 44 45 48 49 51 56 63 70 82 88 95 104 107 111 118 119 120 122 125 127 131 134 133 129 128 129 132 132 132 136 145 148 149 152 158 168 173 178 177 178 169 167 162 161 158 157 157 157 157 123 103 80 58 46 50 51 72 77 98 237 237 237 239 239 240 240 239 240 242 242 
229 229 224 220 222 218 219 216 216 212 217 218 218 224 31 25 15 15 17 23 34 48 48 48 49 54 53 61 72 70 89 96 94 105 111 111 119 119 121 125 133 133 135 135 134 132 129 129 131 132 136 140 150 154 154 157 163 169 174 183 185 181 172 170 164 161 160 158 157 155 153 141 125 93 83 59 61 50 65 98 204 235 237 239 237 241 237 240 239 240 242 240 
230 229 223 221 220 219 219 217 216 215 216 217 219 219 28 22 22 14 22 26 38 47 47 47 51 53 56 65 73 78 91 93 96 103 109 114 120 120 122 124 132 132 135 136 134 131 130 131 132 135 137 140 149 153 155 159 161 169 177 184 189 185 175 170 168 162 162 157 160 156 156 146 129 106 84 57 56 53 87 92 210 236 238 239 237 236 239 239 241 241 242 241 
229 228 224 220 220 219 218 218 214 214 216 217 219 217 29 22 21 16 26 37 43 49 47 47 51 56 60 73 77 78 89 96 98 98 107 112 119 119 120 124 128 133 134 134 134 129 129 131 133 138 136 138 150 150 156 156 162 171 174 182 186 188 179 173 169 163 160 160 159 158 156 151 141 118 89 46 50 50 83 98 211 239 238 240 237 237 237 240 240 239 240 240 
230 228 221 220 218 217 217 216 215 218 217 219 221 217 49 25 24 29 37 45 49 49 52 53 65 71 77 75 82 89 96 96 91 92 95 101 103 111 116 117 123 124 129 132 133 133 132 133 131 135 142 142 146 147 150 152 156 156 163 172 174 181 179 176 177 172 168 166 164 159 156 156 156 150 126 58 48 48 75 151 230 236 237 238 238 238 237 239 242 239 241 238 
230 226 220 218 219 218 217 217 217 214 217 217 222 220 71 29 22 30 48 47 49 48 54 55 67 73 74 69 72 77 91 87 87 86 90 95 105 107 106 108 115 120 125 128 130 132 126 125 128 136 137 138 142 144 141 144 155 152 152 162 166 158 169 166 171 166 162 159 161 161 158 156 155 153 144 76 50 47 72 211 228 237 236 234 239 238 236 239 240 238 239 238 
228 224 220 219 219 217 218 214 216 216 216 219 219 221 192 30 28 57 55 50 48 45 37 37 40 41 46 43 41 41 53 53 55 65 67 63 86 91 87 85 102 111 114 117 122 125 112 110 115 122 125 127 138 129 128 126 129 132 132 135 133 130 141 136 124 149 135 131 137 135 144 163 161 160 161 121 43 47 149 237 236 236 237 236 239 238 237 239 240 238 240 239 
227 223 219 219 218 217 215 214 216 215 218 217 220 224 215 65 28 56 59 49 50 28 27 27 30 31 31 24 32 29 36 35 31 43 45 55 65 70 84 75 88 101 111 116 123 121 108 108 110 118 121 121 129 124 121 116 120 122 119 105 98 105 93 107 91 101 98 96 102 114 115 162 165 160 162 132 42 49 164 235 234 236 236 237 239 237 237 240 240 239 240 240 
225 222 221 219 217 216 215 214 216 216 215 215 218 217 215 212 48 63 54 43 29 19 19 16 19 15 15 13 14 16 24 19 19 27 28 28 37 39 47 53 82 91 97 101 106 114 103 104 111 117 112 108 104 104 92 83 70 63 59 42 34 36 33 30 38 50 52 64 65 63 69 99 106 164 169 171 53 53 236 237 236 237 237 237 238 238 237 237 237 241 240 239 
223 221 219 217 218 216 215 215 215 217 216 215 219 217 216 213 98 60 48 27 26 19 19 15 17 15 13 10 12 12 13 15 16 15 21 22 27 31 35 44 71 70 93 90 97 100 100 100 106 113 100 88 82 74 60 57 54 44 38 22 23 21 19 22 23 29 38 47 61 64 62 72 90 103 166 179 78 61 238 238 235 235 238 236 237 238 237 238 240 240 240 240 
220 218 221 215 217 215 213 214 214 215 217 215 217 216 214 204 186 63 46 37 32 23 23 20 19 17 16 13 14 13 10 10 11 9 11 14 19 19 27 29 47 66 67 80 86 92 101 99 105 91 65 52 46 41 36 33 23 18 26 19 21 22 24 29 29 32 38 47 69 56 56 64 72 90 105 175 122 97 234 234 230 235 234 234 238 239 237 237 238 238 239 239 
218 220 218 217 216 216 212 215 213 217 215 217 217 217 213 202 184 60 48 41 35 28 28 25 25 25 21 23 22 21 15 16 12 11 13 13 17 16 23 28 37 48 59 72 77 89 100 101 104 87 67 53 46 35 36 34 24 20 21 22 23 22 33 37 45 56 73 83 85 78 72 70 82 90 114 178 142 90 235 235 231 235 234 235 237 238 236 237 237 237 240 237 
220 217 218 217 217 215 215 217 216 216 216 215 218 217 209 202 192 63 56 46 37 36 32 30 31 30 29 30 29 30 22 23 23 13 15 17 19 19 21 27 34 38 52 63 77 88 101 100 101 81 64 53 42 34 33 34 26 27 26 30 31 38 49 54 64 91 93 90 92 94 85 78 102 118 140 174 153 102 233 236 234 235 235 233 238 236 237 239 239 236 240 238 
219 217 216 213 216 215 216 213 216 215 216 216 218 217 220 194 179 64 55 48 41 41 41 38 39 34 35 34 34 36 33 32 30 26 22 17 16 17 20 20 29 36 38 55 66 78 109 113 96 89 66 54 44 40 38 34 36 34 37 41 51 55 71 78 81 90 98 102 120 122 123 115 114 133 136 181 173 91 237 236 235 234 234 233 236 235 238 237 238 237 238 237 
217 218 215 215 217 213 214 214 216 215 216 215 217 219 219 204 127 60 51 47 46 40 39 40 34 33 30 31 31 33 28 26 29 20 22 19 15 13 14 14 31 32 35 53 64 82 118 121 117 93 77 59 40 34 31 33 33 36 35 43 48 52 58 58 62 78 76 93 117 125 127 123 122 133 147 174 181 91 210 236 236 234 235 232 236 238 236 235 239 237 238 237 
217 216 215 214 216 213 214 214 215 215 216 215 219 219 218 209 104 55 53 48 43 35 29 25 25 23 25 26 26 28 23 25 23 20 17 15 9 9 8 10 17 27 34 70 99 108 145 154 139 112 78 41 22 23 21 21 19 21 22 31 39 52 75 128 121 87 77 61 58 79 104 120 131 152 158 175 179 82 146 237 233 235 235 236 237 236 237 236 236 237 239 239 
217 216 215 215 215 214 214 214 216 214 216 215 219 219 218 213 96 56 51 45 41 30 28 25 32 29 25 17 14 13 11 11 12 12 14 14 10 12 7 12 11 29 39 82 102 119 169 168 149 120 80 35 22 19 16 17 26 25 24 19 19 19 28 33 53 79 100 115 63 74 73 112 127 145 154 173 176 96 121 235 232 234 234 233 236 236 236 235 236 237 240 239 
217 217 214 215 213 214 215 214 215 215 215 217 218 218 215 206 68 60 49 43 38 29 27 20 14 11 15 39 14 12 6 6 9 11 30 23 11 10 10 12 10 35 53 100 116 134 159 169 164 139 113 34 29 21 20 20 34 47 22 14 12 22 43 38 75 76 33 29 50 59 84 124 132 149 158 169 177 125 105 236 232 234 233 233 234 235 236 236 234 236 238 239 
217 215 215 212 214 214 215 214 215 213 215 215 217 218 213 185 75 55 49 44 41 31 29 18 23 18 19 50 25 15 7 8 8 23 36 26 18 12 12 12 15 40 61 97 123 135 157 167 165 144 128 63 29 23 20 20 40 50 26 18 12 7 20 34 104 123 61 73 61 90 119 138 143 155 163 172 180 143 113 235 234 233 234 231 235 234 235 238 235 234 237 235 
216 214 215 213 214 213 215 213 214 214 215 215 216 216 202 150 71 53 52 44 46 38 36 32 27 27 23 25 27 28 16 17 20 27 23 19 17 20 18 20 37 55 68 103 123 134 156 164 166 156 145 129 77 67 34 27 29 26 28 13 9 13 36 83 107 119 101 97 124 142 150 151 154 163 169 174 182 172 181 236 233 233 233 232 233 235 235 235 232 234 236 235 
215 212 213 212 214 214 215 214 216 214 217 217 218 219 195 158 82 52 53 48 47 39 38 35 30 27 26 23 24 23 24 27 29 26 22 20 17 20 20 21 45 58 66 103 122 134 155 164 165 158 155 140 91 90 51 39 40 46 44 41 52 54 79 95 83 82 97 102 129 134 137 148 156 160 168 173 178 180 217 236 233 234 233 233 235 234 233 235 235 233 237 237 
214 214 214 213 213 214 215 215 216 213 214 215 220 217 195 163 79 54 53 46 48 45 39 34 30 28 29 24 26 26 23 24 21 19 20 20 23 22 22 26 44 55 67 107 124 133 157 162 165 160 157 146 124 86 72 57 45 39 37 39 45 49 54 59 71 92 96 115 123 135 138 152 154 162 168 175 178 180 229 233 232 233 233 232 234 233 233 235 233 234 238 234 
213 213 212 213 213 216 214 213 214 214 215 216 217 217 195 127 73 58 58 52 55 49 48 45 42 41 41 36 35 32 34 31 32 29 29 29 28 29 35 37 46 56 66 110 120 132 155 161 164 162 161 155 147 138 130 96 87 81 72 57 57 57 72 80 92 116 128 129 147 151 154 162 161 168 171 174 177 182 222 230 231 232 233 232 235 233 234 234 234 235 236 236 
214 212 212 212 212 213 213 215 214 213 216 215 218 217 183 111 73 56 58 56 56 55 56 53 51 47 50 46 48 45 42 39 37 36 34 33 30 37 38 42 46 53 74 107 121 133 156 161 163 162 162 158 151 150 143 132 100 90 97 81 94 96 109 112 121 133 140 145 147 152 157 162 161 170 172 174 180 181 205 229 232 232 231 233 235 235 235 235 233 232 236 235 
213 212 215 211 214 212 214 214 215 212 215 216 218 216 181 90 70 60 58 56 57 65 65 63 67 66 71 69 67 68 60 53 54 41 37 39 43 41 43 42 51 58 69 105 117 131 158 166 164 166 163 162 151 159 157 154 149 137 129 107 110 108 120 123 128 143 145 154 162 167 173 174 171 171 173 177 178 182 143 218 231 232 231 230 234 233 235 234 234 234 235 235 
212 213 213 211 212 212 213 213 213 212 215 215 216 213 136 81 71 59 59 55 62 71 72 75 77 77 78 72 71 72 70 62 58 50 47 48 45 43 43 42 51 63 68 97 116 133 161 168 168 164 166 161 153 156 160 161 164 164 158 130 122 120 115 121 123 134 139 150 158 172 174 173 168 170 172 175 176 184 119 216 231 232 230 230 231 232 233 234 235 235 235 235 
214 211 211 212 213 212 214 213 215 213 214 214 217 215 145 76 69 57 57 56 59 70 75 78 80 76 79 84 89 89 82 73 72 57 51 52 47 47 40 42 54 59 63 95 118 132 157 172 166 167 168 166 148 152 157 163 172 168 169 165 163 156 139 135 131 131 135 138 156 168 172 164 163 165 168 176 177 184 146 194 232 230 230 230 230 230 231 232 234 233 234 234 
211 210 213 210 211 211 214 212 214 211 215 215 215 214 137 75 71 59 57 54 58 67 74 76 78 82 80 87 91 91 85 73 69 58 53 52 46 46 41 42 50 54 66 97 117 133 155 177 172 166 166 164 145 147 155 161 170 172 168 166 168 164 152 144 137 134 136 138 147 154 157 158 163 161 167 172 176 183 93 202 231 230 229 231 232 231 232 233 232 232 234 233 
210 209 209 211 211 211 212 211 214 212 215 215 216 214 144 78 71 61 63 55 59 61 69 77 89 92 95 93 93 90 79 74 70 52 53 49 42 41 42 47 47 46 54 93 113 125 150 188 181 172 168 157 142 142 144 146 163 165 171 170 171 169 164 160 161 159 152 150 147 149 152 155 158 164 167 175 179 182 107 214 231 229 230 228 231 231 233 232 233 230 233 234 
209 209 209 209 211 214 211 212 215 212 215 213 216 214 138 75 70 59 61 59 59 69 73 76 89 90 95 93 96 89 79 68 69 55 50 51 40 50 50 50 51 54 59 84 106 122 160 187 185 172 171 157 147 149 148 143 151 159 163 165 167 165 165 159 160 158 162 160 160 160 157 157 161 161 169 174 179 182 107 221 230 228 227 229 232 232 232 234 234 231 235 235 
209 208 210 211 212 212 214 213 212 211 213 214 214 215 136 75 69 60 58 57 58 68 75 79 88 93 96 94 94 90 78 70 68 52 55 48 48 56 56 51 52 59 62 80 103 118 155 181 175 169 170 162 154 161 159 157 143 150 157 161 165 164 161 158 157 158 161 163 160 161 161 161 161 167 167 175 177 183 108 231 230 229 228 230 232 234 233 233 234 233 233 232 
211 208 209 208 210 209 212 213 213 211 214 212 216 214 135 73 69 61 63 58 58 66 69 74 85 87 89 90 90 86 74 69 63 52 49 43 63 60 56 54 48 52 57 80 93 115 138 143 154 163 167 167 161 160 160 162 132 127 143 150 153 153 159 158 158 164 166 167 166 164 162 162 162 165 170 175 176 184 119 228 231 228 231 229 233 234 231 233 233 231 234 232 
208 207 209 207 209 211 212 211 211 210 212 215 214 214 109 71 68 60 61 56 59 65 71 75 83 85 87 89 87 84 74 65 60 53 51 48 57 58 49 50 49 50 52 72 88 105 130 132 146 160 162 161 150 153 150 153 142 125 131 148 148 151 159 159 159 163 167 166 166 165 166 162 163 166 170 174 176 178 124 230 230 228 229 228 232 231 232 233 232 232 231 233 
205 207 207 209 210 211 211 210 211 210 212 214 215 213 114 60 70 61 61 60 58 59 65 71 78 82 84 82 81 77 69 61 57 49 50 47 48 47 40 44 44 46 46 55 64 74 109 116 121 141 145 136 42 36 72 108 149 133 124 136 142 142 152 154 155 159 161 163 165 165 166 165 163 166 166 172 175 179 161 227 227 230 229 230 230 231 233 231 233 232 232 231 
207 206 207 209 211 212 210 210 212 211 211 214 214 213 117 58 69 60 60 57 59 60 63 72 77 82 82 78 77 74 66 55 54 50 50 45 38 30 19 10 32 48 47 50 51 66 95 106 113 133 121 43 16 26 48 95 159 138 130 133 140 145 148 156 156 155 160 159 164 165 167 167 165 166 170 170 178 177 165 230 227 229 230 229 231 232 233 231 233 233 234 230 
205 205 207 206 210 211 209 210 211 210 212 212 214 212 139 70 67 59 59 57 61 59 62 65 74 72 75 70 68 66 58 55 54 53 51 43 29 27 27 26 22 19 18 44 49 49 63 76 86 70 60 61 49 49 63 119 167 168 151 133 136 139 153 148 149 149 151 154 162 161 166 164 166 170 168 170 173 162 191 228 226 227 227 227 230 230 230 230 231 232 229 231 
208 205 208 206 210 209 210 210 211 211 211 213 212 213 179 73 66 61 60 58 58 59 58 66 65 67 69 67 63 58 60 58 58 52 49 43 32 27 25 29 31 26 28 26 47 48 59 76 84 114 120 121 83 75 114 156 168 168 163 136 135 138 150 148 147 148 151 153 162 161 165 164 167 169 170 171 173 143 223 229 226 228 230 229 230 232 230 230 232 231 231 231 
205 204 206 204 210 209 210 210 212 208 212 211 214 213 198 92 59 60 60 56 58 59 56 58 58 59 64 62 62 59 56 56 57 51 46 42 42 34 29 26 23 24 28 31 33 32 48 75 107 122 115 116 125 138 160 162 167 167 166 151 143 134 141 144 145 145 147 148 156 157 162 162 165 169 167 168 170 118 226 228 227 229 230 230 230 228 227 228 228 229 232 231 
204 203 206 204 209 210 209 209 210 210 211 212 213 213 205 81 57 56 61 56 55 56 56 58 58 57 60 56 60 57 52 53 54 48 48 46 40 38 35 29 29 27 31 35 40 36 52 82 102 118 123 141 138 152 157 162 165 167 164 160 153 140 149 146 146 143 148 149 154 157 158 163 165 167 168 167 167 104 224 229 227 229 230 230 229 229 228 227 227 226 228 230 
203 203 206 207 208 209 209 208 210 209 211 210 213 211 202 118 64 57 59 54 57 55 53 57 57 56 55 54 55 53 49 53 52 49 47 43 38 36 33 28 23 18 20 39 46 43 45 67 78 102 114 135 149 149 153 158 164 162 162 159 154 146 146 147 146 143 147 148 154 157 159 163 163 166 166 165 160 71 224 229 227 228 230 229 231 230 227 228 230 227 227 225 
203 204 208 205 208 209 209 208 208 210 211 211 212 208 209 172 76 57 57 47 55 51 51 54 54 55 53 51 53 50 45 44 45 35 31 31 26 24 17 13 9 16 23 60 71 64 27 40 58 64 69 63 92 111 132 133 152 144 147 152 141 136 147 147 145 145 145 148 152 152 154 163 165 164 159 153 124 100 226 231 226 226 229 228 230 229 227 225 228 227 226 226 
204 205 205 204 207 208 208 208 208 211 209 210 212 210 203 196 67 55 51 48 51 51 52 53 51 53 49 48 48 43 33 35 33 23 22 22 19 17 12 11 9 16 32 81 86 62 29 34 59 63 56 70 76 58 87 97 112 115 121 143 136 122 150 147 141 145 144 146 150 151 152 158 159 161 159 148 102 121 228 229 225 228 228 229 227 226 226 225 226 228 229 227 
202 203 204 203 208 208 209 209 210 208 209 209 212 209 206 208 169 57 57 44 52 50 49 50 50 47 49 44 37 30 22 21 21 14 15 14 20 15 15 15 19 27 56 114 104 70 35 40 71 81 50 51 52 65 72 75 77 59 63 73 87 92 115 142 140 142 142 140 145 148 150 151 153 151 147 116 94 202 230 227 225 228 227 227 225 228 226 227 229 229 229 223 
202 203 205 204 208 209 207 207 206 209 206 209 210 209 207 202 190 52 48 49 50 49 52 50 50 48 48 39 32 23 18 18 18 15 14 17 22 20 19 19 30 52 95 122 101 69 57 57 86 85 61 60 58 52 77 68 49 54 47 48 54 76 113 123 140 145 144 141 147 146 148 149 146 147 136 104 111 202 230 225 227 228 227 228 224 226 227 228 227 228 226 224 
202 202 205 206 208 207 208 207 207 205 207 208 209 206 205 206 211 43 55 45 46 47 47 46 46 45 44 27 19 14 15 18 25 14 21 23 30 28 35 42 42 40 42 100 108 121 120 112 101 83 106 106 101 85 101 84 49 42 46 44 42 41 60 94 116 143 145 143 145 143 142 136 139 144 144 73 185 223 225 228 227 226 229 227 228 229 226 228 230 228 229 227 
201 202 204 203 206 207 206 207 207 206 205 205 207 207 205 207 211 48 48 50 46 44 48 45 47 46 49 22 18 14 22 24 24 15 24 27 40 32 35 31 36 33 32 46 61 99 78 68 65 68 59 79 115 122 113 97 54 43 38 38 42 39 50 81 102 144 145 142 144 144 140 134 132 139 133 80 211 226 224 226 227 225 227 228 228 228 226 228 230 229 229 227 
199 201 202 204 204 205 205 207 206 205 207 204 205 205 206 206 208 150 44 47 46 43 48 48 48 43 43 26 27 26 27 25 23 31 35 34 31 28 29 23 25 26 28 26 32 47 64 63 43 46 49 47 48 57 81 98 78 71 50 40 50 58 71 67 103 127 143 146 142 140 134 124 121 130 113 175 223 223 225 224 224 225 227 228 231 229 230 230 228 228 227 226 
198 199 201 202 203 204 197 201 205 206 205 206 207 206 207 205 208 170 63 36 58 41 45 48 46 40 41 30 31 29 28 24 21 15 19 16 15 17 15 15 15 23 22 23 28 39 64 60 36 36 40 34 31 35 45 59 75 63 45 47 47 59 72 88 93 128 135 143 139 136 130 111 124 122 73 213 224 224 228 226 226 225 226 228 230 228 230 230 228 227 226 227 
199 199 202 200 204 205 206 204 197 193 192 194 199 199 202 205 205 201 160 33 36 49 42 45 47 46 46 34 33 33 30 24 19 20 25 25 28 32 36 31 31 28 23 18 22 19 33 40 59 68 76 86 91 77 74 63 26 13 13 28 35 48 86 82 88 137 142 141 132 125 123 116 105 66 83 214 227 225 226 225 224 224 227 228 229 229 228 228 227 227 226 226 
198 200 201 200 202 205 206 205 202 202 206 201 204 201 196 196 197 195 192 64 35 51 47 43 43 47 46 39 33 33 31 28 26 26 26 29 34 42 42 49 56 55 52 54 65 66 81 72 98 113 126 134 124 119 110 99 77 48 48 30 41 50 84 90 113 137 143 139 129 121 117 117 102 51 140 224 226 228 225 225 224 225 226 228 230 229 229 229 227 227 226 226 
199 198 204 201 204 203 205 204 203 203 204 203 204 203 203 201 205 202 207 101 41 45 51 41 44 43 47 36 35 33 31 29 29 30 29 28 35 39 46 49 72 88 81 91 105 102 102 89 101 111 123 125 117 114 107 106 109 100 91 35 36 56 84 90 111 139 140 137 124 123 117 116 71 85 175 224 224 226 225 225 225 226 228 227 227 226 229 227 227 227 225 223 
198 199 202 200 202 203 204 203 203 204 203 204 203 203 201 202 203 203 203 176 83 29 37 43 41 45 40 35 34 34 35 35 34 35 35 34 31 35 34 37 59 70 74 92 79 83 108 88 88 137 113 100 99 100 103 111 111 110 110 86 74 75 82 85 107 130 130 126 116 115 105 70 82 196 219 225 224 227 226 225 225 226 227 227 226 227 227 229 225 227 223 223 
200 199 203 200 202 201 203 204 203 202 206 204 203 205 202 201 202 203 207 190 96 29 32 43 43 42 41 35 33 34 32 33 36 35 35 36 32 34 32 33 44 50 53 66 66 70 81 85 89 94 97 91 93 97 102 112 114 110 111 97 89 71 80 83 97 119 122 122 114 105 97 58 122 220 223 223 225 225 224 225 225 223 225 226 227 229 229 229 229 226 226 226 
196 198 198 198 201 201 202 201 204 200 203 204 205 203 203 202 203 204 208 206 201 32 28 25 30 31 38 31 28 30 31 33 35 36 34 32 34 33 35 33 37 36 44 47 56 55 56 57 59 68 74 79 83 92 97 96 105 107 108 84 81 72 82 79 78 103 111 111 96 83 65 100 181 220 221 225 226 224 222 223 226 225 227 225 229 226 228 226 226 227 226 226 
197 197 198 199 201 204 202 201 203 202 204 203 204 203 203 203 203 203 208 206 211 62 26 23 26 26 31 28 25 23 25 28 30 33 34 34 32 29 28 26 30 36 33 43 47 49 49 46 50 65 58 62 65 79 85 89 100 96 100 70 66 65 72 78 79 102 107 102 88 72 62 112 205 214 221 224 224 224 223 222 222 225 226 225 228 226 229 227 227 225 227 228 
195 196 198 197 201 201 200 200 202 201 202 201 204 202 204 205 202 202 207 203 204 181 57 21 22 20 18 23 21 21 21 20 25 29 29 34 33 28 27 22 14 11 9 12 14 17 14 14 17 26 28 31 45 56 62 70 78 71 71 58 47 54 48 54 61 88 82 74 55 44 140 224 221 220 221 223 221 223 223 222 222 224 226 224 227 226 225 225 227 226 227 227 
196 198 196 196 199 202 202 201 200 201 199 200 202 203 202 204 205 204 208 201 207 206 119 22 19 17 19 20 21 19 18 19 23 25 29 30 30 30 28 23 14 12 13 16 17 18 19 22 26 26 29 30 45 49 61 64 64 62 50 44 43 44 41 48 52 71 61 59 48 63 156 222 222 221 223 220 223 220 223 223 223 223 223 222 222 227 225 224 226 225 226 226 
195 194 194 195 196 200 201 199 198 199 197 199 202 204 202 204 200 202 202 203 206 64 41 31 21 18 18 15 18 17 14 16 16 24 24 26 30 27 29 26 25 26 28 25 26 31 44 53 55 61 60 57 58 60 62 57 44 40 38 35 32 34 40 38 33 36 33 35 95 199 211 224 221 222 217 223 220 224 222 224 222 224 223 221 224 224 226 226 224 224 228 224 
193 193 195 195 197 201 198 199 201 197 203 199 204 201 202 203 203 206 205 203 198 37 52 49 20 18 21 16 15 13 14 13 19 20 24 22 29 28 29 31 30 33 32 30 35 42 72 73 75 82 79 73 65 62 67 65 39 36 27 28 31 29 31 39 40 35 33 33 113 220 225 222 223 222 222 223 224 220 225 224 223 224 223 222 226 226 226 225 224 223 227 226 
193 196 195 196 198 198 198 199 200 203 200 205 203 206 201 196 157 113 123 92 87 28 54 49 21 20 20 17 15 13 15 14 14 18 20 23 26 29 30 31 31 31 31 35 47 56 81 81 87 96 97 96 75 66 66 57 35 32 30 25 27 24 27 28 29 36 35 41 136 221 222 225 223 223 222 224 221 222 224 227 222 224 222 222 226 226 227 226 224 224 225 225 
193 191 195 195 195 196 199 199 200 197 202 192 176 155 83 51 62 73 73 62 45 35 54 43 31 23 16 17 17 14 13 14 14 18 22 20 24 27 28 28 39 32 35 43 45 55 59 68 76 97 105 103 87 79 69 46 35 25 25 21 25 21 24 27 31 44 65 101 148 131 163 222 220 221 223 224 224 222 224 224 224 223 223 223 226 225 224 225 226 223 226 226 
188 190 191 193 195 194 195 196 196 197 196 88 81 80 62 44 81 67 70 56 28 43 53 44 33 27 21 15 17 14 14 14 15 18 18 21 22 23 27 26 37 32 30 41 46 57 60 62 73 95 99 100 69 77 67 44 30 31 32 18 22 24 28 24 37 46 69 111 156 46 64 192 215 222 221 222 222 222 224 224 225 222 224 222 227 227 224 224 227 224 226 226 
186 189 189 190 188 176 167 148 133 119 112 80 82 69 41 76 74 68 64 37 28 44 43 41 40 33 34 16 19 15 13 13 14 17 20 20 20 19 25 26 30 30 31 40 40 39 42 56 56 75 71 80 58 44 40 43 43 36 38 21 23 20 31 29 38 122 131 138 151 142 98 115 183 171 156 177 165 223 219 220 220 220 223 222 227 225 226 225 224 222 225 223 
160 150 131 123 117 106 104 104 100 100 95 83 78 83 60 72 71 70 49 34 26 42 44 43 40 38 36 25 18 16 15 14 14 17 20 18 21 22 23 27 27 30 29 37 36 35 37 46 48 63 70 60 47 45 40 36 33 37 44 23 21 19 20 36 79 132 138 140 150 135 154 27 138 178 153 170 182 152 207 222 222 220 223 222 224 225 226 224 224 223 223 224 
99 98 100 93 94 91 91 90 91 85 77 70 76 49 75 65 61 60 39 24 29 41 42 41 39 35 36 30 27 23 13 13 14 16 14 18 18 20 21 21 22 27 33 23 23 26 31 38 42 50 50 41 41 35 30 33 20 25 24 25 26 28 58 107 119 135 137 142 144 137 148 132 21 130 167 153 178 186 206 179 174 177 224 223 225 222 225 223 224 223 225 224 
94 96 91 91 92 90 87 89 89 79 71 69 75 36 67 59 60 52 38 25 32 37 42 42 37 35 37 33 33 33 15 13 13 14 15 16 18 18 20 20 20 27 29 19 18 23 30 30 29 35 39 37 28 33 27 25 22 21 23 28 34 38 64 97 115 138 138 136 147 135 136 147 60 74 149 149 163 175 155 179 183 181 194 228 224 224 221 225 221 223 224 223 
93 92 93 89 92 87 84 84 73 67 71 71 43 49 69 60 58 40 26 29 30 37 37 38 38 36 38 34 36 34 31 22 18 12 14 12 13 17 15 16 17 17 18 17 19 16 20 19 21 26 27 26 20 25 23 20 20 20 20 26 30 81 121 126 128 134 138 138 144 122 140 145 138 41 81 169 149 155 82 129 175 185 175 180 177 179 184 202 212 220 225 223 
86 89 90 89 85 84 87 84 69 69 69 67 35 70 66 58 58 42 28 31 31 35 37 41 38 39 38 33 36 37 30 29 27 15 12 13 11 14 14 13 14 15 15 13 14 12 15 13 26 20 29 21 17 18 18 15 17 26 27 39 61 111 122 130 132 134 135 137 142 114 139 145 141 96 28 164 169 152 176 38 192 185 183 154 181 183 179 179 176 177 188 196 
88 87 89 87 90 82 82 79 68 68 71 54 37 77 61 57 61 33 25 34 37 35 36 36 40 35 36 32 38 38 31 30 30 18 12 13 13 12 13 14 13 14 12 10 14 12 18 16 19 16 21 20 21 17 17 17 18 26 28 73 94 116 124 130 133 131 135 137 141 106 139 146 143 124 31 142 173 150 177 72 118 175 185 158 184 182 180 177 178 176 176 174 
85 81 90 86 86 81 82 65 69 64 67 31 58 67 56 58 58 29 30 34 39 37 36 34 40 38 38 36 40 37 35 32 34 31 31 20 18 16 14 15 13 12 12 13 14 13 15 17 15 13 16 16 21 22 22 24 34 72 95 114 119 123 127 127 129 131 133 137 135 83 144 143 146 141 93 121 161 179 162 181 70 170 185 168 159 185 178 178 177 173 171 170 
81 84 87 81 85 78 75 63 74 64 72 31 73 63 55 61 55 27 30 37 39 36 32 34 38 39 38 39 38 37 35 32 35 30 30 27 17 16 13 16 13 16 12 14 15 14 15 16 15 16 18 16 20 17 27 35 61 85 104 115 119 120 123 128 128 131 131 135 128 104 144 145 145 143 122 99 143 166 158 174 142 192 163 185 155 163 184 177 176 171 170 168 
80 81 84 75 81 68 66 56 69 63 68 52 71 57 57 62 52 27 36 38 42 40 39 40 38 32 40 37 38 35 31 35 35 32 31 31 29 28 25 22 23 28 24 19 27 27 30 28 36 42 45 45 65 84 85 93 105 107 107 118 120 119 126 128 129 127 134 134 74 132 140 144 143 146 143 51 129 148 147 145 174 30 183 166 161 146 158 178 175 171 169 169 
