P2
92 112
255
130 110 129 125 116 150 153 146 147 153 89 113 130 127 130 131 130 130 128 130 129 131 129 130 129 128 129 130 129 129 128 128 130 130 129 129 129 130 130 131 130 128 130 130 130 128 128 129 128 128 129 128 128 130 129 128 130 130 129 129 128 130 129 129 130 130 129 130 128 130 129 129 129 128 129 129 129 130 131 131 131 131 132 131 132 131 131 131 131 131 130 131 
139 121 110 135 138 138 150 151 161 190 131 96 117 130 131 129 130 128 128 129 130 130 129 130 130 130 131 129 130 129 130 130 131 130 129 130 127 129 130 130 130 129 129 130 130 130 129 130 128 129 129 129 129 130 128 130 130 129 129 128 129 127 129 129 130 130 129 129 130 130 129 128 129 128 129 129 130 129 131 130 130 132 132 131 131 130 132 130 130 131 131 130 
140 137 108 130 140 126 146 159 187 181 165 96 98 131 129 130 128 130 129 130 129 130 129 130 129 127 129 129 130 130 130 129 129 130 129 131 130 131 130 130 131 131 130 132 130 129 130 128 128 130 130 130 130 128 130 129 130 129 129 129 128 129 128 130 130 128 129 129 129 128 128 128 130 130 129 129 129 129 130 131 130 130 131 131 130 130 130 130 129 131 131 131 
128 143 127 116 123 151 126 141 98 204 180 78 99 99 129 127 130 129 130 130 130 129 129 129 129 129 127 128 129 130 130 129 129 130 130 130 130 130 129 130 130 129 131 130 129 128 131 129 125 125 124 126 129 129 129 130 131 131 130 130 128 128 129 128 129 128 130 129 128 128 129 128 129 130 128 130 129 129 131 130 131 131 131 131 130 129 130 130 132 130 131 132 
112 116 118 120 121 136 132 128 98 151 146 85 92 92 128 130 130 129 130 129 130 130 129 129 129 127 128 127 129 129 128 129 129 130 129 129 124 124 123 126 129 130 128 130 129 127 130 115 97 91 104 110 119 124 125 131 129 130 130 129 128 128 129 130 130 129 129 129 131 128 130 128 129 129 129 129 130 129 130 131 130 132 131 131 130 129 130 130 130 130 131 130 
109 115 121 112 117 118 126 123 102 99 178 152 70 94 104 121 130 130 130 130 129 131 129 130 129 130 130 127 129 129 128 128 128 130 119 112 99 99 101 100 114 120 106 124 125 124 104 91 93 89 92 94 98 96 95 104 126 122 129 132 129 128 128 130 130 129 129 128 129 130 128 128 129 129 128 129 129 129 130 130 130 130 130 130 131 129 131 130 130 129 131 130 
143 123 120 116 108 126 112 156 117 126 148 154 130 82 101 101 127 131 128 129 129 127 129 130 128 129 130 130 129 128 128 123 91 90 100 97 93 94 95 102 96 97 103 103 110 106 118 128 110 102 104 100 96 97 92 95 92 99 101 101 105 110 124 125 126 127 128 128 130 131 130 129 130 128 129 128 129 129 130 130 130 131 130 130 131 129 130 129 130 129 131 131 
130 128 127 114 105 127 132 159 163 237 249 170 142 97 95 100 129 128 130 130 128 129 128 129 130 129 130 128 127 128 118 103 100 106 98 116 124 100 100 106 106 100 104 105 104 96 188 208 188 181 170 118 104 101 104 106 95 93 101 99 102 106 108 107 125 126 126 128 129 129 129 129 130 130 129 129 129 129 129 129 130 131 130 131 130 131 130 130 130 130 130 130 
138 128 134 139 129 132 160 185 119 55 94 226 188 174 127 82 130 129 129 130 129 130 129 130 128 126 126 108 109 118 101 96 161 189 176 180 158 155 156 121 157 150 99 168 170 163 147 141 133 114 120 124 129 156 156 185 174 163 156 93 98 108 108 95 100 100 102 114 107 123 129 129 129 129 129 127 130 129 129 129 130 130 130 130 130 130 130 130 130 130 130 130 
135 135 136 136 153 146 176 176 103 87 121 240 198 179 175 82 123 129 131 130 131 129 131 128 121 105 94 101 104 106 127 198 207 164 149 140 120 110 126 125 124 124 131 157 139 133 122 140 121 110 109 104 118 121 140 125 117 143 155 141 128 143 129 99 105 95 93 92 109 101 126 129 128 128 129 129 130 128 128 129 129 129 130 131 129 130 129 130 129 130 130 131 
124 152 102 139 148 130 149 115 74 110 118 165 161 162 155 89 127 130 130 129 130 130 129 130 102 105 101 112 95 162 182 166 130 115 128 119 111 116 133 118 136 131 132 128 112 124 135 127 125 126 121 118 122 129 126 133 126 112 131 133 107 136 163 180 163 141 169 113 93 93 101 130 130 130 129 130 128 129 128 128 128 129 129 130 131 131 131 131 130 129 130 130 
123 135 138 136 147 130 129 135 117 114 119 124 105 122 112 76 130 129 131 128 130 128 133 117 102 106 112 128 139 165 141 101 115 127 134 128 118 124 110 125 134 130 122 128 120 129 131 122 122 118 121 122 115 112 114 121 133 119 131 112 79 133 163 170 165 161 136 181 90 91 96 124 130 129 130 130 129 128 128 128 128 129 130 129 131 130 131 131 130 130 130 131 
136 147 154 150 124 125 130 130 145 144 148 153 148 149 132 128 130 127 129 129 124 102 88 109 182 159 139 124 142 136 121 131 110 140 127 132 117 130 126 133 123 125 126 121 128 129 127 124 122 123 129 123 110 109 103 124 121 152 128 110 119 127 122 120 92 143 153 150 81 71 90 93 107 119 127 129 129 129 128 129 129 127 130 129 131 131 130 132 131 129 130 130 
144 139 156 115 124 127 127 131 151 147 143 144 139 126 129 129 130 128 134 135 121 102 98 169 164 138 122 134 119 133 117 128 131 147 127 124 123 128 127 121 126 128 127 122 128 133 124 124 122 124 120 116 120 105 96 120 115 123 125 118 118 127 113 103 107 150 160 153 127 68 82 95 101 99 110 130 129 129 128 127 128 129 130 130 131 132 131 131 131 131 131 130 
143 138 156 109 128 126 128 129 152 147 141 129 116 123 132 129 128 131 134 122 102 92 150 155 138 127 114 128 128 127 127 130 133 127 115 126 127 124 121 122 128 133 118 122 127 128 125 124 123 118 124 126 129 111 116 125 113 121 123 124 107 107 113 84 125 132 152 129 102 127 72 89 94 94 104 128 129 130 128 127 128 129 129 129 130 131 130 131 131 130 131 131 
140 139 103 118 128 126 127 127 131 129 123 127 130 132 130 129 129 131 110 121 170 167 126 126 130 128 125 122 128 134 125 117 127 127 122 133 122 127 124 124 131 115 129 127 129 127 125 123 123 121 118 124 121 118 123 117 129 144 135 130 123 120 135 124 93 134 131 124 117 137 147 117 89 94 97 103 130 129 129 128 128 129 129 130 131 130 130 130 130 130 131 132 
140 142 95 124 126 127 126 127 130 131 130 129 132 131 129 129 131 113 96 156 185 136 126 126 139 130 116 125 129 130 124 127 126 124 118 130 120 125 125 127 124 112 122 127 126 124 126 124 121 127 125 122 132 123 117 121 130 141 125 123 121 136 130 121 105 104 148 142 102 153 151 110 134 77 90 95 112 124 129 128 128 128 130 130 131 130 130 130 130 130 131 131 
144 143 107 126 127 126 128 127 131 130 130 130 130 130 133 139 128 110 140 154 144 129 127 127 127 127 124 125 121 121 131 120 118 129 123 127 122 124 126 128 124 125 126 126 125 124 127 127 127 123 123 117 129 124 119 125 118 122 121 131 130 121 115 107 133 142 116 112 119 144 141 124 134 140 46 94 101 99 120 123 129 128 128 129 130 131 129 130 130 130 131 131 
143 145 118 126 126 126 127 127 131 129 131 129 130 130 132 133 127 132 168 160 136 127 135 115 126 127 128 117 122 130 121 121 126 125 126 127 122 127 124 120 126 122 124 126 121 124 126 126 125 120 123 121 128 121 123 124 126 116 124 137 128 115 106 121 124 121 118 100 112 122 118 125 142 158 109 90 104 106 114 115 122 128 128 128 129 130 129 130 131 130 131 130 
145 141 127 125 126 128 127 129 130 132 129 130 127 130 127 106 152 142 144 137 125 125 138 126 134 130 130 124 129 126 120 127 128 121 124 126 126 123 125 127 128 122 122 125 122 124 126 124 124 125 125 120 126 125 123 122 120 121 127 117 115 114 126 133 137 125 113 125 97 121 131 131 142 139 133 129 118 144 103 108 110 118 125 129 129 130 129 130 130 131 130 130 
136 127 125 125 126 129 128 127 131 130 131 129 130 129 124 134 157 136 133 125 123 118 130 130 133 129 128 127 130 121 123 127 125 123 126 128 125 126 126 127 125 122 122 127 124 127 126 121 123 125 125 124 127 122 122 124 125 129 132 118 124 129 138 122 123 126 131 113 133 124 130 130 150 123 114 136 115 92 118 118 108 110 122 129 130 129 130 130 130 130 130 130 
140 98 127 127 126 128 125 130 128 129 129 133 129 96 95 93 141 133 142 123 122 129 121 130 124 125 129 116 128 126 125 124 126 127 128 120 125 126 129 127 128 128 126 125 125 126 123 126 128 124 122 122 130 130 133 133 117 107 115 124 125 133 127 122 133 137 132 133 127 103 124 136 154 130 116 119 130 108 165 136 119 102 114 130 130 129 130 130 130 130 131 130 
127 101 127 126 127 128 127 129 129 129 128 133 126 97 123 136 151 144 133 124 127 130 118 127 126 129 130 125 127 125 124 127 126 127 124 123 126 126 126 125 127 128 128 126 126 126 123 127 125 124 123 124 126 128 123 121 113 128 126 137 129 122 119 125 115 120 101 94 108 133 136 144 133 141 117 137 126 109 133 169 109 90 102 130 129 130 129 130 130 130 130 130 
176 107 126 128 127 127 127 130 129 129 129 124 130 146 106 137 152 132 125 124 124 118 125 125 129 124 127 121 128 129 124 129 128 127 126 126 127 127 125 127 127 127 127 126 124 124 126 126 125 127 127 129 125 125 119 117 134 127 129 129 114 117 122 126 123 123 119 108 125 149 140 142 116 123 127 130 113 102 170 163 133 81 104 130 130 130 130 130 130 129 130 130 
128 119 127 128 127 127 129 131 131 128 130 114 184 120 147 148 133 124 129 126 124 127 125 124 127 124 126 124 126 127 125 125 122 126 125 123 128 127 127 129 125 127 129 125 127 127 125 126 124 130 129 130 130 129 130 130 131 130 115 127 130 124 131 121 126 129 128 120 113 122 121 93 100 147 148 133 80 92 167 174 136 42 93 127 130 130 129 130 130 130 130 129 
97 123 127 128 127 127 130 131 131 128 131 116 207 192 139 129 139 124 128 125 127 128 126 126 126 126 124 127 126 127 124 128 127 127 130 130 129 130 128 128 131 133 129 130 128 127 127 121 125 132 128 126 129 133 134 127 128 121 131 136 129 127 129 131 129 121 126 115 106 134 129 101 122 158 145 108 92 70 157 186 146 45 84 129 129 130 129 130 130 130 129 130 
107 126 128 127 129 130 131 130 129 129 134 162 144 108 131 128 129 127 129 121 125 126 124 124 126 125 124 127 126 130 130 129 131 132 133 134 134 132 134 134 133 133 133 132 131 133 124 124 125 128 135 134 134 131 130 126 136 136 136 143 137 121 130 133 132 124 124 117 123 145 128 118 148 145 133 128 104 111 164 177 140 32 87 129 130 130 130 129 130 130 130 130 
117 127 127 126 127 130 130 130 127 129 134 145 101 129 130 126 126 128 126 124 125 124 124 124 127 126 124 127 127 129 129 132 133 132 133 134 133 132 133 136 130 129 130 134 131 128 128 124 126 132 132 131 131 130 125 122 126 132 134 139 126 126 137 128 126 125 129 122 117 138 133 136 150 139 137 114 123 127 180 159 125 43 87 123 130 130 130 131 130 130 130 130 
124 126 128 127 127 132 130 130 130 129 129 115 123 185 127 127 126 127 125 127 127 127 127 128 126 127 128 127 128 129 134 128 131 133 132 130 127 132 131 127 130 130 132 128 131 137 131 124 124 124 134 133 127 133 124 116 105 114 125 126 133 124 125 133 138 133 133 122 132 105 115 113 116 116 135 120 118 122 149 135 64 60 96 128 131 131 131 129 131 130 130 129 
126 126 126 127 126 132 130 130 128 128 123 120 131 162 128 126 126 128 126 126 125 125 126 127 129 128 127 129 127 133 127 128 130 131 129 122 133 130 130 128 133 134 131 128 134 130 130 126 124 128 133 136 136 127 124 123 110 109 115 118 123 124 134 137 139 134 142 134 131 130 129 114 124 125 125 134 115 129 141 121 69 68 115 131 129 130 129 130 129 129 130 129 
127 127 127 127 128 129 131 130 129 134 133 156 168 145 124 128 125 125 125 128 126 125 127 127 128 129 127 130 125 123 126 124 126 128 131 132 134 133 131 132 132 132 130 126 126 125 127 130 127 133 136 136 129 134 130 127 122 124 128 144 135 137 134 134 137 135 131 139 140 115 120 139 131 133 121 107 104 112 121 118 51 100 129 131 130 131 130 129 128 129 130 129 
126 126 126 125 130 129 130 129 130 130 125 155 156 142 125 128 127 126 124 126 125 127 126 127 129 127 129 127 121 124 120 123 127 129 128 130 130 131 133 133 126 128 127 122 125 127 127 126 126 132 137 137 134 137 135 132 128 133 136 140 137 128 127 139 130 133 131 130 129 138 137 136 119 147 124 110 113 111 118 84 41 108 130 130 130 132 130 128 129 130 130 129 
127 126 126 127 131 130 129 129 130 129 130 142 204 132 125 129 127 125 125 124 127 124 128 126 127 124 122 123 119 121 123 122 122 129 125 124 127 130 130 129 125 125 125 127 127 127 129 127 127 127 128 124 129 125 123 124 129 128 120 115 119 107 125 126 126 144 135 128 139 139 130 115 138 134 140 128 135 147 140 86 46 120 130 131 130 130 130 130 130 130 130 130 
126 125 127 131 130 130 129 129 129 130 128 124 211 131 123 127 128 126 124 126 127 129 128 124 126 127 123 122 124 123 122 120 123 127 123 122 125 127 128 127 128 126 126 129 129 128 129 130 128 126 124 124 127 130 128 131 126 126 118 113 109 117 129 127 134 137 141 129 147 146 145 132 132 138 129 115 119 136 142 87 43 127 129 131 130 130 130 130 130 130 130 131 
126 126 126 130 129 131 130 130 130 130 127 149 208 142 127 127 130 126 126 127 126 124 125 125 126 124 126 124 122 124 123 123 122 126 125 122 125 127 127 128 126 126 126 127 127 128 130 128 130 128 129 129 128 127 130 129 121 122 117 117 115 122 135 132 134 129 133 132 137 141 133 126 121 128 129 111 104 131 126 87 49 131 130 131 130 128 130 130 129 130 131 131 
126 127 128 132 129 130 129 130 130 130 132 100 206 175 129 127 129 126 129 127 127 122 121 125 127 127 124 125 122 124 127 126 123 125 127 127 128 128 129 129 127 126 126 124 126 128 125 127 126 127 127 126 127 130 129 128 121 124 126 119 125 131 129 129 128 132 133 129 125 134 144 142 136 146 148 96 80 134 138 115 46 124 130 130 130 130 130 130 130 130 130 130 
127 127 131 132 131 129 131 130 130 132 130 108 199 174 129 130 129 127 127 127 126 120 124 124 126 124 124 123 125 126 125 124 121 125 128 126 126 129 128 128 127 126 125 126 127 126 124 126 126 126 126 127 130 128 128 129 124 128 130 128 126 130 127 129 128 126 133 127 121 136 131 142 143 130 142 114 88 129 140 135 39 126 130 130 131 131 130 129 130 130 130 131 
127 125 131 130 128 130 130 130 130 131 130 124 129 186 126 131 129 129 128 124 126 126 124 122 122 124 123 124 127 124 125 125 126 127 128 130 128 130 130 130 129 128 128 127 130 129 127 128 126 126 125 126 127 125 126 128 125 126 123 130 130 132 133 132 128 127 128 130 126 130 141 144 141 141 138 120 84 122 133 102 48 128 126 131 130 129 128 130 130 130 131 131 
127 127 130 130 129 130 130 128 129 129 130 127 117 174 122 126 125 125 125 125 126 123 123 124 126 126 126 124 125 127 125 124 124 128 127 128 128 130 130 129 130 129 128 127 130 130 127 130 127 126 125 126 127 128 128 128 122 124 127 130 126 129 130 131 128 129 130 128 122 125 140 144 144 143 134 124 104 121 129 68 63 130 128 131 130 131 129 129 129 130 130 129 
126 128 130 130 130 130 130 129 130 130 129 131 113 118 124 124 130 123 125 129 133 125 125 124 126 124 127 126 129 123 124 124 125 124 125 126 127 124 127 126 127 126 123 127 128 127 126 129 127 126 127 124 128 126 127 127 120 124 128 129 127 129 130 133 129 130 128 129 125 128 135 152 149 137 126 114 131 137 91 40 72 131 129 131 131 130 130 129 129 130 130 130 
126 129 132 130 129 129 130 129 131 130 129 127 110 112 128 128 129 125 128 131 130 124 126 123 125 124 126 128 130 126 123 126 124 126 125 128 127 126 127 125 125 125 125 126 131 129 126 125 129 125 125 124 126 126 125 124 121 128 126 128 130 132 131 131 131 131 127 128 126 128 133 144 141 144 130 126 139 132 66 46 78 129 130 129 130 129 130 130 129 130 130 130 
127 129 130 128 130 129 130 128 129 130 129 129 112 128 133 129 125 131 129 125 124 125 125 129 133 132 133 128 128 125 124 127 123 121 123 121 124 124 123 123 125 125 125 128 131 130 126 125 129 128 126 125 126 125 124 125 123 127 120 125 130 130 133 133 132 131 132 130 129 128 125 133 147 150 154 138 146 129 38 72 117 129 129 131 129 131 129 130 129 130 130 129 
127 131 129 130 129 129 129 130 130 127 129 130 122 117 157 127 125 130 130 123 125 125 128 132 131 133 130 125 124 124 124 120 121 122 122 122 124 121 121 123 124 124 125 129 129 127 126 126 128 128 127 125 122 124 123 125 121 126 125 123 126 125 129 128 129 128 127 128 130 129 127 127 135 151 151 150 138 130 47 76 119 130 130 130 128 130 129 129 129 129 130 130 
127 130 131 128 130 130 128 131 129 130 130 129 127 106 165 129 128 131 127 123 123 130 131 130 128 125 122 123 123 119 120 120 120 114 121 123 123 121 119 121 122 123 124 126 127 124 123 123 124 128 125 124 125 123 126 125 125 124 122 117 120 124 126 125 127 128 124 125 129 129 130 124 124 143 154 155 119 135 60 78 121 130 130 130 129 129 129 130 129 129 129 129 
129 131 129 129 129 128 130 130 130 128 131 131 132 115 172 158 132 130 124 128 125 115 119 114 110 109 110 111 113 110 114 113 106 110 109 112 117 117 119 117 120 124 124 125 123 126 124 123 123 124 127 127 129 129 129 129 125 124 127 116 116 117 111 113 113 117 116 120 115 120 118 130 118 119 136 169 119 114 65 98 127 130 129 130 129 130 128 130 130 129 130 128 
132 130 129 130 129 128 128 130 131 130 130 130 131 126 174 166 140 124 128 123 123 113 112 113 113 117 115 106 104 107 113 110 108 111 109 110 116 115 115 111 121 122 122 124 122 127 126 126 124 125 126 123 123 124 122 125 124 126 117 116 117 108 113 106 102 109 108 110 115 107 107 122 110 110 133 178 122 108 69 120 126 129 129 129 130 129 129 129 130 129 129 129 
129 130 129 130 129 129 129 129 129 128 128 130 130 128 105 158 167 121 120 118 114 123 121 122 120 117 119 123 123 119 121 125 119 122 113 113 117 108 119 119 120 116 116 113 119 126 127 127 126 124 119 113 118 113 116 108 108 114 117 112 110 110 127 129 127 138 133 133 135 128 128 115 85 97 134 193 126 40 97 129 131 129 130 130 131 131 130 129 130 129 129 129 
130 129 129 129 128 129 128 129 129 129 128 129 130 129 111 129 166 126 120 119 125 125 124 125 126 127 125 127 127 125 125 125 117 116 120 118 115 114 123 118 110 118 118 122 122 126 127 125 121 119 119 119 116 113 110 113 123 127 136 138 130 131 126 122 124 128 126 129 128 133 118 115 87 88 122 203 104 46 102 129 130 130 130 130 130 129 129 130 130 129 129 129 
129 130 130 129 128 128 129 130 129 129 129 129 131 129 122 117 152 130 130 138 131 129 131 131 132 129 131 130 128 126 128 125 126 126 127 126 124 126 120 117 123 113 119 122 122 131 126 122 123 128 129 126 142 140 140 136 132 129 137 136 133 138 140 139 137 136 139 137 132 135 128 141 105 98 121 199 45 43 130 129 130 130 130 131 131 130 129 129 129 132 129 129 
130 128 130 129 129 128 129 129 129 129 130 129 131 130 121 119 106 129 138 132 130 127 132 130 133 134 132 133 133 133 132 133 131 127 127 127 122 127 120 120 110 113 123 118 123 126 129 122 123 137 139 130 140 141 143 139 136 126 138 132 131 139 132 139 140 139 130 126 136 142 140 131 126 90 123 202 62 53 131 132 130 129 131 129 130 131 130 129 130 129 130 129 
129 129 130 128 130 129 129 129 129 130 131 129 129 130 133 124 123 130 129 130 129 130 130 128 130 130 127 129 132 131 132 132 131 131 127 126 127 124 125 121 117 119 117 120 116 120 127 126 129 145 133 132 134 130 134 135 135 131 135 128 125 123 121 120 108 109 104 119 124 126 132 115 104 102 101 191 90 60 126 129 128 129 129 128 130 130 130 129 130 129 129 130 
129 130 128 130 129 129 130 129 127 132 129 130 128 129 135 125 106 123 123 131 131 129 131 127 126 125 127 123 127 128 125 128 126 125 123 122 124 121 123 120 120 117 121 116 114 128 129 132 134 144 136 128 131 123 127 125 126 125 125 121 117 113 112 113 114 112 115 118 121 122 120 116 115 95 96 203 139 66 121 130 129 129 129 129 130 130 130 130 131 129 130 130 
129 130 129 129 130 130 130 130 129 128 130 130 129 129 112 127 117 124 128 130 125 129 130 126 124 124 121 122 121 120 118 121 120 120 119 121 120 121 115 118 115 117 119 122 130 127 132 136 136 137 132 124 122 118 118 125 117 115 113 109 97 100 104 107 102 112 111 109 113 121 122 111 123 104 100 194 148 112 116 129 130 131 129 129 129 129 130 130 130 130 130 130 
132 129 129 128 129 129 131 128 129 127 129 130 129 129 113 119 174 127 127 122 118 121 120 123 128 123 122 124 121 126 125 124 120 124 124 124 127 127 125 118 116 126 129 130 127 124 135 137 133 139 126 125 124 121 123 121 129 137 139 139 141 140 153 154 149 133 135 126 110 113 115 113 117 107 94 192 191 154 110 130 131 129 129 129 129 129 130 130 129 129 130 129 
129 129 129 128 130 130 129 128 130 129 129 130 129 129 113 121 152 124 120 122 122 117 118 122 124 126 123 128 127 122 121 123 120 124 133 132 129 127 126 121 121 124 127 121 119 124 119 135 137 137 142 136 131 126 129 136 129 130 125 107 99 89 64 75 94 123 128 144 127 131 129 114 120 107 100 174 203 160 99 129 131 131 130 128 130 130 130 129 130 129 130 129 
129 129 129 130 130 130 130 130 129 129 129 130 130 130 111 105 145 125 124 128 125 126 124 122 120 121 129 144 138 133 128 129 132 132 136 132 124 124 124 123 123 125 123 114 118 118 115 129 132 158 160 136 128 125 125 126 124 136 128 128 132 147 140 166 172 151 125 131 116 131 135 123 126 122 106 149 196 161 85 130 130 131 131 130 130 130 130 130 129 129 129 130 
128 128 130 131 130 130 130 130 128 127 129 130 130 130 110 106 141 124 126 128 128 128 130 133 137 138 136 131 137 129 115 127 130 124 124 128 126 124 122 129 125 125 116 118 121 118 123 130 130 149 167 139 125 126 125 121 106 133 132 118 136 128 115 102 108 179 188 168 142 126 116 119 121 118 104 136 200 162 84 130 131 130 130 130 130 130 129 129 129 130 130 130 
129 130 130 130 129 130 131 130 129 129 129 131 129 128 112 138 132 127 125 127 127 126 133 130 122 125 124 107 126 126 132 132 135 107 118 126 127 128 132 130 119 116 115 115 118 121 120 129 132 137 145 127 147 141 129 124 115 133 143 137 139 142 98 78 104 118 107 94 83 87 100 117 118 121 107 127 196 165 82 130 130 130 130 131 129 129 130 129 129 129 129 130 
129 129 131 130 128 129 129 128 130 128 130 130 129 127 118 150 133 125 127 127 126 124 124 121 122 122 124 127 110 123 130 128 116 122 131 130 128 126 127 131 114 119 118 113 122 124 122 129 132 132 139 134 140 132 131 122 131 133 127 137 132 115 86 78 104 139 111 111 92 104 115 121 121 126 108 128 193 149 84 131 132 131 130 130 130 130 130 131 129 130 129 130 
129 129 131 130 129 128 129 128 129 130 130 130 129 129 124 105 118 125 130 126 129 129 130 129 126 126 126 128 129 130 121 128 128 132 128 129 127 127 130 130 118 124 115 119 122 123 122 127 128 129 130 135 143 140 135 134 132 133 133 123 119 124 124 134 142 134 122 127 128 131 130 126 125 130 115 130 175 117 108 131 131 130 130 130 129 130 129 129 127 130 130 128 
128 128 130 130 130 129 129 128 129 128 130 130 131 129 121 93 124 126 127 127 127 125 126 130 129 130 130 128 129 128 128 133 134 130 127 126 127 130 127 122 122 123 115 117 122 124 124 126 129 127 133 131 128 147 134 133 137 144 142 144 147 142 150 150 145 136 127 119 121 123 122 121 124 128 119 130 162 137 121 132 130 130 130 131 129 131 129 129 130 128 129 130 
128 129 129 130 129 129 128 128 128 129 129 128 130 128 123 105 124 127 126 124 126 126 129 127 129 130 132 131 128 131 130 129 126 127 126 127 130 127 126 123 125 121 116 118 123 123 126 126 128 130 128 129 125 123 140 134 127 126 127 137 138 129 119 110 112 114 115 125 120 119 121 127 124 127 121 132 144 159 120 128 129 131 130 130 130 129 129 130 129 129 130 129 
129 130 130 129 128 130 130 128 130 129 130 130 127 126 113 115 125 126 124 121 127 127 127 128 130 128 130 129 129 128 130 129 128 130 129 133 124 124 128 126 126 125 116 121 120 121 125 127 128 129 131 129 127 124 126 123 135 138 132 117 114 101 98 102 107 117 119 116 118 120 119 125 124 130 124 130 133 179 110 127 128 130 130 130 128 130 131 130 129 130 130 129 
130 129 130 128 128 130 130 129 130 131 130 129 129 124 136 116 126 126 127 124 127 127 128 133 130 129 130 136 130 131 131 131 130 133 130 131 120 126 126 125 125 121 117 121 120 121 124 127 127 129 128 130 123 124 127 122 119 121 131 127 131 129 121 121 119 123 121 123 115 119 120 124 124 130 124 131 134 171 110 128 130 129 130 131 129 130 131 130 129 127 129 129 
129 130 131 127 131 129 130 129 130 130 131 130 128 120 118 121 125 127 124 123 125 128 127 123 125 127 126 132 132 132 133 127 131 123 124 123 124 125 127 121 120 121 121 119 121 121 123 130 128 125 125 128 123 122 122 121 124 120 116 116 123 127 133 132 132 130 129 125 116 120 127 129 128 132 124 130 131 179 79 124 129 129 129 129 131 130 131 130 129 128 129 129 
130 130 129 129 128 129 129 129 129 130 130 129 128 124 111 120 123 123 126 125 128 128 125 125 129 130 126 124 122 124 126 128 128 127 124 123 125 126 127 120 123 122 119 118 120 124 121 131 129 126 124 129 121 121 122 122 126 129 127 120 117 120 125 128 130 132 130 131 123 128 131 132 131 133 125 131 131 174 68 123 130 130 129 129 130 129 129 131 130 128 127 129 
130 130 129 130 130 130 129 129 130 129 128 130 128 127 121 133 124 122 126 127 129 128 130 128 129 125 127 126 126 126 127 127 131 126 122 129 129 134 130 129 129 124 126 118 121 122 111 129 130 133 133 136 132 135 125 121 123 126 126 126 125 124 122 120 120 127 129 133 137 139 138 129 128 133 122 134 134 163 87 116 131 130 129 129 129 128 128 129 130 131 129 130 
130 129 130 130 130 128 130 128 130 130 130 130 129 129 101 131 124 123 124 126 130 130 129 127 125 125 124 126 126 127 130 126 128 130 126 127 133 134 130 130 130 126 129 121 122 123 103 127 131 139 141 140 134 136 132 129 125 126 124 126 127 125 126 121 121 122 123 124 129 132 130 125 127 131 122 133 132 166 70 119 130 128 129 131 129 129 129 130 130 130 129 130 
130 129 128 130 130 129 129 128 128 128 130 128 130 125 95 123 126 127 127 123 127 123 127 125 126 125 124 127 125 128 126 133 129 125 127 130 128 126 125 128 126 121 121 119 121 124 101 127 135 130 131 127 113 118 120 133 126 126 127 127 129 129 130 130 128 127 123 123 123 124 126 124 127 131 122 132 133 173 79 125 129 129 128 127 128 130 131 130 130 129 130 130 
130 130 128 129 130 130 128 129 129 130 129 129 128 121 97 121 124 124 128 123 124 127 125 125 124 122 124 125 127 127 127 127 128 127 125 133 114 121 124 124 120 123 121 118 118 119 118 123 127 110 105 104 108 114 112 110 131 127 126 128 128 126 133 129 127 124 127 127 127 129 129 125 127 129 121 133 133 178 81 127 131 130 127 128 129 128 130 131 130 129 130 132 
129 128 129 128 129 128 130 129 128 129 129 127 127 123 90 119 122 121 124 125 127 127 126 127 127 129 125 126 128 127 129 127 128 126 128 130 115 117 115 117 121 126 123 112 111 114 116 124 110 103 104 103 105 113 116 112 138 131 126 130 134 130 127 127 125 122 125 127 126 127 129 127 129 131 118 134 132 189 81 130 130 130 129 128 128 130 129 131 131 130 129 130 
130 128 129 129 129 127 128 129 129 129 129 128 128 123 97 125 118 126 124 124 123 130 129 128 128 126 127 127 125 129 130 127 128 125 127 120 120 120 117 115 115 121 122 120 115 113 121 125 119 118 111 91 118 130 127 125 139 133 137 133 130 129 129 126 126 127 129 129 127 128 127 127 133 127 115 134 138 181 86 129 132 131 129 127 130 130 129 130 130 129 131 132 
128 128 130 128 128 129 130 129 129 129 127 131 129 122 93 145 120 124 124 122 122 126 128 129 125 125 125 127 125 130 130 129 126 126 126 122 119 121 119 117 115 113 115 127 122 121 123 122 125 108 96 117 198 165 141 127 136 137 134 133 130 130 128 128 127 128 129 130 127 127 129 127 132 126 115 133 146 190 91 129 131 131 130 128 130 129 130 130 130 130 130 131 
128 129 129 127 128 129 128 128 129 127 128 129 129 127 75 146 120 124 125 127 124 125 129 127 127 124 124 129 129 128 128 132 130 128 129 128 134 138 134 140 147 127 118 120 127 129 133 135 130 215 209 202 156 147 152 123 125 130 136 127 130 126 129 130 132 130 130 128 127 129 129 130 129 123 113 135 153 178 105 130 130 130 131 131 130 129 130 129 132 130 130 130 
127 129 127 127 128 128 128 127 129 130 127 131 129 128 95 118 124 124 125 124 125 125 127 127 126 126 127 130 130 129 129 127 128 128 127 128 134 133 127 117 126 135 134 121 120 126 135 135 138 161 151 131 140 139 109 108 127 124 131 130 132 131 130 130 131 130 129 129 128 130 131 133 128 122 115 139 172 150 106 131 131 131 130 131 129 129 130 128 131 132 130 130 
129 129 129 127 130 128 129 128 130 129 129 128 130 129 92 92 133 126 122 127 127 126 128 129 131 129 130 130 130 132 126 125 125 124 128 126 124 123 127 128 116 116 121 138 126 118 112 126 108 102 114 124 110 91 98 113 132 133 128 131 133 132 132 129 128 129 127 130 128 128 131 130 124 117 130 137 183 111 116 131 130 130 129 128 129 128 128 128 130 130 129 132 
130 129 129 127 129 130 130 130 128 129 129 129 129 130 106 84 137 126 126 127 126 125 127 128 130 128 127 132 128 125 127 124 121 125 125 122 118 119 120 120 117 118 124 125 132 127 111 105 93 113 111 112 101 88 110 123 127 129 130 124 128 132 128 129 128 130 128 128 129 127 131 128 121 115 129 144 188 88 127 132 129 131 130 131 130 131 129 129 130 130 130 130 
127 129 127 129 130 128 130 130 130 128 130 129 130 129 111 65 132 118 124 123 123 125 124 125 124 127 129 127 125 124 120 118 120 114 111 115 115 120 115 116 129 138 141 123 124 127 122 124 120 121 103 93 96 99 107 110 112 111 115 120 121 114 127 127 127 126 128 128 128 125 129 123 115 123 138 156 141 83 128 130 130 131 130 132 131 131 129 129 130 130 130 130 
128 128 129 128 130 130 130 129 130 129 130 129 130 131 116 53 110 125 124 124 126 122 125 126 127 127 128 124 123 123 117 114 117 117 115 122 122 119 129 133 145 146 148 127 119 131 136 146 136 137 132 129 115 106 107 114 115 116 105 119 130 118 131 130 128 126 128 128 128 129 130 120 111 127 143 170 141 93 128 130 129 129 131 130 131 131 130 130 129 129 130 130 
128 128 129 128 130 130 128 129 129 130 132 130 130 130 125 72 90 115 123 124 125 122 124 127 127 126 125 122 118 117 117 119 118 127 128 129 130 133 134 139 138 142 146 130 131 143 144 141 140 155 145 159 152 144 129 127 126 129 104 114 124 127 125 129 129 127 128 127 128 128 134 122 110 132 141 173 138 74 129 128 129 130 132 131 132 131 130 130 132 130 130 128 
127 129 129 128 130 129 130 130 129 130 131 131 129 129 129 114 54 142 124 122 131 124 124 122 127 127 126 118 119 127 130 130 136 134 135 136 133 132 130 132 135 136 124 114 130 152 144 133 123 142 147 149 156 155 144 152 147 149 144 140 143 116 115 122 130 131 132 132 127 132 128 115 127 144 149 141 100 81 130 132 129 129 130 130 131 130 131 130 130 130 129 130 
128 128 128 129 128 129 128 128 129 131 129 131 130 128 127 124 55 151 118 120 127 122 124 124 123 125 120 119 125 127 129 134 134 131 133 133 131 129 130 129 130 115 92 104 126 154 136 134 116 130 129 134 142 136 155 139 147 145 145 156 153 128 126 121 127 129 132 131 133 130 127 112 135 144 142 128 90 90 130 131 130 130 130 131 130 129 130 130 130 130 130 131 
128 129 127 127 129 130 129 130 130 130 129 130 130 129 128 133 107 101 152 124 124 128 124 126 122 123 121 123 128 131 128 127 125 127 126 125 119 118 110 108 99 105 97 90 92 89 67 68 81 87 74 73 104 101 106 130 130 124 125 136 140 147 141 133 110 127 128 125 127 127 124 128 142 147 166 91 81 122 131 130 129 130 130 130 129 130 130 130 132 131 131 127 
129 128 129 127 129 130 127 129 129 130 128 128 130 129 130 128 122 80 153 131 124 124 128 127 128 124 120 127 135 132 129 125 124 127 126 124 118 113 115 113 118 124 139 128 104 81 110 116 129 143 123 98 81 81 91 103 124 136 131 132 133 144 156 144 136 126 128 126 128 123 114 136 134 141 162 87 87 121 130 130 128 130 130 131 128 130 130 130 131 131 130 130 
128 128 129 131 130 131 128 128 130 128 129 129 130 127 128 128 130 44 82 148 121 130 129 122 125 126 127 127 128 124 120 121 122 111 114 117 125 127 130 136 135 134 135 152 159 149 151 151 144 139 150 148 148 135 124 105 94 101 113 120 119 115 120 122 155 128 129 128 121 116 112 138 132 172 159 76 115 128 130 130 129 130 130 130 130 130 128 130 131 131 130 132 
128 128 129 129 133 130 128 128 127 126 127 128 128 129 128 130 132 50 55 143 135 127 129 121 125 124 132 129 121 123 122 130 130 129 130 132 138 138 137 140 136 137 137 141 147 149 128 148 158 158 156 165 188 184 168 152 118 125 126 129 123 119 127 126 125 134 131 130 118 116 127 135 147 170 133 76 126 130 130 130 129 128 129 130 130 130 128 130 130 130 131 132 
128 128 129 129 129 129 135 130 130 128 130 127 128 127 129 129 127 107 46 56 145 112 118 131 124 122 121 122 125 123 127 126 130 132 135 127 128 125 131 131 137 147 150 155 157 161 161 143 113 110 105 106 108 118 140 146 177 174 163 137 131 124 124 125 118 122 131 129 121 126 151 148 177 158 99 111 128 127 131 131 129 130 129 130 131 130 129 131 130 129 129 130 
127 128 130 129 128 128 127 133 137 135 133 127 130 129 129 129 130 114 60 44 119 124 118 127 125 121 118 117 125 125 124 126 130 123 127 124 120 121 117 118 121 118 122 128 115 106 122 124 102 91 85 78 89 100 109 115 142 132 140 147 129 120 121 115 117 126 119 120 115 140 143 162 171 118 84 124 128 128 131 130 130 129 128 131 131 130 130 131 130 129 128 130 
129 129 130 129 128 129 129 127 126 125 125 125 125 126 128 130 129 129 112 46 64 147 125 120 125 124 124 119 122 123 123 123 123 126 122 124 126 125 126 121 102 93 93 84 86 90 83 104 103 89 101 115 123 121 119 111 99 92 93 117 115 120 129 117 111 120 119 116 123 140 134 163 97 75 80 127 130 130 129 129 129 128 130 131 130 131 130 129 130 131 129 130 
128 128 128 129 127 130 129 130 127 130 130 128 128 127 127 126 127 127 125 75 49 144 137 124 123 122 124 123 120 123 124 124 125 124 122 123 126 128 128 130 121 116 112 102 113 103 108 106 108 107 128 141 136 134 128 122 111 101 97 107 119 119 128 122 121 121 118 119 133 141 157 159 88 70 100 129 129 130 130 129 129 128 130 130 132 131 130 131 131 130 130 129 
127 128 129 129 128 129 130 129 127 128 130 128 129 129 129 128 130 130 132 94 55 141 142 129 118 119 122 121 122 124 123 127 124 124 123 123 122 125 124 128 131 135 126 130 127 124 126 115 118 134 133 134 128 130 123 120 121 116 116 98 107 122 130 131 123 117 117 118 142 144 165 130 72 80 112 130 129 130 129 130 130 130 130 130 130 130 130 131 131 131 129 128 
130 129 128 127 127 130 129 130 129 128 128 129 130 128 129 128 129 129 127 117 82 45 134 147 129 128 125 123 124 126 126 125 118 124 123 124 123 125 123 124 124 126 128 122 116 121 127 124 120 132 129 121 126 120 121 123 118 116 116 125 118 116 118 114 124 116 125 134 157 168 171 92 80 121 128 130 131 131 130 130 130 130 130 130 130 130 130 132 130 130 130 128 
131 130 128 129 129 129 129 129 127 128 129 129 129 130 129 128 130 129 133 122 97 51 91 159 133 131 124 121 126 126 126 127 122 121 123 125 126 125 129 127 131 135 129 128 128 125 134 132 134 137 147 141 132 131 128 126 121 117 121 133 134 121 119 112 107 114 133 142 166 167 109 69 94 130 129 130 130 131 130 130 129 129 130 130 130 130 131 131 130 131 129 131 
129 128 128 128 128 130 128 128 129 128 128 130 128 130 130 130 133 135 136 135 117 54 12 25 128 128 130 127 124 124 128 130 130 125 124 123 126 126 129 136 140 142 145 148 147 151 151 158 152 155 152 152 139 136 134 130 127 135 139 137 132 130 129 116 107 145 159 169 165 130 83 84 115 131 131 132 130 131 130 129 130 130 130 131 131 129 130 130 128 130 129 129 
128 128 127 130 129 130 130 128 130 130 128 130 130 128 135 140 138 137 133 111 107 37 10 0 126 126 130 131 124 124 126 129 128 129 127 125 125 126 128 129 136 140 141 144 148 145 154 153 156 162 156 150 141 133 129 131 134 135 139 136 133 128 125 132 130 161 171 178 127 97 79 89 125 128 131 131 130 130 128 128 128 130 130 131 130 130 131 130 130 129 129 130 
129 129 129 128 128 129 128 128 129 129 130 135 137 135 122 112 95 78 94 86 79 66 70 112 123 129 121 127 124 124 128 126 130 129 127 128 126 125 128 127 119 119 119 127 123 122 118 114 111 119 124 126 125 122 118 125 140 136 140 129 122 128 118 125 133 167 184 180 63 31 84 130 133 130 130 131 130 130 130 129 129 131 132 129 131 130 130 130 130 129 130 129 
130 128 128 129 129 130 130 129 129 130 128 136 126 101 88 92 92 82 100 117 104 155 139 130 112 125 125 123 127 126 126 126 129 130 128 126 125 128 127 124 120 117 118 125 117 112 99 107 108 111 109 112 120 120 129 127 136 131 130 128 120 124 128 139 141 154 148 130 81 63 77 125 125 130 132 128 130 129 130 130 129 129 130 128 127 130 130 129 129 129 130 131 
129 130 130 130 131 131 130 126 113 101 99 98 100 82 91 116 160 195 161 158 168 115 131 134 115 118 121 130 123 119 124 126 125 128 125 127 128 120 126 123 125 121 126 121 122 122 127 125 117 108 107 101 108 117 118 138 131 133 128 124 122 130 142 138 146 155 96 94 113 224 213 150 164 146 130 121 126 133 127 129 128 130 128 128 129 130 132 130 130 128 129 128 
127 126 122 118 117 119 119 117 103 92 95 96 95 103 165 170 151 198 158 165 173 118 142 130 115 119 121 130 126 121 123 126 128 127 127 126 129 123 127 128 124 124 125 119 120 115 124 130 129 116 110 110 115 106 115 131 127 127 117 120 126 130 138 144 156 107 80 62 119 152 255 124 148 161 157 147 105 127 130 128 128 128 129 130 129 131 129 130 127 128 130 128 
120 119 116 116 112 105 106 103 100 95 95 104 107 160 174 161 139 136 135 132 133 123 142 125 118 117 119 120 130 126 124 127 126 125 128 126 128 129 130 127 126 124 130 120 121 125 133 133 133 120 116 119 126 112 125 120 126 118 113 118 127 133 146 156 143 97 86 80 115 176 160 154 135 153 161 153 152 123 123 124 127 130 129 130 130 129 131 127 129 128 129 128 
108 108 123 128 140 150 157 156 156 155 156 156 144 150 126 100 150 120 123 125 110 134 138 126 121 119 115 120 120 124 126 121 122 127 126 124 127 125 127 128 130 128 128 125 126 130 132 133 130 127 128 129 132 132 125 119 106 114 113 126 146 145 136 107 106 99 92 114 103 137 135 223 161 132 149 146 142 201 156 157 159 124 130 132 132 132 131 132 130 131 131 133 
144 147 150 152 155 155 158 162 159 159 159 113 118 122 116 103 157 121 124 122 103 138 136 124 123 123 118 117 119 119 127 126 123 124 124 125 124 125 127 125 126 128 117 126 127 133 132 130 127 130 135 127 119 136 126 122 119 119 117 135 140 138 121 91 102 95 95 114 124 87 105 156 197 144 143 159 138 226 160 147 144 133 122 124 130 133 132 130 132 131 132 132 
148 151 155 158 156 152 150 142 140 131 130 117 128 127 98 158 129 124 127 107 107 135 130 128 124 121 123 116 117 122 119 124 130 125 124 122 126 125 121 127 126 126 124 131 132 128 128 128 134 133 126 130 130 121 120 122 138 138 141 134 145 149 100 91 93 123 115 131 124 152 96 121 178 154 129 147 144 143 114 153 139 149 139 145 150 144 140 127 123 123 125 126 
146 142 137 135 133 124 125 126 129 126 119 126 127 131 116 156 120 124 120 110 107 134 130 127 124 124 124 120 123 119 121 122 130 127 127 122 125 128 125 126 124 129 127 132 133 130 121 127 131 133 128 127 129 124 125 129 135 144 147 153 140 117 86 91 108 127 120 129 123 162 112 87 143 188 138 131 142 124 187 136 147 145 145 140 142 145 144 146 144 143 132 124 
127 126 125 123 126 122 122 124 122 120 117 121 129 115 158 130 119 126 116 106 117 132 133 127 129 125 128 125 123 120 117 116 119 128 130 130 127 125 127 127 127 128 130 125 126 127 125 130 123 128 128 130 136 138 145 144 146 152 153 123 113 96 101 120 125 126 118 130 112 149 115 122 88 166 165 107 145 144 188 165 128 132 155 146 141 143 145 146 145 144 146 147 
124 123 123 125 127 120 122 121 122 114 117 127 135 107 153 113 120 121 113 112 121 128 127 131 128 126 126 126 126 123 120 118 121 120 128 131 128 128 127 127 126 131 131 127 126 128 128 129 126 132 134 136 129 137 139 141 149 146 112 99 97 97 104 115 128 124 122 125 127 140 117 126 99 127 170 125 106 142 119 203 107 127 142 157 142 144 144 146 146 146 147 146 
127 127 130 125 127 126 121 118 115 120 127 126 118 98 143 118 121 113 106 112 127 130 126 132 128 125 128 124 128 125 124 121 119 121 121 119 127 130 130 127 130 131 128 127 129 133 133 135 136 146 143 143 147 152 153 147 127 104 99 93 94 111 125 127 131 116 126 126 183 119 126 118 126 95 154 140 120 113 90 131 196 133 128 137 133 125 128 139 143 144 145 147 
127 126 128 127 125 123 126 121 115 127 124 125 110 109 130 124 126 115 104 117 128 126 123 132 127 128 126 123 128 127 123 124 124 120 117 120 122 127 129 128 131 130 130 126 127 129 132 132 137 141 149 148 146 141 122 124 99 97 101 97 105 121 126 130 129 113 124 124 175 118 127 113 126 113 137 136 130 113 126 76 195 137 130 124 137 126 128 129 130 129 133 136 
127 126 129 130 131 124 120 121 121 127 127 128 102 125 115 122 130 117 105 121 131 124 124 132 126 128 125 124 127 125 123 124 123 121 118 120 121 120 123 126 126 122 126 125 125 124 130 127 128 129 133 135 124 110 113 102 98 98 99 110 118 124 126 133 129 111 126 128 154 115 127 113 124 121 132 128 136 112 135 94 144 126 135 126 141 132 126 128 130 129 129 129 
128 127 129 127 124 123 121 117 129 129 123 113 103 144 114 127 128 118 111 123 135 125 124 126 128 125 125 128 129 125 125 127 126 125 126 120 124 120 119 120 121 124 117 120 121 124 122 124 123 118 116 111 106 102 101 99 100 113 121 125 125 130 130 133 128 119 130 112 129 106 130 110 119 124 132 124 135 129 140 130 92 124 142 130 128 138 130 128 129 128 127 127 
125 129 125 125 122 121 120 118 131 128 123 109 114 149 120 125 124 116 117 126 127 124 118 127 124 124 126 128 124 128 123 123 126 124 123 122 121 119 120 120 119 121 118 125 124 125 124 124 122 119 113 107 101 100 100 102 110 117 122 127 127 131 128 132 129 122 124 113 123 115 129 110 115 124 132 115 127 128 115 138 116 178 118 138 132 129 140 127 129 128 127 127 
125 125 120 120 125 123 120 117 127 116 122 108 138 144 124 130 122 110 112 129 133 118 128 124 121 122 125 122 127 122 124 128 124 123 125 124 123 122 125 124 125 124 120 126 130 124 123 116 115 116 111 114 116 121 117 120 125 126 127 127 129 130 136 124 120 122 121 152 105 125 130 107 107 120 127 95 125 116 127 114 126 122 130 135 126 123 130 127 127 128 125 125 
