P2
92 112
255
168 172 177 123 83 91 101 77 80 87 91 130 159 159 158 158 157 157 157 157 158 157 157 157 157 157 158 158 158 157 157 157 156 155 157 156 156 156 157 156 156 156 155 155 155 156 157 158 158 158 156 158 159 158 158 159 159 159 159 160 159 159 159 159 159 160 159 160 160 160 161 161 161 161 161 161 161 161 162 162 162 161 163 162 162 162 163 163 163 163 163 163 
157 168 172 159 104 71 96 78 100 87 62 99 137 158 158 157 159 157 157 157 158 157 157 157 157 156 158 157 157 157 157 157 156 156 157 157 156 157 155 156 157 155 157 154 157 155 157 156 158 157 159 156 159 158 159 159 159 158 160 158 160 159 159 160 159 160 159 161 161 161 161 162 162 162 161 162 161 161 162 162 162 163 162 163 163 163 163 163 163 163 162 163 
160 160 191 179 151 78 89 99 111 79 79 99 101 160 157 158 159 157 157 157 157 157 157 156 157 158 157 157 157 156 157 158 157 157 157 157 157 156 157 156 156 156 154 157 156 157 155 157 158 157 156 157 157 158 157 157 159 159 159 160 160 160 159 159 160 160 161 161 160 160 161 161 161 161 161 161 161 161 161 162 163 163 162 163 163 163 163 163 163 163 164 163 
146 155 139 188 201 95 73 73 118 95 90 86 97 101 159 160 157 157 157 157 158 157 156 157 157 157 157 157 157 157 158 157 157 156 157 157 156 154 155 155 155 154 156 157 157 156 157 155 148 150 148 150 157 157 158 157 158 159 159 159 159 159 159 159 159 160 159 161 159 161 161 161 163 161 161 163 161 161 163 162 163 163 162 162 163 163 163 164 164 163 165 164 
159 179 118 143 203 84 75 44 112 84 25 41 91 94 159 158 157 157 157 157 155 157 157 158 157 157 159 157 159 159 158 158 156 158 157 157 144 147 145 152 153 152 154 157 158 158 157 129 93 86 106 125 138 149 150 158 158 158 159 159 160 161 161 160 161 161 161 161 162 161 162 161 163 161 162 162 163 163 163 163 163 163 163 163 164 163 164 164 165 163 163 164 
166 150 110 116 199 135 64 66 117 113 56 58 75 89 109 146 158 157 157 157 157 157 156 157 156 155 155 156 157 156 155 156 157 157 138 122 97 95 100 98 124 133 110 142 150 145 107 84 84 80 80 88 97 94 93 105 150 143 156 157 159 159 160 160 160 159 159 159 160 160 161 160 161 161 161 161 161 161 161 161 161 161 161 161 162 162 162 162 162 163 165 164 
132 119 95 101 120 199 141 38 79 168 179 33 6 59 108 104 153 155 157 155 155 156 156 156 156 157 156 157 157 156 154 145 86 84 102 94 84 90 91 97 92 97 102 110 123 119 113 95 113 90 100 89 98 94 88 95 86 97 105 104 113 121 148 155 154 159 160 159 161 161 162 162 161 161 162 161 163 163 163 163 163 163 164 163 164 163 164 164 164 163 163 165 
122 126 151 99 100 208 199 44 23 117 144 49 5 29 93 101 158 156 155 155 155 157 156 156 155 156 155 154 154 154 135 108 103 115 117 108 102 91 112 111 95 104 112 110 103 127 94 82 84 83 80 99 97 102 95 87 89 88 100 102 108 113 117 117 152 156 155 158 159 160 161 161 163 160 162 161 162 162 163 161 161 163 161 162 163 161 163 162 163 163 164 164 
132 141 151 144 115 214 188 159 113 111 139 102 67 68 12 95 156 153 154 154 155 155 155 156 156 153 155 117 122 134 126 122 97 95 94 79 66 66 58 69 63 71 76 82 83 79 63 36 30 33 34 49 47 47 53 69 78 64 61 85 91 104 121 91 99 102 108 132 117 148 161 161 162 162 161 161 162 161 163 163 162 163 163 161 163 163 163 163 163 163 163 165 
121 137 124 87 105 175 183 171 159 162 156 100 66 64 89 119 149 154 154 154 154 155 155 155 138 108 93 100 118 118 124 89 80 78 64 40 40 46 45 50 51 62 52 71 51 52 48 42 38 33 34 37 38 49 49 39 51 56 54 55 79 82 93 106 98 90 93 88 124 108 157 161 161 162 161 161 161 163 162 163 161 161 161 161 162 162 163 163 163 163 164 164 
89 146 96 104 113 232 242 207 196 160 139 113 57 55 80 129 150 150 151 153 155 154 156 167 104 107 101 102 122 87 75 68 52 38 31 42 45 39 38 48 46 44 33 34 40 46 31 32 29 31 31 25 38 38 40 43 44 37 46 45 63 66 56 57 79 78 87 82 85 92 107 161 160 160 160 159 161 161 161 161 160 161 161 161 163 162 163 163 163 162 163 162 
62 83 74 115 129 168 229 227 215 148 140 141 128 104 97 117 149 151 151 152 152 155 167 133 110 110 106 99 100 75 44 66 31 36 40 39 39 42 45 50 46 42 31 36 34 34 31 29 31 29 31 25 33 32 39 53 29 37 37 45 60 58 62 44 62 66 66 50 77 91 96 151 161 161 161 162 161 160 161 163 161 161 161 161 162 162 163 163 164 162 163 165 
49 51 93 126 160 165 159 157 143 137 139 137 137 140 147 148 148 148 152 152 144 110 113 108 87 65 46 48 48 51 41 47 72 141 133 133 115 135 134 119 93 91 97 78 67 69 111 117 120 117 106 108 100 96 67 44 45 65 38 36 45 37 58 63 56 52 30 13 38 75 94 89 117 143 158 160 162 161 161 161 161 161 162 161 163 162 163 163 164 163 163 164 
47 57 100 154 175 182 174 174 143 133 133 133 132 138 146 148 145 148 162 169 143 108 109 90 64 42 35 38 47 35 65 102 125 162 133 122 121 129 130 120 111 99 103 86 98 95 103 110 115 124 115 111 106 104 122 106 108 79 43 34 37 30 42 41 48 73 48 21 7 60 81 93 104 104 120 161 161 161 161 161 161 161 163 161 162 163 163 163 163 163 164 163 
46 58 117 170 183 181 181 176 150 134 133 135 141 142 146 147 147 150 165 143 121 114 91 85 47 35 43 35 47 57 66 92 115 135 124 124 119 123 126 119 112 104 106 109 99 103 102 99 102 121 105 112 102 108 126 116 117 108 93 58 54 47 35 46 44 62 53 58 12 0 49 82 93 93 114 161 161 161 162 161 161 161 162 160 163 163 163 163 163 163 162 165 
55 61 126 166 169 166 163 163 159 155 150 150 150 151 148 148 146 157 161 123 95 71 52 37 49 53 78 109 110 110 86 111 115 103 113 120 119 110 110 106 112 114 113 108 115 116 103 101 105 108 111 113 111 110 104 117 113 114 111 92 88 95 98 88 74 42 32 41 53 41 18 28 71 95 97 110 159 161 162 161 162 163 163 163 163 163 163 163 163 163 162 163 
57 59 134 157 163 163 163 163 160 157 154 153 151 150 149 149 157 140 148 100 82 49 38 29 79 106 123 117 124 111 107 115 106 115 110 115 120 113 113 111 108 113 124 122 126 119 111 111 116 117 108 114 110 110 110 113 106 109 96 99 93 80 121 102 92 78 59 41 55 46 33 11 42 85 93 96 128 150 162 163 162 162 163 163 162 163 163 163 163 162 164 163 
53 74 144 161 161 163 162 161 159 156 154 152 152 151 155 168 160 129 96 73 49 34 44 37 118 124 124 131 118 113 119 124 123 122 125 123 119 119 119 121 122 128 124 129 131 125 125 129 123 128 127 126 121 114 111 112 99 117 117 100 106 102 111 110 113 116 95 95 32 22 73 14 4 16 50 85 104 104 141 148 161 162 163 162 163 163 163 163 161 163 162 163 
57 84 151 161 161 161 161 162 159 157 157 152 153 152 160 167 174 138 88 62 47 67 104 122 120 132 120 128 121 114 121 130 122 131 127 130 122 115 126 123 121 119 131 126 133 130 132 132 133 130 130 132 129 124 108 111 100 100 110 104 104 115 111 102 99 115 121 91 60 52 50 27 18 12 18 85 111 116 129 137 148 161 162 163 163 163 163 162 163 163 163 163 
76 107 159 162 161 161 161 161 157 158 156 155 152 152 150 140 117 73 58 49 44 117 133 129 128 123 117 120 126 122 121 130 132 135 118 122 126 126 134 130 115 122 120 134 127 130 132 135 133 134 132 133 130 123 115 105 116 130 121 117 111 110 111 97 103 105 106 108 111 71 63 49 23 18 5 12 60 86 101 115 124 139 155 164 163 163 162 163 163 163 161 161 
63 115 159 163 161 159 161 160 158 155 157 154 153 152 150 143 102 46 40 38 47 119 138 122 125 111 113 126 130 124 129 127 132 125 121 124 124 133 133 131 130 130 125 129 129 129 132 132 133 134 132 133 130 127 123 117 118 122 114 126 120 100 100 95 83 100 120 121 115 102 56 36 36 25 17 14 27 53 102 108 109 127 149 162 162 163 162 163 163 163 162 163 
78 131 161 163 161 160 160 160 156 155 155 166 154 109 140 131 108 69 80 89 100 121 121 119 123 109 122 130 130 134 122 130 128 132 130 128 131 132 137 135 135 133 133 131 132 133 132 134 138 134 133 137 132 137 139 126 118 101 130 117 118 121 120 108 103 101 118 119 134 135 126 46 31 32 23 29 31 16 82 72 115 110 133 163 163 163 161 163 161 163 163 163 
108 137 162 163 161 161 161 161 157 157 156 176 173 122 127 106 95 78 115 106 119 126 126 120 127 125 112 132 133 134 124 130 134 128 132 130 133 134 136 135 134 137 131 135 132 133 136 132 136 137 137 139 139 139 140 134 134 136 139 135 128 120 123 110 102 106 120 132 121 115 128 87 40 45 28 17 48 35 40 82 82 91 110 164 161 162 162 163 163 163 163 163 
113 145 162 161 161 161 160 161 157 156 156 177 166 135 100 79 54 86 84 109 124 132 122 128 131 130 120 134 137 136 131 132 136 133 133 135 135 139 138 138 131 133 139 132 137 132 138 138 139 144 145 141 135 139 142 136 141 137 137 139 136 129 113 109 110 116 142 128 117 135 148 106 82 42 23 31 46 39 33 72 48 80 115 161 162 163 162 163 162 162 162 163 
108 153 161 161 161 161 160 160 157 157 159 157 143 152 73 59 42 65 86 106 125 130 117 124 128 129 133 137 135 135 134 135 134 138 140 140 133 137 137 133 139 143 145 136 141 136 139 144 146 152 152 150 143 141 143 137 139 139 139 140 141 132 124 134 135 113 110 108 119 129 131 129 128 97 62 22 53 44 32 23 23 53 99 156 162 163 161 161 163 163 163 163 
124 157 160 161 161 162 159 157 155 157 159 154 135 140 58 45 45 97 121 121 122 130 130 117 124 132 133 135 135 135 135 134 135 139 138 140 143 141 140 140 145 144 148 143 142 148 141 146 149 154 158 152 144 142 135 142 148 152 144 133 130 130 135 142 133 135 130 132 117 118 139 147 116 122 81 67 47 27 14 23 18 57 94 161 161 161 161 161 163 161 163 162 
144 160 161 162 161 161 159 157 155 157 165 133 158 120 70 75 86 123 130 133 132 128 128 129 124 126 137 136 139 139 137 141 142 146 150 148 153 148 150 150 148 150 154 154 158 148 150 151 157 167 167 165 148 144 144 141 157 165 165 153 152 162 159 150 146 137 128 129 132 122 133 152 147 99 109 71 49 60 13 33 12 55 123 161 162 162 161 161 161 161 162 161 
151 159 162 162 161 161 159 158 154 159 159 154 150 112 113 93 111 125 128 130 134 130 129 133 130 132 136 132 137 140 139 144 147 152 152 151 156 155 154 154 155 152 157 157 160 156 154 155 165 175 174 168 153 143 146 148 160 161 157 174 148 166 159 157 159 156 137 142 123 135 144 146 154 148 122 81 65 75 18 0 18 71 130 157 162 162 160 162 163 161 163 163 
158 161 161 161 162 160 157 157 154 155 164 175 137 111 73 119 130 133 136 136 136 133 135 130 136 137 136 139 140 143 152 155 161 163 167 166 166 167 172 171 170 172 167 168 168 172 170 172 172 173 172 170 165 165 164 163 174 178 180 165 150 166 171 165 165 140 126 126 121 130 122 151 133 126 121 67 62 80 25 5 25 99 137 161 162 162 161 161 162 163 161 161 
160 161 161 162 162 159 157 157 155 156 166 182 143 89 64 120 128 135 137 138 136 132 132 132 139 139 140 144 142 146 158 166 166 170 171 172 176 175 177 177 174 172 174 175 177 176 174 172 178 176 178 175 164 171 168 168 182 183 188 170 173 170 165 176 176 153 139 126 136 133 133 135 125 122 123 66 47 82 31 22 33 108 152 161 162 162 161 161 162 162 163 163 
161 162 161 161 161 156 156 155 155 155 155 179 115 63 115 137 130 139 137 137 138 132 135 134 141 144 144 152 156 158 165 174 178 179 179 183 184 181 184 180 174 176 179 182 180 187 181 178 180 175 170 178 177 174 183 182 180 176 169 194 185 196 205 198 187 179 166 147 154 154 140 132 149 163 100 66 62 88 39 12 53 141 161 163 162 162 161 160 161 161 161 161 
160 161 161 161 161 156 154 155 155 155 153 172 113 67 127 131 130 135 139 137 135 130 133 139 143 144 152 155 155 165 170 174 177 179 178 180 183 178 177 175 176 177 181 184 187 188 187 184 177 176 168 174 180 181 177 170 165 164 168 185 197 195 209 201 196 179 177 161 152 137 134 128 143 138 110 80 82 86 55 29 49 146 161 163 163 162 161 160 161 161 162 161 
160 160 162 161 161 157 155 155 154 154 154 192 153 95 135 135 136 137 136 137 133 133 136 141 153 154 157 159 161 165 168 165 168 169 165 168 171 172 168 166 165 165 170 178 181 177 183 177 176 172 173 179 177 174 176 174 155 155 172 188 196 201 207 211 206 192 194 198 194 170 157 150 134 133 129 110 101 99 36 42 64 153 161 163 163 161 161 162 162 163 162 162 
160 161 162 159 161 157 154 154 154 154 156 198 157 103 136 139 138 136 135 136 131 137 144 147 155 156 157 157 161 158 161 161 157 157 160 161 162 159 160 159 163 165 168 171 170 174 179 181 174 168 164 170 179 176 176 165 152 147 160 183 203 207 207 210 209 207 201 192 200 185 174 141 122 123 117 100 91 73 12 45 59 157 160 162 163 161 161 163 162 163 161 163 
160 161 163 159 159 155 155 156 153 154 155 190 161 124 139 139 143 137 134 133 130 137 146 152 158 158 160 150 156 155 153 152 150 155 154 155 158 157 154 155 159 159 162 168 168 166 168 174 165 165 166 170 181 183 172 168 151 148 151 175 196 205 209 207 212 211 206 194 194 176 170 154 125 123 110 102 78 69 6 33 55 161 161 163 163 161 162 162 163 163 163 163 
160 161 159 158 157 155 157 154 153 154 155 192 169 183 142 142 135 143 137 133 132 140 152 154 154 149 148 151 143 144 144 143 139 141 143 144 145 146 148 147 152 155 157 161 159 159 160 160 159 159 162 164 168 168 170 169 166 162 168 182 190 194 196 201 198 202 204 217 196 198 197 163 144 131 115 109 94 46 14 27 62 157 161 162 161 161 162 163 161 163 161 163 
160 160 159 158 155 155 155 154 152 154 153 177 177 198 146 141 139 137 135 136 132 144 153 156 150 148 146 144 143 139 139 138 137 141 141 142 143 143 143 143 148 151 152 154 155 154 154 155 154 156 157 161 163 166 168 166 168 170 176 183 183 191 185 190 193 200 200 211 220 210 216 175 146 138 111 96 70 26 18 20 59 158 161 161 162 161 161 162 163 163 161 161 
160 161 161 159 157 154 154 152 151 153 153 155 201 182 144 142 141 139 137 133 135 152 154 151 144 140 139 133 135 135 137 141 139 142 141 142 139 139 141 143 148 149 147 150 150 148 150 152 148 149 148 150 150 154 153 150 154 163 161 160 161 164 163 169 172 183 184 192 221 219 215 198 183 159 133 96 82 31 11 39 78 158 159 162 162 161 160 162 161 161 162 161 
161 161 161 156 156 154 154 153 152 152 153 155 206 186 145 144 135 139 135 133 135 155 155 151 144 140 138 136 136 133 141 141 141 143 143 141 143 141 140 143 149 151 151 152 149 148 146 149 149 146 146 148 151 150 151 154 153 157 156 153 155 155 161 161 164 181 182 185 217 229 223 205 194 163 136 97 86 18 19 52 106 162 160 162 161 160 162 163 163 161 162 163 
161 161 157 155 155 154 153 153 152 150 153 155 203 206 144 140 140 133 135 139 143 158 151 143 135 134 133 133 138 139 144 146 143 145 146 146 148 148 147 149 152 151 152 148 146 144 143 139 142 143 143 143 150 152 152 154 150 152 154 156 156 157 155 153 155 157 162 179 203 217 228 221 191 169 132 86 60 8 47 66 118 161 160 162 161 161 161 161 161 163 163 163 
162 162 157 155 155 154 153 152 154 152 152 153 194 210 143 137 133 131 133 140 148 155 150 139 132 133 130 135 138 143 148 149 149 148 148 146 150 148 150 152 153 152 152 150 147 143 142 141 141 141 141 142 149 150 155 156 151 154 156 156 159 159 155 154 153 158 155 158 188 210 230 230 214 178 122 82 62 3 54 76 125 160 160 161 161 161 161 161 161 162 161 163 
161 161 156 155 155 153 152 152 152 151 153 154 168 202 160 142 128 133 144 148 159 157 147 139 135 143 141 146 146 149 158 153 150 143 148 148 145 146 146 149 151 149 149 148 147 146 143 140 139 141 142 143 148 149 150 151 152 149 155 159 164 165 159 158 154 152 153 151 168 184 202 229 217 196 150 84 40 4 51 116 152 160 161 160 160 162 161 161 162 161 164 162 
161 159 157 155 155 154 153 154 152 153 152 154 160 202 192 138 128 137 147 154 157 155 143 138 142 149 150 150 150 152 157 151 148 145 143 147 149 144 144 144 147 146 147 146 145 145 142 141 140 143 144 141 148 146 147 148 152 148 150 160 163 159 165 161 159 153 150 146 166 177 196 236 223 201 144 71 15 5 66 124 154 161 162 161 160 159 161 161 161 162 163 163 
161 158 156 155 155 153 154 152 152 151 151 154 155 195 214 137 129 147 154 161 163 153 148 141 150 150 150 156 161 160 158 152 149 143 143 144 143 143 142 138 139 143 144 144 143 145 140 139 141 143 143 144 147 148 148 146 148 146 149 154 166 161 167 166 166 158 150 143 155 174 191 229 222 201 152 57 8 0 89 126 154 161 161 161 160 159 161 161 161 161 161 162 
160 159 155 155 154 153 152 152 155 153 152 154 154 165 221 194 129 161 166 161 157 142 139 137 145 153 153 145 146 146 144 137 130 131 126 132 130 128 131 124 128 132 135 140 140 141 135 135 136 145 147 150 151 146 149 145 150 149 148 151 148 161 161 154 146 146 141 142 133 150 158 220 231 203 177 50 0 11 112 140 159 161 161 161 161 162 161 161 161 162 162 163 
160 159 155 154 154 152 152 152 152 153 152 152 155 157 216 210 138 170 168 163 152 134 137 139 141 143 144 135 133 133 132 128 124 125 124 124 124 126 124 118 125 131 135 135 137 137 131 135 138 147 155 152 145 148 148 140 145 144 139 128 132 136 141 143 137 126 132 126 118 128 143 206 230 210 187 51 2 16 119 155 159 161 161 161 160 161 160 162 161 161 163 163 
161 158 155 154 154 151 152 152 153 154 152 152 154 156 214 210 194 173 160 139 134 124 121 121 120 121 112 107 105 103 106 99 103 102 104 104 108 109 99 103 118 121 127 127 126 129 127 131 138 145 144 145 141 132 123 124 115 106 96 80 84 84 78 75 73 86 91 98 106 100 104 178 188 188 185 72 11 53 140 163 161 161 161 161 161 161 162 163 163 161 163 162 
160 158 155 154 152 152 152 152 153 152 152 152 154 155 192 222 196 174 149 135 127 117 119 113 111 105 101 93 96 97 95 90 90 97 95 96 102 102 100 99 112 119 124 119 123 124 124 130 136 144 142 129 134 113 110 108 99 86 80 57 58 52 51 58 61 69 72 76 88 88 91 170 182 178 161 71 19 77 144 163 160 161 161 161 163 162 163 163 163 162 163 163 
159 156 155 155 153 154 151 152 152 154 152 154 154 154 164 207 201 152 132 124 119 115 112 111 113 106 102 99 99 95 93 95 95 95 92 93 90 87 91 95 106 118 115 110 113 120 128 135 141 130 119 112 100 96 89 84 69 60 55 44 38 36 33 33 38 53 61 76 78 69 66 109 155 177 125 88 71 69 161 162 161 161 161 162 162 162 163 163 163 163 162 161 
159 157 155 153 154 152 152 152 152 154 154 152 154 153 163 193 230 137 127 124 117 117 121 124 123 125 124 116 117 113 116 113 108 101 100 102 99 92 89 98 113 102 112 104 108 117 129 138 143 130 112 108 93 82 80 78 72 66 60 53 55 52 46 51 56 68 75 82 69 73 64 97 156 161 119 89 80 85 161 161 162 161 162 163 161 162 161 163 163 162 162 162 
157 155 156 153 153 154 152 152 154 153 153 152 152 152 182 183 187 133 130 128 132 144 146 151 148 144 146 144 143 143 141 137 137 136 132 124 117 115 107 106 108 104 96 91 100 104 136 141 145 130 113 107 100 99 95 91 78 78 84 79 81 93 122 124 124 119 118 119 113 86 80 101 165 147 84 95 100 80 157 161 159 161 160 161 161 161 161 161 161 161 162 161 
155 155 155 154 152 154 150 152 152 152 152 153 152 153 184 183 173 132 132 130 139 147 152 152 150 154 147 150 150 150 144 144 143 141 141 137 132 122 118 111 106 95 91 94 99 106 135 149 154 138 126 119 103 99 99 104 110 113 116 124 126 121 113 115 134 133 142 142 135 125 95 94 152 131 100 89 93 62 145 161 160 161 161 161 161 161 160 162 161 161 163 163 
155 153 154 154 152 152 151 152 154 154 152 152 152 154 196 181 161 130 133 135 144 150 150 150 154 150 149 153 154 154 149 151 150 141 141 138 134 132 129 121 101 92 93 92 99 114 142 152 160 141 132 126 109 110 119 126 124 134 136 148 149 155 155 142 135 124 126 139 147 141 120 96 155 144 117 91 97 40 135 161 161 161 160 161 162 161 161 161 161 161 161 161 
155 153 155 153 153 152 152 152 154 154 153 152 153 152 203 201 188 130 132 133 134 145 143 144 146 138 132 138 137 140 141 138 132 141 142 139 138 135 126 120 106 97 92 108 121 126 161 166 163 174 157 136 126 126 132 140 144 144 139 118 108 108 123 119 129 136 152 169 146 133 126 102 146 154 122 93 92 23 122 159 159 159 160 160 161 161 161 161 163 162 161 161 
155 154 154 153 152 152 151 152 153 154 152 152 153 155 202 233 170 130 132 130 132 139 139 134 130 127 120 133 130 129 133 133 129 137 145 143 133 130 127 118 107 108 104 122 128 137 165 169 170 177 163 132 129 126 124 137 146 152 137 123 123 132 133 125 110 101 91 111 128 132 122 104 143 159 122 96 91 25 112 161 161 159 161 161 161 161 161 162 163 161 160 161 
154 154 152 154 152 152 152 152 154 154 152 151 154 155 200 250 182 128 130 131 128 130 128 124 128 126 120 142 131 122 115 115 115 133 142 139 137 125 123 116 104 115 123 143 156 157 172 179 171 173 165 135 117 115 115 116 130 130 110 98 89 73 89 115 137 122 93 102 102 111 114 108 149 185 133 108 94 33 115 161 159 159 160 161 162 161 161 161 161 160 161 161 
155 154 153 155 152 152 152 152 154 154 152 151 154 157 198 248 169 132 132 130 129 131 130 129 129 128 122 132 137 125 123 117 114 141 137 132 128 130 128 121 109 122 133 154 160 165 175 177 174 171 163 150 124 117 113 115 128 126 125 93 76 71 79 124 140 89 110 96 103 121 119 113 146 185 132 112 91 45 125 160 158 159 160 159 161 161 161 160 161 161 162 161 
155 154 154 153 152 153 152 152 155 154 154 152 154 159 192 255 173 132 133 131 133 133 134 132 132 130 132 148 127 126 126 122 127 141 144 139 135 136 133 130 135 139 142 155 151 152 157 162 166 181 185 175 157 149 133 126 138 139 116 108 99 91 129 137 132 128 111 105 119 115 115 119 138 178 136 115 93 71 127 161 158 159 159 159 160 161 160 161 159 161 161 161 
155 153 152 152 153 154 153 154 154 152 154 152 154 158 183 238 170 133 130 132 134 140 140 136 135 133 130 144 143 132 130 130 135 140 138 139 140 135 133 137 143 143 144 148 145 147 143 153 159 184 201 188 172 155 148 139 130 135 118 97 85 62 90 97 119 135 134 136 123 125 123 126 135 181 135 115 96 89 130 159 159 159 159 158 159 159 160 161 160 159 160 159 
154 154 152 153 153 152 154 153 153 152 152 151 152 161 180 179 168 133 135 132 136 133 133 134 138 141 145 135 126 143 148 148 150 144 127 127 140 139 142 144 150 142 138 136 137 135 137 140 151 176 214 206 187 185 166 140 155 152 152 140 130 116 111 146 165 158 146 137 137 138 135 132 135 165 132 115 102 120 146 161 159 158 158 159 159 159 159 159 159 159 159 159 
154 152 152 151 153 152 154 153 154 154 154 154 155 163 183 169 157 133 135 136 135 133 134 135 135 137 141 139 129 132 146 147 151 138 128 135 143 143 145 145 150 138 140 137 135 135 138 140 148 164 194 210 198 190 176 159 161 158 159 157 150 132 130 151 148 141 139 130 133 137 133 130 135 158 128 116 106 117 154 159 159 158 159 158 159 159 159 159 160 159 160 160 
154 153 152 152 153 151 154 154 154 153 154 152 155 164 167 171 138 140 135 137 135 135 137 135 135 133 137 140 135 136 148 148 146 138 138 139 144 143 139 146 144 134 132 134 132 132 140 141 146 159 176 194 208 198 183 177 166 172 163 157 148 131 124 132 135 140 130 133 137 137 138 137 136 157 133 117 113 109 145 161 160 158 159 159 159 159 159 159 159 159 161 159 
154 154 152 152 152 154 154 153 154 156 152 153 158 168 181 150 141 139 138 135 137 137 140 140 144 147 152 150 146 150 155 153 149 146 148 148 150 146 148 146 141 132 131 131 132 129 141 143 145 152 157 164 188 203 203 190 181 179 173 161 154 152 148 144 143 138 139 141 144 148 143 137 135 157 126 117 115 100 125 159 159 159 159 158 159 158 157 159 158 158 159 160 
153 153 152 152 153 152 154 154 154 154 154 154 155 166 170 143 136 137 137 138 135 135 137 142 144 144 149 152 157 154 155 157 155 151 149 147 146 148 141 143 137 132 135 126 130 129 141 144 144 148 155 158 180 187 194 201 192 187 184 177 171 167 154 148 145 137 137 137 143 144 144 136 135 157 128 117 117 102 124 157 159 159 158 158 159 159 159 159 158 158 161 159 
152 152 154 153 152 154 154 154 155 154 154 154 156 165 184 124 139 135 134 133 135 133 135 141 146 152 152 152 155 157 157 156 152 148 145 140 144 136 136 136 137 133 133 132 133 135 141 150 145 151 150 150 149 157 176 183 183 178 177 167 161 152 136 132 131 131 130 133 137 138 138 134 135 155 141 118 117 100 104 155 158 159 159 159 159 160 159 158 159 160 161 159 
152 153 152 153 152 154 153 154 154 154 154 154 154 158 181 135 137 134 135 135 135 135 137 141 148 149 151 154 158 159 157 154 148 148 144 143 135 135 135 135 139 133 132 128 134 137 143 151 148 152 152 147 142 150 156 167 181 181 176 168 157 150 135 132 130 126 125 126 130 133 134 130 132 154 143 116 116 104 97 155 159 160 159 159 158 160 160 160 160 161 161 162 
153 152 154 151 153 152 154 154 154 155 155 154 154 159 186 135 134 133 135 135 135 135 138 139 143 147 148 146 148 149 148 138 140 138 138 137 130 133 135 139 134 132 131 136 141 143 150 159 155 154 157 150 130 135 143 144 151 155 163 169 168 163 150 146 143 133 129 128 134 137 135 132 132 156 146 115 116 108 121 150 159 159 158 158 158 159 159 160 160 159 161 160 
154 153 152 151 152 152 153 153 154 153 154 153 153 162 194 149 139 133 135 136 135 137 139 140 142 145 147 144 144 145 138 135 134 132 135 134 136 138 138 139 131 137 136 138 140 144 153 161 161 176 173 158 135 135 144 147 141 145 149 160 163 164 155 150 147 138 135 135 137 136 135 130 133 157 146 113 116 106 111 154 159 161 158 159 159 158 159 160 160 160 161 160 
151 152 152 152 152 152 152 152 154 152 152 153 152 162 186 143 134 133 137 136 137 140 142 139 137 139 143 143 141 139 130 127 134 135 136 133 146 153 153 156 142 134 133 149 146 144 165 168 170 172 172 168 149 141 139 141 133 132 135 144 146 148 151 151 153 154 152 147 144 141 139 132 136 155 145 114 117 102 123 154 159 159 159 158 160 159 160 159 159 160 159 160 
151 152 152 154 153 153 152 152 154 152 152 153 152 165 172 153 140 135 137 137 139 136 137 139 141 140 142 141 139 135 131 128 131 134 135 135 148 154 150 150 144 143 141 146 145 143 148 141 147 176 183 175 150 143 138 140 130 128 130 138 141 143 143 146 148 153 152 152 144 143 141 134 139 152 144 113 117 102 126 155 159 159 159 159 159 160 159 160 159 158 161 161 
151 152 153 151 152 152 152 152 154 152 152 152 152 159 173 138 135 135 134 139 138 138 139 136 139 138 141 139 137 135 131 130 133 135 137 138 155 161 151 150 145 145 146 145 143 142 143 133 146 172 174 163 144 133 128 138 131 127 128 135 133 139 142 142 144 145 149 148 145 144 141 137 142 154 139 113 116 96 127 159 158 158 158 160 159 159 160 159 159 159 160 160 
154 153 152 152 151 152 153 152 153 152 152 151 152 157 181 146 137 135 139 137 136 137 137 137 139 138 137 135 133 133 128 129 128 135 134 137 144 129 118 119 127 137 136 138 130 127 127 116 119 139 131 88 70 69 84 124 138 128 126 130 132 136 139 141 139 143 144 146 145 143 144 139 149 144 141 113 112 86 129 158 157 155 157 158 159 159 159 159 159 159 159 159 
154 152 151 151 152 152 153 152 153 154 152 151 150 160 168 164 137 136 137 137 135 138 141 139 139 137 138 135 131 130 128 128 129 136 135 138 135 122 117 123 118 117 123 133 132 120 122 111 110 102 83 82 49 60 71 110 144 136 128 130 131 134 139 137 138 141 143 143 144 144 144 140 154 146 140 111 108 77 131 158 157 157 157 157 158 158 158 158 157 159 159 159 
152 152 152 152 152 153 154 152 153 153 151 151 152 155 177 185 148 133 137 135 137 134 138 139 136 134 133 131 130 126 131 130 133 139 136 139 127 122 117 123 121 118 119 122 126 119 107 120 119 102 104 97 66 70 107 135 164 155 141 133 132 134 137 137 136 137 139 139 143 142 144 146 147 150 130 110 100 51 141 157 157 157 158 157 159 158 159 158 159 159 159 158 
154 152 152 154 152 153 153 152 151 152 151 152 152 155 168 192 144 135 137 134 135 137 134 137 135 134 133 131 130 131 135 133 139 141 143 142 134 130 126 119 110 110 113 124 122 120 111 116 133 128 124 94 108 122 143 143 170 162 154 136 134 132 135 138 139 136 139 139 140 142 143 152 146 150 129 108 93 67 141 157 157 157 157 157 159 159 159 159 158 158 160 159 
152 152 152 152 150 152 150 152 152 154 152 154 154 153 163 201 155 134 138 136 138 135 135 137 134 132 137 132 134 144 139 142 146 145 141 141 144 143 146 142 134 122 109 126 135 129 114 130 144 149 168 194 198 192 157 157 183 181 172 147 138 138 144 143 139 135 137 136 141 141 145 154 148 147 113 104 70 81 147 156 157 157 156 158 157 158 159 159 157 159 159 158 
152 152 151 150 152 152 151 152 154 154 153 154 152 152 167 196 174 132 137 136 138 135 136 134 132 136 139 137 138 141 141 143 147 144 143 141 146 145 139 128 113 110 111 114 129 121 105 128 143 162 177 192 196 174 157 167 172 185 182 159 142 140 143 143 141 136 136 137 140 141 146 145 152 144 113 97 55 95 157 158 157 158 157 158 157 158 158 158 158 157 159 159 
152 152 152 152 153 152 152 151 153 153 153 152 151 151 159 167 207 136 141 136 135 137 135 137 135 139 141 143 142 140 139 138 137 128 124 128 129 130 127 130 121 110 113 149 156 133 112 117 130 122 124 137 132 125 151 155 156 167 175 168 148 130 141 141 139 139 137 141 139 140 147 136 154 126 101 71 61 115 157 157 157 157 157 157 157 157 157 157 157 157 159 159 
152 151 152 150 152 152 152 152 152 154 153 151 151 152 159 146 213 128 138 137 135 135 134 135 138 137 143 144 144 139 132 134 127 122 117 116 129 126 121 121 115 113 119 154 162 145 108 107 117 117 105 108 110 110 141 134 150 150 144 159 149 143 143 143 141 138 139 140 139 142 151 142 152 111 95 66 80 118 157 158 157 159 157 158 157 156 156 157 156 156 159 159 
150 152 150 153 152 152 152 152 151 152 153 152 150 150 150 150 195 131 141 137 136 132 135 138 136 139 141 141 139 131 130 126 121 115 117 119 124 121 121 118 121 124 140 161 157 144 110 104 112 113 105 97 93 108 122 118 133 117 136 139 130 133 135 141 141 139 139 139 141 141 153 145 150 104 92 45 90 117 155 158 157 157 157 157 157 157 156 157 157 156 158 157 
151 151 153 150 152 152 152 152 151 152 152 151 152 150 152 142 170 165 126 137 141 135 135 137 139 141 141 137 134 122 127 127 130 124 122 128 132 133 134 142 157 170 185 190 167 165 154 150 153 163 143 124 113 110 127 114 115 106 104 110 100 104 119 130 143 142 143 144 142 151 144 154 117 91 87 56 126 125 155 156 156 156 157 156 157 157 155 155 157 156 157 156 
151 151 152 151 151 152 152 151 152 153 152 152 150 151 150 150 143 175 127 137 135 132 135 137 135 137 141 135 124 120 129 128 134 127 132 135 139 138 141 146 152 156 165 176 162 163 169 153 152 145 148 163 143 124 137 134 122 106 102 100 87 86 107 128 140 143 143 143 150 150 134 145 100 89 83 82 122 130 156 156 155 157 156 157 156 156 155 156 157 157 157 157 
150 151 150 152 152 152 152 152 151 150 151 151 150 151 152 150 144 227 175 129 141 135 133 133 138 135 137 125 119 127 139 138 143 143 146 148 143 137 137 137 142 131 122 113 124 148 160 139 128 153 140 140 143 154 164 163 156 132 128 99 85 80 95 100 119 147 144 145 161 142 136 106 82 81 53 124 124 148 158 157 156 157 157 156 157 157 156 157 156 157 157 155 
151 152 150 150 149 151 151 151 151 150 151 150 150 150 151 148 144 210 196 139 132 132 137 136 136 134 137 121 120 134 140 139 135 138 143 146 135 137 136 133 122 117 108 99 107 128 127 117 95 119 110 117 134 130 150 163 151 146 124 112 98 88 90 93 123 144 149 150 153 137 143 86 79 75 29 122 128 148 159 156 157 157 157 157 156 156 157 157 155 157 155 155 
150 150 151 150 154 154 149 150 152 150 150 152 150 149 149 150 149 165 224 186 127 141 139 131 141 134 137 132 135 144 141 139 135 134 133 137 128 125 121 125 119 113 111 104 99 95 115 106 97 102 95 80 82 73 102 124 129 122 124 113 111 108 81 98 115 148 156 163 137 137 149 73 65 30 67 117 146 157 155 155 156 155 157 156 157 157 156 157 157 157 158 155 
150 150 151 150 149 152 152 151 147 147 146 150 149 150 149 150 149 144 208 210 144 137 141 135 137 135 135 135 139 141 133 133 130 125 127 130 129 130 130 132 130 123 121 117 113 104 121 121 132 148 149 138 121 116 117 130 122 111 111 108 107 112 97 100 121 148 160 165 137 144 122 67 39 23 113 120 150 157 154 156 155 156 157 157 157 157 157 156 157 158 157 157 
150 150 150 152 151 150 147 152 150 151 150 150 148 148 149 149 148 134 163 218 182 132 138 143 139 137 139 143 136 137 139 138 137 146 147 148 148 148 152 156 166 170 170 168 165 159 150 173 172 183 184 179 172 168 150 165 169 163 141 113 113 115 104 107 135 159 170 166 150 134 75 44 38 99 120 144 155 157 157 154 157 157 158 157 159 159 159 158 157 157 157 157 
151 150 150 150 150 150 149 146 148 148 150 150 148 148 149 147 145 140 128 197 204 133 130 143 138 138 137 141 141 140 135 137 139 138 140 140 138 142 142 144 168 172 177 178 181 184 183 173 169 181 173 166 168 168 172 194 194 183 165 124 119 122 106 118 133 165 155 150 157 100 59 31 67 120 115 154 158 157 157 155 157 157 157 158 157 158 159 157 157 157 158 158 
150 153 159 156 155 154 154 152 150 148 148 146 147 148 147 148 148 146 134 150 197 174 133 134 139 142 141 139 138 138 136 135 137 136 138 141 143 139 139 135 136 124 131 132 126 122 127 126 123 126 124 124 139 139 138 151 163 174 173 141 126 116 112 119 136 150 140 150 106 60 40 55 117 115 121 154 157 157 156 157 157 157 157 158 157 157 157 156 155 157 155 157 
149 151 151 150 153 154 152 154 156 155 155 154 154 151 148 146 148 146 146 128 189 205 157 131 139 137 142 141 137 139 137 133 139 140 136 143 141 144 146 146 137 125 126 129 126 129 126 128 122 141 144 143 149 154 149 154 163 169 172 150 133 124 115 120 135 144 150 152 70 42 29 78 121 111 135 157 157 157 157 157 157 157 156 157 157 157 158 157 156 155 157 155 
150 151 152 151 151 152 151 152 151 152 150 150 147 148 148 150 147 148 150 128 170 192 167 138 134 137 139 137 137 138 135 137 137 137 137 139 137 139 141 142 143 146 132 125 140 135 125 127 131 133 139 145 144 149 150 157 163 169 178 146 133 132 126 126 129 139 156 157 48 33 14 104 113 121 143 156 156 156 157 157 157 156 156 156 156 155 158 156 155 156 155 155 
150 149 151 150 153 152 152 151 151 151 152 152 147 148 149 148 146 148 148 143 123 234 225 178 141 138 135 139 141 138 137 136 137 134 136 139 136 137 128 132 133 128 128 124 119 117 113 106 103 126 119 120 129 135 144 149 159 163 166 143 143 134 128 113 123 153 140 111 20 31 86 108 118 148 153 157 155 157 155 157 157 157 157 157 155 157 157 157 156 157 154 156 
150 149 150 150 152 152 151 152 151 150 150 151 149 148 146 146 147 148 149 145 141 230 243 204 143 141 143 137 140 141 140 135 132 133 134 136 133 137 135 131 123 119 123 117 114 115 111 108 106 112 111 114 124 133 142 148 156 161 163 143 135 130 110 111 131 137 104 53 14 45 108 113 129 153 154 154 156 155 155 156 157 155 155 157 157 158 157 157 157 155 156 154 
150 150 148 148 151 150 151 150 150 148 150 150 148 148 147 148 156 162 169 169 192 154 194 180 140 143 146 139 139 141 143 138 134 134 136 137 135 135 136 140 140 143 142 137 141 133 143 135 140 134 137 141 124 139 146 149 144 157 155 150 136 121 107 110 128 104 40 15 71 100 112 125 144 153 154 154 156 155 154 155 157 156 155 156 156 156 156 156 156 155 156 155 
150 150 148 150 150 152 152 151 151 149 150 150 148 148 161 174 171 172 160 185 187 116 170 176 139 139 142 143 141 140 142 140 137 136 138 135 137 133 135 146 147 146 144 147 144 146 144 150 149 147 139 140 138 143 154 154 155 160 150 145 133 117 115 115 118 55 44 18 101 114 113 128 149 152 155 154 155 155 155 155 155 155 156 156 156 155 157 157 155 155 157 157 
149 150 149 151 151 150 150 148 149 149 150 166 168 167 183 154 132 115 144 161 227 201 141 140 150 143 136 141 139 143 140 138 138 143 137 139 134 139 137 140 133 135 138 137 141 131 133 130 141 149 154 160 152 158 154 157 157 148 148 124 116 115 117 110 92 15 22 67 77 45 109 163 165 155 155 155 154 155 156 155 155 155 156 157 156 157 157 157 157 157 157 159 
150 151 148 150 147 150 151 152 148 150 148 171 177 147 146 135 139 140 162 194 225 169 140 134 151 143 139 137 140 140 141 139 140 137 137 138 134 139 135 133 135 132 137 133 127 132 120 124 132 146 155 160 153 158 164 157 155 143 142 121 117 112 110 84 53 33 36 55 93 26 86 143 146 163 159 155 155 154 157 157 157 156 154 155 156 156 156 157 157 156 157 156 
149 148 152 155 157 157 155 149 141 146 144 145 146 158 209 204 141 165 179 204 218 125 121 128 144 148 149 139 139 137 141 138 140 138 139 138 134 133 138 136 136 143 141 137 133 140 126 121 125 143 149 158 155 175 170 163 151 140 135 115 108 108 72 53 40 157 117 96 143 104 76 122 129 135 143 143 152 159 155 157 155 157 156 155 157 156 155 157 157 156 157 156 
147 148 139 136 132 132 132 129 137 140 146 168 183 202 190 176 149 166 194 210 207 119 128 137 139 138 148 143 138 135 139 139 139 137 140 139 139 139 143 140 139 139 137 139 133 143 132 136 135 148 146 159 155 166 166 153 148 130 133 115 110 86 45 47 67 130 176 126 139 143 113 100 132 127 141 137 115 152 157 155 157 157 155 155 157 157 156 157 155 156 156 157 
133 132 130 130 132 135 136 138 137 139 161 204 198 181 185 152 148 150 172 183 170 116 126 139 136 137 137 146 143 137 138 137 139 139 139 140 140 144 139 141 135 140 141 141 137 143 139 143 136 150 166 165 157 155 161 152 139 125 132 114 103 61 39 63 75 115 163 148 141 140 151 68 139 141 137 130 118 130 142 145 154 159 157 156 156 157 157 157 156 157 157 156 
135 135 132 129 132 145 151 155 159 164 166 166 174 170 138 116 136 148 172 171 157 119 128 137 132 135 135 142 148 143 138 135 135 137 139 141 138 141 139 139 143 138 143 146 143 143 135 141 140 157 162 159 166 147 139 125 120 129 127 90 65 41 61 91 101 133 122 155 159 102 159 130 88 148 143 160 141 73 137 132 137 151 161 160 161 161 161 163 162 163 162 161 
137 143 156 159 159 159 162 159 165 169 169 143 153 159 112 131 135 149 176 162 149 120 126 133 135 133 134 134 139 144 143 137 132 136 139 141 137 136 145 137 143 134 144 144 139 144 137 135 132 156 156 155 139 146 141 126 120 120 120 68 40 40 88 106 106 130 126 140 156 86 139 127 114 124 150 164 147 119 144 139 139 137 148 148 158 163 161 163 164 165 164 165 
156 158 161 159 164 158 157 156 157 150 155 153 155 157 119 139 144 155 177 155 138 132 121 130 138 133 135 131 136 133 141 141 140 135 133 135 135 133 141 133 139 136 144 144 139 133 137 139 135 135 142 143 128 129 119 125 113 99 82 49 58 82 106 111 112 146 141 141 185 121 151 119 102 118 117 135 155 160 96 161 160 151 150 157 157 156 158 157 155 154 155 155 
154 153 147 144 143 141 143 149 148 151 144 154 158 162 123 137 146 157 165 149 135 133 124 135 134 132 133 135 132 137 135 137 143 140 136 139 136 137 137 138 139 137 139 140 138 137 133 135 134 137 135 134 126 126 122 109 99 82 56 66 75 95 112 115 126 144 148 141 198 128 170 102 104 86 128 133 150 144 71 155 157 157 150 161 165 164 164 164 163 163 168 170 
135 135 139 134 136 135 139 142 150 139 132 154 157 126 139 140 138 163 159 139 128 135 130 131 133 135 137 132 136 130 133 133 134 138 141 139 133 136 136 137 137 138 139 135 133 131 130 132 132 131 129 126 121 122 112 88 62 75 78 97 102 110 119 133 145 141 145 139 152 157 161 132 95 59 121 146 141 165 142 59 152 155 148 149 165 164 165 164 166 166 165 165 
137 137 133 135 136 138 136 146 143 134 133 165 165 105 135 135 139 162 155 135 131 136 127 135 131 133 133 139 135 135 130 130 136 138 144 141 135 134 135 133 137 139 139 132 130 130 130 125 126 113 123 117 114 107 88 67 68 82 100 110 111 113 120 130 159 143 145 135 142 166 150 137 113 62 66 124 155 143 155 73 128 152 147 151 165 164 165 166 165 165 165 166 
139 137 133 135 135 139 147 146 138 132 136 166 135 115 134 141 140 161 143 126 124 136 134 128 136 133 136 133 141 138 135 132 133 132 130 133 133 134 135 135 131 133 133 126 126 127 126 124 123 124 112 111 98 92 86 88 91 102 104 110 109 122 135 146 169 143 138 130 128 178 148 143 141 87 32 162 135 157 126 139 58 146 150 141 137 152 154 158 161 168 168 169 
137 135 133 136 133 138 143 148 136 133 145 162 119 122 139 135 137 160 139 123 126 134 130 124 137 135 137 134 130 139 135 135 136 133 131 131 131 134 135 131 128 130 132 122 121 119 117 115 111 105 101 94 87 90 95 93 102 106 108 111 117 131 137 154 163 144 131 130 123 171 149 147 135 118 24 185 132 166 147 120 98 154 148 139 136 148 151 155 153 155 161 163 
135 136 136 135 136 139 144 149 132 133 142 152 109 117 139 131 135 156 136 123 122 138 135 122 135 136 131 132 134 137 134 134 137 132 130 130 130 131 128 130 124 122 125 117 117 117 117 117 109 97 92 95 98 99 99 102 103 106 106 121 124 132 138 160 154 142 130 122 124 166 155 150 135 129 37 173 149 155 146 127 97 160 137 145 137 141 152 154 154 155 157 156 
135 135 139 141 139 141 148 138 132 133 145 136 117 118 139 135 141 143 139 122 124 145 137 117 135 138 138 131 138 133 136 133 131 137 132 132 129 129 128 124 121 119 120 115 111 113 108 106 98 97 95 98 101 103 104 104 107 117 122 132 131 132 136 168 141 134 122 95 127 156 163 154 139 148 74 143 176 146 156 143 135 105 150 139 131 139 140 154 153 154 153 154 
133 135 137 135 138 149 146 137 135 132 151 119 123 123 137 137 136 143 126 117 128 143 133 119 132 135 136 135 131 135 136 131 139 133 131 130 126 125 126 121 122 117 116 113 113 110 102 106 102 95 98 99 104 100 104 106 113 119 127 127 127 128 145 162 137 128 120 85 126 157 164 155 142 148 92 129 177 150 170 141 152 69 155 132 130 136 137 154 152 152 154 155 
133 132 138 133 143 139 136 133 133 139 161 122 113 132 137 135 141 139 123 119 124 146 137 130 137 136 134 131 137 134 132 132 129 122 128 127 124 121 123 121 117 114 110 107 108 108 108 101 104 103 103 102 110 117 121 124 122 124 121 127 127 133 167 149 133 124 109 92 113 166 176 156 148 154 108 106 174 188 155 159 152 56 135 134 137 124 130 146 154 152 156 155 
