P2
92 112
255
138 125 132 168 172 108 111 119 186 181 119 124 130 129 132 131 133 133 132 132 133 133 132 133 133 133 133 133 132 133 133 132 133 134 132 133 132 133 132 133 132 133 133 133 133 133 133 132 133 133 133 131 133 133 132 132 132 130 132 131 132 132 132 131 132 131 131 131 131 131 130 130 130 130 130 130 129 129 129 129 129 129 128 129 129 129 128 128 127 128 128 127 
155 141 106 138 189 158 108 108 185 197 192 114 123 132 130 132 132 133 132 132 132 132 132 132 133 134 133 133 133 133 133 133 133 133 133 133 133 133 134 133 133 133 133 133 133 132 132 132 132 132 131 133 130 133 132 132 132 131 131 132 130 131 130 130 131 130 130 130 130 130 130 129 129 129 129 128 129 129 129 129 128 127 128 128 127 128 127 127 128 127 127 127 
159 146 79 110 164 174 114 112 142 208 208 115 116 129 132 133 131 132 132 132 133 133 133 133 133 134 133 133 133 133 133 133 133 135 133 133 133 133 132 133 133 133 133 133 133 133 133 133 133 133 133 132 133 133 132 132 132 132 132 130 131 131 132 131 130 131 130 130 130 130 131 130 130 130 130 130 129 130 130 129 129 128 129 129 128 128 129 128 128 127 127 127 
133 160 70 100 116 129 172 111 41 129 169 129 111 117 132 132 133 132 133 133 133 133 134 133 132 133 133 133 133 133 133 133 133 133 133 133 133 133 133 134 133 133 133 133 133 132 134 134 131 132 131 131 132 132 131 132 131 130 132 132 132 132 130 131 130 130 130 131 130 130 130 130 130 130 129 130 130 130 130 129 129 128 129 129 128 129 129 129 125 127 125 126 
110 115 76 78 120 177 174 149 30 77 132 172 111 115 133 133 132 134 133 133 133 135 133 133 133 133 133 133 133 133 133 133 133 132 133 133 131 132 130 132 132 133 133 134 132 133 134 127 118 117 121 125 128 130 131 132 130 131 131 131 131 132 130 132 131 131 130 130 131 132 130 130 130 130 130 130 130 130 130 130 130 130 130 129 129 129 129 129 129 126 125 127 
115 157 79 70 122 183 164 98 28 37 152 200 132 116 119 129 134 132 134 133 134 134 134 133 134 133 135 132 132 133 133 133 132 132 128 124 119 118 119 118 125 127 121 130 131 130 121 114 115 114 115 116 117 116 117 119 129 127 130 132 132 132 130 130 130 130 130 131 130 129 130 130 129 129 130 130 129 129 129 129 129 129 129 129 128 128 128 127 128 129 126 127 
177 185 119 112 146 194 179 153 80 48 66 203 190 135 119 119 132 134 132 133 135 133 133 133 135 135 133 133 133 133 133 130 115 82 91 88 97 97 106 102 118 116 120 66 44 40 41 75 53 93 97 115 112 114 117 117 114 116 119 118 120 122 128 130 129 132 130 132 130 130 130 130 130 130 130 130 130 129 129 129 130 129 129 130 129 129 129 129 129 127 127 126 
178 193 174 123 125 194 197 208 193 118 77 206 196 177 114 119 132 133 133 133 135 133 133 133 133 132 132 132 133 133 103 65 43 41 24 37 53 75 59 58 97 75 59 54 52 21 32 43 47 62 69 56 85 82 100 110 115 114 117 117 119 120 121 121 130 130 129 130 129 130 129 129 130 130 130 130 129 129 130 129 129 129 128 129 129 128 129 127 128 127 128 127 
182 213 224 204 154 178 217 251 217 189 158 171 216 216 182 156 131 133 134 135 135 134 134 132 133 132 132 120 95 46 15 17 24 43 27 37 62 72 81 74 69 56 63 37 34 33 51 88 91 97 97 87 85 90 96 83 76 95 106 116 114 118 121 114 117 117 117 124 121 127 130 129 130 130 130 129 131 130 129 129 129 130 129 130 129 129 129 129 129 128 127 127 
196 214 201 171 170 132 227 247 224 169 127 163 211 218 193 180 138 135 135 135 135 133 133 133 124 118 106 85 56 36 6 35 41 54 64 85 90 102 83 71 65 67 75 34 51 62 64 70 72 87 85 87 82 83 93 102 100 102 125 119 103 124 124 101 118 116 115 114 122 117 129 130 131 130 130 129 130 129 129 129 130 130 130 129 130 130 129 129 129 129 127 127 
187 198 169 166 171 157 179 238 220 146 122 142 204 209 204 164 135 135 133 135 135 135 119 75 41 43 50 42 30 34 45 54 74 80 85 88 76 71 82 74 67 64 75 67 62 56 65 64 72 74 80 93 86 84 95 90 101 100 105 100 96 85 91 104 84 133 136 121 113 117 118 129 129 130 129 130 129 130 129 129 130 129 128 128 128 128 127 127 129 127 127 127 
171 193 161 172 156 137 175 195 191 133 124 127 150 185 194 181 135 135 134 133 133 124 70 41 33 25 37 35 33 43 75 61 80 79 76 74 70 82 69 71 62 70 76 65 62 71 66 67 74 77 87 95 82 83 91 79 98 98 100 90 94 107 88 95 101 147 139 143 116 116 114 127 129 130 129 130 129 130 130 130 129 129 129 129 129 129 128 127 128 128 127 127 
183 181 184 175 136 131 130 132 151 151 146 146 145 142 137 136 137 136 132 134 106 40 20 11 27 51 73 66 67 72 72 73 75 135 125 132 127 137 135 125 116 106 111 96 89 92 125 135 137 137 131 146 140 130 100 85 81 105 98 104 96 100 88 82 79 127 146 198 157 146 122 112 119 124 128 129 129 129 129 130 129 129 129 129 128 127 128 127 127 126 127 126 
185 177 189 174 142 142 140 140 144 154 154 154 156 150 140 136 137 135 102 72 53 33 11 14 52 75 85 74 63 79 97 119 117 137 132 128 127 131 131 122 115 124 116 102 107 108 125 126 128 132 134 143 138 159 130 122 122 121 93 85 90 105 95 83 77 91 96 167 190 171 124 114 117 117 119 128 129 128 129 129 129 129 127 127 128 127 127 127 127 126 127 126 
183 176 190 159 147 142 145 142 142 154 156 154 151 150 139 137 137 129 64 50 29 13 17 25 73 84 71 77 59 76 91 127 122 135 120 117 119 130 128 119 119 120 114 114 118 112 122 114 123 129 117 131 129 130 120 124 127 123 132 109 100 109 83 70 95 96 91 111 183 192 163 110 114 116 118 128 129 129 129 129 129 129 128 129 127 127 127 127 127 127 127 127 
177 179 169 146 137 133 132 133 135 135 144 140 138 138 138 138 135 71 41 19 25 48 66 71 73 86 93 111 105 105 109 122 127 97 114 127 135 117 114 119 119 114 118 124 122 124 114 121 121 127 121 123 125 118 137 117 117 104 115 128 124 121 125 101 87 84 83 90 110 138 188 168 126 115 115 117 131 129 130 130 129 129 129 129 129 128 128 129 128 128 127 127 
180 179 163 135 132 133 132 132 132 133 136 138 138 138 136 135 122 61 21 22 32 73 86 83 93 112 124 125 116 115 122 122 121 111 114 121 132 125 122 118 121 120 122 132 130 124 122 122 125 133 127 124 124 130 124 130 125 113 124 124 133 124 134 156 138 73 95 88 98 112 151 192 162 133 121 114 121 127 129 127 130 129 129 129 128 128 128 127 129 129 127 127 
179 175 150 130 131 132 132 131 130 132 135 135 137 135 122 72 66 24 27 31 60 72 79 90 117 117 135 133 122 121 128 126 129 125 127 127 128 127 124 123 129 132 129 132 133 132 131 133 135 137 137 134 133 135 132 128 142 144 145 125 124 115 133 129 140 148 139 104 95 108 96 177 200 186 155 112 116 117 127 125 130 129 129 130 127 129 129 127 129 127 127 127 
177 178 142 129 131 131 130 130 132 134 135 134 137 136 112 86 53 19 22 46 64 84 103 124 115 123 128 129 126 117 129 133 122 132 138 132 130 127 127 125 128 127 132 130 133 135 135 137 138 139 141 135 135 130 119 125 138 135 125 133 129 131 131 121 130 140 166 130 80 73 83 127 161 174 182 115 115 124 120 125 127 129 129 129 128 129 129 128 127 128 128 127 
178 180 130 129 130 130 130 130 133 133 135 135 134 135 90 67 43 37 48 57 84 128 119 123 119 120 126 129 123 124 127 129 132 138 128 133 134 130 135 132 125 133 129 137 133 136 137 138 140 142 137 138 134 132 141 137 135 139 130 130 125 119 119 122 112 143 156 141 101 74 75 122 109 135 161 168 163 133 121 122 122 124 129 129 129 129 129 128 128 129 128 129 
174 177 130 130 130 130 130 132 132 132 132 137 130 105 56 33 42 61 67 71 86 126 122 124 124 116 127 133 122 129 130 131 133 133 130 129 130 135 135 133 134 135 129 137 133 135 138 141 143 141 142 139 140 150 142 131 138 130 133 138 123 119 129 143 154 149 141 149 127 114 79 116 116 109 132 159 177 161 119 123 121 122 125 129 129 129 130 128 129 129 127 128 
179 166 129 129 129 129 129 131 132 132 133 91 114 84 14 1 11 54 81 109 107 117 118 117 127 121 129 130 130 130 131 133 133 138 135 132 132 131 140 137 138 137 140 137 136 140 142 143 144 147 148 145 134 137 138 138 129 118 132 145 139 137 154 156 146 159 150 150 127 151 148 102 116 128 140 117 124 180 166 167 137 118 122 129 129 130 129 128 127 129 128 128 
177 160 130 129 130 129 130 130 133 133 132 62 54 42 12 3 11 66 111 114 124 121 117 118 130 129 122 132 132 133 130 137 140 134 136 134 133 136 139 136 136 140 139 140 141 142 143 143 145 145 145 145 138 143 140 137 137 142 142 140 146 160 146 140 143 163 156 159 156 158 125 129 106 109 163 110 90 163 179 166 170 117 119 129 129 129 129 129 129 128 129 129 
170 150 130 131 129 129 130 132 133 134 131 62 43 37 12 30 41 88 98 118 124 125 119 124 130 133 125 132 133 137 135 140 140 135 138 136 141 140 142 140 139 138 142 146 146 150 152 151 152 151 146 143 146 138 143 145 137 140 138 143 142 148 148 148 153 156 156 157 142 143 125 145 133 106 176 102 87 158 184 190 177 121 121 129 129 128 129 129 128 130 127 129 
186 139 130 131 129 129 130 130 134 133 126 101 77 40 24 30 55 90 101 114 127 129 121 126 133 134 137 138 140 137 142 143 143 143 148 149 146 150 148 148 149 153 149 156 155 156 166 165 163 163 148 151 153 153 150 153 153 154 149 154 145 143 144 137 146 143 142 129 128 124 128 137 145 183 145 108 95 153 180 179 188 158 123 125 128 127 127 129 129 129 128 129 
175 135 130 129 129 129 129 132 134 129 123 99 64 53 43 51 60 109 121 127 129 129 130 125 131 138 139 143 146 143 150 151 149 153 154 158 157 160 163 157 159 159 158 162 163 164 178 173 167 169 163 159 166 171 175 166 155 154 161 146 149 146 153 147 156 155 135 134 127 116 130 117 152 152 140 115 103 140 183 169 179 157 132 130 129 129 129 129 128 129 129 128 
152 131 130 129 129 129 131 133 134 132 101 82 46 39 85 87 99 129 130 133 136 130 130 133 137 138 148 151 163 165 171 175 179 184 184 183 185 180 181 180 180 182 177 179 176 182 187 189 184 171 169 171 182 190 199 198 190 175 179 171 166 163 160 154 159 152 166 151 147 161 124 131 143 134 126 134 127 167 179 158 194 176 158 129 128 129 129 129 129 129 129 129 
141 130 129 130 130 129 131 133 132 124 120 60 22 12 111 103 119 131 131 134 135 131 132 138 141 145 152 166 172 168 180 188 191 192 192 192 188 187 185 183 186 188 188 186 190 193 195 191 183 172 173 178 180 185 200 207 187 190 174 175 163 164 151 151 149 148 151 159 145 140 135 154 156 145 132 143 173 172 175 195 188 176 171 134 129 128 129 130 130 129 128 129 
133 130 130 127 129 130 132 132 133 128 112 31 13 26 93 125 134 138 138 135 137 137 139 142 155 161 164 177 187 189 196 197 200 201 200 198 195 194 195 194 195 198 202 200 203 201 199 195 194 185 179 182 182 185 182 188 183 185 179 182 179 173 160 162 156 144 154 145 153 158 148 150 149 146 157 150 192 219 209 198 188 178 161 130 129 128 129 127 129 128 129 128 
131 129 129 129 128 130 132 134 133 131 111 25 20 33 88 126 133 139 136 134 136 140 143 150 159 163 172 180 185 191 197 196 198 201 201 197 195 194 195 195 196 198 196 203 201 201 205 204 199 188 183 185 196 191 194 191 190 187 183 191 182 180 166 165 164 146 147 152 138 139 141 143 149 158 154 156 198 231 211 200 189 176 143 129 130 129 130 129 130 129 128 129 
130 129 129 129 129 132 132 132 134 135 130 29 43 55 121 136 133 140 139 137 141 154 158 163 169 172 177 185 184 187 188 190 188 189 187 188 188 188 189 194 196 197 201 199 196 196 198 194 195 192 188 192 199 201 204 208 216 216 209 208 209 204 180 181 179 159 147 142 135 128 124 130 150 145 139 182 208 240 221 193 177 156 130 129 129 130 130 130 129 130 127 127 
131 130 129 130 130 132 132 132 135 134 135 33 48 66 128 135 130 139 138 139 145 160 163 167 172 175 178 182 187 183 184 182 182 182 182 180 180 181 183 187 192 192 191 196 192 191 193 191 189 188 190 191 198 202 206 213 219 222 225 213 208 210 194 188 183 166 150 136 127 154 133 143 143 169 142 190 234 243 222 186 174 149 130 129 130 129 130 129 129 129 129 127 
129 130 130 129 129 132 133 133 136 132 135 22 52 100 133 138 133 137 138 144 150 166 169 171 172 172 174 177 174 173 174 174 173 174 169 169 167 166 167 170 175 175 179 183 186 182 186 183 183 175 177 178 177 183 188 197 197 201 208 206 198 199 190 180 179 172 156 148 132 142 129 158 154 150 155 196 234 255 211 182 165 137 129 129 130 130 130 128 129 129 127 127 
130 129 130 130 130 133 133 133 136 133 132 13 47 108 137 138 135 138 138 148 154 170 173 172 170 167 170 170 170 169 167 169 167 161 163 161 159 158 160 163 171 172 174 177 178 176 179 179 179 171 169 173 177 178 183 185 179 180 182 185 188 184 180 178 176 182 174 158 139 125 143 155 174 141 170 189 238 249 206 186 171 133 130 130 129 130 130 129 129 129 127 128 
130 129 129 129 130 133 132 133 135 135 131 22 45 116 141 140 136 138 142 149 159 174 174 172 169 167 169 164 169 166 167 163 161 161 158 159 156 157 160 164 169 169 171 172 171 171 172 178 174 171 171 173 179 182 182 185 176 169 171 166 172 172 172 176 179 184 174 159 129 118 117 148 193 160 164 172 232 250 199 187 175 130 130 130 129 131 130 130 129 129 129 127 
129 129 130 130 131 133 133 134 136 135 134 50 45 135 140 140 139 144 145 151 163 171 169 169 162 164 163 162 160 161 163 161 158 156 155 155 156 156 159 161 166 166 166 161 159 159 159 160 163 166 167 167 174 179 182 184 182 175 171 164 164 159 166 172 172 179 175 167 130 125 129 132 166 166 165 171 214 234 203 187 174 137 129 130 131 130 130 129 130 128 128 129 
130 129 130 132 132 132 133 134 136 136 136 82 36 143 143 137 138 142 145 151 163 171 169 163 156 155 158 159 160 162 161 160 161 156 158 158 159 159 161 162 166 162 159 156 154 154 154 154 158 162 162 165 172 175 182 185 184 180 177 167 158 159 159 166 170 173 175 168 134 126 129 142 159 166 166 191 199 214 201 192 172 135 131 130 130 130 130 130 128 129 128 127 
130 131 130 132 132 134 133 133 137 136 135 130 17 89 137 141 137 146 151 162 167 169 163 158 151 150 156 158 165 167 165 167 164 162 159 159 161 163 162 163 163 160 158 151 151 151 148 148 152 158 154 156 161 164 169 171 177 174 165 154 151 148 148 151 155 165 161 159 138 124 122 146 151 167 177 234 211 206 197 185 177 132 133 129 129 129 129 128 129 129 127 129 
130 130 129 130 132 133 133 133 135 136 136 131 11 53 136 142 139 150 160 169 171 168 160 153 154 156 158 159 164 166 167 166 165 162 161 159 161 160 163 163 163 160 156 151 151 150 149 151 151 155 156 156 160 164 166 170 169 166 160 145 143 140 148 147 152 162 163 156 139 130 124 133 159 159 184 230 224 213 188 177 183 129 130 130 129 130 130 129 129 127 127 129 
130 130 131 132 133 133 134 135 137 137 133 134 20 11 132 137 142 158 167 176 174 163 156 153 155 159 164 168 169 167 166 163 161 157 154 154 156 156 155 156 157 156 153 147 146 149 149 150 151 151 153 154 154 154 162 164 164 161 153 141 143 140 142 144 146 149 152 159 148 134 122 138 150 152 159 223 241 206 182 175 182 129 131 129 129 129 128 128 129 129 129 128 
130 130 132 132 133 133 135 134 136 137 137 133 45 0 137 136 142 164 170 176 175 164 160 159 162 164 161 169 172 166 162 160 158 153 150 150 152 150 151 154 153 151 150 145 146 146 148 148 147 149 151 151 151 151 156 156 159 158 154 145 143 143 143 144 145 145 147 148 155 142 125 129 155 155 153 226 239 201 178 173 177 130 130 129 130 129 128 128 130 129 129 128 
130 131 132 133 131 135 133 135 135 138 135 133 109 8 136 137 157 174 171 170 169 159 159 154 158 155 160 161 153 153 145 145 145 142 140 138 138 140 143 142 143 143 142 139 138 141 145 144 145 145 142 138 134 136 133 135 137 130 135 136 134 135 137 135 138 145 145 144 155 155 146 116 137 150 198 234 224 200 173 175 140 130 130 130 130 129 130 129 129 128 128 128 
129 131 132 133 133 133 133 135 135 136 135 135 124 19 150 141 163 172 171 169 164 151 151 145 148 142 143 135 137 135 133 132 130 130 133 132 121 132 138 139 139 140 140 137 134 137 141 141 142 143 137 134 130 131 130 129 124 121 120 117 118 129 116 127 129 131 141 147 153 163 154 116 135 158 220 238 208 199 167 179 139 131 130 130 130 131 129 129 128 129 128 129 
129 130 133 132 132 134 135 135 135 137 135 133 131 50 158 148 166 176 169 161 148 140 137 137 132 122 128 118 122 119 112 113 114 119 119 120 116 119 126 132 135 135 137 133 132 135 137 137 137 135 135 128 124 123 119 117 102 91 96 92 84 95 99 101 108 114 122 142 153 159 162 108 130 150 220 235 198 201 175 177 138 129 130 129 130 130 130 129 128 130 129 129 
130 132 132 133 133 134 135 135 137 133 137 133 135 115 152 179 173 167 150 140 127 113 112 109 104 99 95 95 94 88 83 82 85 86 90 87 99 107 116 114 124 124 128 124 124 127 132 126 125 119 114 100 88 85 80 69 51 43 44 40 46 46 56 71 77 68 80 95 142 155 164 119 104 171 202 218 198 197 184 159 132 129 130 129 130 129 130 130 129 129 129 130 
130 132 132 133 133 133 135 135 135 137 136 135 133 130 146 190 180 151 142 129 120 110 108 108 98 95 95 91 87 85 82 78 79 82 82 85 93 91 105 117 122 122 120 124 124 124 132 125 114 105 85 84 71 71 63 59 38 34 29 27 37 41 49 58 62 61 66 80 118 147 159 114 117 185 196 208 198 196 186 138 133 129 130 130 129 129 130 129 129 129 130 129 
131 132 133 133 132 135 134 136 134 135 136 133 134 132 76 192 194 138 129 120 116 116 121 119 116 112 106 101 103 98 92 91 88 87 83 83 85 86 99 108 115 114 118 120 121 124 123 114 104 88 82 69 54 51 52 45 37 36 41 39 46 51 70 77 87 82 81 82 106 128 159 119 165 174 199 191 203 183 160 130 130 130 130 129 129 130 130 130 129 130 129 130 
130 132 133 133 135 135 135 136 135 135 133 135 133 131 76 169 190 145 127 124 121 132 134 130 125 123 119 117 112 111 101 97 99 96 96 89 88 94 96 107 113 114 118 123 123 125 124 110 101 82 71 72 51 52 49 54 57 58 64 72 85 95 101 103 103 101 103 109 124 134 154 122 163 174 193 188 198 186 154 131 131 130 130 130 129 130 130 129 130 129 129 129 
130 131 132 133 135 135 135 135 133 134 136 136 135 135 104 68 175 137 127 133 139 142 144 143 143 141 143 141 140 132 123 121 117 111 111 111 109 111 111 116 110 111 114 138 138 132 130 112 103 85 87 82 83 80 85 88 97 107 119 127 131 137 146 158 154 150 145 138 155 167 172 145 204 179 172 171 183 183 130 130 130 130 131 130 130 130 130 130 130 129 129 128 
132 131 133 134 135 135 135 135 134 136 135 135 135 134 112 59 143 133 133 143 142 148 150 148 150 152 153 150 150 148 143 135 130 124 118 117 117 116 117 117 109 119 120 142 149 145 137 122 106 87 87 87 93 95 104 103 110 119 125 140 143 150 152 163 170 173 164 158 158 173 183 154 188 198 163 167 177 183 130 129 131 130 131 131 129 130 131 130 129 129 130 129 
132 133 132 135 135 136 136 135 136 134 135 134 135 135 56 61 64 133 137 139 144 150 148 146 146 151 151 159 160 155 156 151 145 137 133 125 124 122 124 125 135 142 148 167 171 163 149 130 104 91 96 96 95 102 107 112 130 145 159 198 187 185 160 151 154 182 179 182 180 175 183 159 169 132 173 167 166 168 130 131 132 130 131 130 130 130 131 131 130 130 130 130 
133 132 135 135 135 135 137 135 135 135 135 135 135 135 51 58 56 130 133 138 140 145 146 151 146 150 152 145 149 145 150 146 145 140 138 133 130 125 127 132 148 152 160 179 183 177 157 133 98 90 90 95 105 112 113 115 119 127 138 153 162 175 187 190 163 156 166 172 181 185 174 166 151 103 158 169 169 170 127 130 132 130 131 130 130 130 131 131 131 130 129 130 
132 133 134 133 135 135 135 135 136 133 135 136 135 135 31 56 51 125 127 131 140 143 146 143 135 133 132 130 129 132 131 137 140 137 137 133 131 129 129 140 158 166 169 186 193 186 164 140 102 91 98 101 106 116 114 112 114 121 126 136 142 142 151 171 174 151 149 165 184 188 186 169 138 82 132 167 166 174 125 131 131 131 131 131 129 130 130 130 130 131 128 129 
133 133 134 134 135 135 135 136 135 135 135 135 134 135 23 65 103 122 127 126 130 124 124 130 142 156 147 129 124 127 128 139 154 142 144 137 137 136 143 156 174 184 193 200 204 197 179 164 140 95 110 112 132 146 138 129 127 131 141 188 204 217 169 186 183 174 173 177 178 176 174 161 128 85 118 164 167 188 121 130 132 130 131 130 129 130 130 130 130 130 129 130 
133 133 134 135 135 137 135 135 135 134 135 135 135 134 25 77 124 124 130 129 127 130 133 130 131 136 147 122 121 119 124 149 145 134 137 137 138 139 154 166 179 193 197 203 203 195 174 167 151 108 110 115 127 136 150 129 130 128 129 170 178 169 146 158 166 175 179 183 177 175 172 158 123 98 117 163 167 192 127 129 130 131 130 132 130 130 130 130 130 130 130 130 
133 133 136 137 135 137 135 137 135 135 135 137 133 133 36 84 138 130 134 134 139 137 136 133 135 134 139 140 138 134 133 132 138 138 142 145 146 155 164 173 187 198 203 200 194 187 161 159 162 153 152 145 147 148 151 154 158 160 164 151 150 166 153 142 151 164 168 186 193 192 179 162 124 131 135 158 166 196 155 130 131 130 130 129 131 130 130 130 130 130 129 129 
133 133 135 138 135 137 136 136 134 135 136 136 134 124 41 83 139 130 136 141 141 141 140 141 137 138 142 142 143 138 135 140 142 140 142 143 154 161 169 174 195 198 203 196 193 183 154 152 158 163 165 169 153 150 148 146 139 150 149 151 167 180 187 180 169 187 184 172 196 192 187 165 135 156 138 156 169 191 167 130 132 130 130 131 131 130 130 131 130 130 129 129 
133 134 135 136 136 136 135 136 136 135 137 136 135 118 53 99 152 138 146 147 150 153 158 159 157 156 154 137 154 156 156 156 154 147 141 153 164 169 174 180 200 199 196 185 175 169 150 144 149 172 191 219 195 195 191 185 178 174 182 193 195 190 191 193 182 195 207 200 191 185 175 160 148 179 142 156 167 181 175 129 132 132 132 132 130 131 131 130 131 130 129 129 
134 134 135 135 136 137 135 136 136 135 137 135 135 126 54 101 148 141 146 149 152 159 158 164 160 163 162 148 156 160 163 161 159 146 151 155 163 169 174 174 198 196 193 182 171 166 142 142 146 171 196 222 213 204 199 195 190 187 198 201 200 188 190 186 163 175 203 197 192 178 165 155 154 159 137 154 166 171 173 130 132 132 132 133 132 132 131 130 131 131 130 131 
134 134 133 135 136 136 136 136 135 137 135 136 134 114 58 80 148 146 149 156 160 166 169 173 182 183 185 177 168 173 174 172 169 165 153 157 165 171 177 180 181 185 183 172 167 162 140 137 142 160 192 202 229 229 232 224 220 219 216 226 224 218 206 202 198 191 191 190 170 160 154 151 153 132 125 154 161 153 149 130 132 132 132 132 132 131 130 130 132 132 130 130 
133 135 135 136 135 137 135 135 135 135 136 134 128 115 61 66 137 144 151 157 163 170 173 176 182 184 185 183 174 174 175 174 171 163 158 162 166 175 172 177 181 179 183 172 168 161 143 138 143 148 175 196 223 224 232 230 234 224 221 222 216 203 190 198 205 206 191 178 162 161 158 151 152 120 122 154 159 154 135 130 132 131 132 132 131 132 132 131 131 131 130 130 
134 133 134 135 137 135 136 135 134 137 136 135 132 109 61 70 127 145 148 157 161 168 175 177 183 183 187 190 183 180 180 175 174 167 165 168 164 166 171 170 173 179 177 167 169 164 145 141 140 142 157 182 210 225 232 234 233 237 234 225 215 197 187 183 187 187 177 169 164 158 156 152 151 129 112 152 156 158 130 130 132 132 132 133 132 132 132 131 132 131 130 131 
135 136 136 135 137 133 137 137 137 136 137 134 125 102 58 95 134 141 144 149 153 167 172 175 182 183 187 187 186 182 174 172 170 167 165 160 157 161 163 159 166 171 174 164 165 171 148 144 137 135 137 148 180 198 202 214 221 221 219 212 208 201 184 177 170 160 158 156 148 149 147 146 149 124 125 152 154 162 127 132 132 131 132 131 130 132 132 132 131 131 130 130 
134 135 137 137 137 135 135 136 137 137 137 137 134 102 66 104 129 143 143 143 146 160 166 172 178 181 183 184 179 175 169 167 167 165 160 157 158 157 156 157 162 166 169 166 176 174 150 145 138 133 137 140 167 175 187 195 211 213 213 211 201 197 179 174 164 156 150 148 147 146 144 147 147 127 129 151 152 161 135 132 131 131 132 131 130 131 132 131 132 132 130 131 
135 135 135 135 135 137 136 136 135 137 136 135 133 112 75 119 133 140 142 146 148 155 162 164 167 171 167 164 163 159 155 154 153 151 155 163 155 154 151 153 154 161 167 162 161 159 150 144 144 137 138 142 138 144 158 163 171 175 177 184 181 180 171 165 159 149 148 140 137 137 137 141 142 116 156 151 152 162 153 136 131 132 132 132 131 132 130 132 131 130 130 130 
136 136 135 135 137 137 136 136 136 138 137 136 136 125 93 130 132 142 143 146 145 151 154 159 163 163 163 159 158 154 146 146 147 146 156 156 153 152 152 151 151 156 161 159 153 151 145 140 141 136 136 141 142 130 137 150 156 158 164 168 167 167 169 164 162 152 150 143 140 137 138 140 143 114 157 152 154 159 161 137 131 132 132 132 132 132 131 131 130 130 130 130 
134 135 137 135 135 136 135 136 135 137 137 136 135 122 92 133 133 140 145 142 144 150 151 151 152 153 153 143 137 134 131 133 133 141 145 146 148 149 149 150 147 146 150 151 143 140 130 131 133 120 113 120 146 132 122 117 126 134 139 150 152 153 159 160 161 158 152 152 146 143 142 145 146 106 164 153 154 158 156 145 132 132 132 132 133 133 132 132 132 132 130 131 
135 136 134 135 137 136 135 136 135 137 136 136 137 111 97 140 133 141 143 148 147 150 150 150 150 148 147 137 133 127 125 129 130 135 141 142 142 146 149 151 145 144 144 145 137 134 122 122 112 57 66 100 145 143 121 118 121 124 129 142 145 149 156 157 158 156 153 151 150 148 146 146 145 106 164 156 154 158 175 143 132 133 132 132 132 132 131 131 132 133 130 132 
136 135 136 136 137 135 135 135 135 135 136 135 135 109 77 137 134 140 143 147 144 150 147 146 136 135 130 129 124 122 122 126 128 134 133 129 130 124 124 123 129 143 140 122 120 117 83 50 60 70 69 82 143 148 142 127 122 121 124 128 132 135 143 149 150 150 153 152 153 150 148 146 135 111 163 155 153 160 173 138 133 133 132 132 132 132 132 132 131 132 132 130 
137 136 136 137 135 135 136 136 135 137 135 137 135 112 75 140 132 145 145 145 142 143 145 144 134 133 126 124 121 120 124 128 128 137 132 129 132 129 130 132 124 129 135 123 119 118 109 98 103 62 58 83 139 148 143 137 128 124 125 129 131 133 135 142 144 148 148 148 146 146 146 143 131 122 159 154 153 161 174 135 133 133 133 133 132 131 132 132 132 131 130 131 
136 137 137 135 135 135 134 135 135 137 135 135 135 119 75 138 132 142 143 147 143 142 143 138 132 129 124 119 119 121 126 127 130 137 132 127 124 120 122 122 124 123 129 121 117 111 116 99 87 63 75 107 133 142 146 136 134 130 126 130 132 133 136 139 140 145 144 143 146 145 144 142 124 124 153 154 153 164 173 132 133 133 134 132 132 130 132 132 132 131 132 132 
136 136 137 137 135 136 135 135 136 136 136 136 134 124 79 143 131 140 142 144 142 142 140 138 129 126 124 117 117 120 129 130 131 138 136 134 120 117 114 117 122 128 124 119 122 120 120 114 118 114 111 104 130 138 140 149 154 148 139 139 137 139 136 136 136 138 140 140 142 142 143 139 106 156 145 154 155 160 169 133 132 133 131 132 130 131 132 132 131 132 132 131 
137 136 136 136 137 136 137 137 137 136 135 137 134 121 90 151 132 142 142 141 143 138 138 135 129 125 123 117 119 120 129 132 133 137 137 133 122 116 117 112 123 127 129 116 117 116 118 120 124 114 107 114 154 151 144 148 153 155 149 140 139 137 133 133 135 140 139 139 142 141 140 136 95 162 140 154 156 164 169 132 132 133 133 132 132 132 132 132 132 132 133 132 
137 138 137 135 137 137 137 137 136 137 136 136 133 132 73 151 138 140 142 138 142 140 137 136 127 124 121 121 120 122 124 125 130 125 129 127 116 111 113 118 136 150 154 121 113 116 119 110 109 125 124 142 191 195 183 159 154 150 158 147 142 142 137 137 138 139 138 138 140 139 135 117 114 165 136 155 157 157 157 134 134 133 133 133 133 132 132 132 131 132 132 132 
137 136 137 136 137 135 137 135 135 137 137 135 133 133 77 140 133 133 140 140 140 137 137 133 129 122 122 119 119 113 119 122 122 121 118 122 124 122 129 131 149 166 166 125 121 119 124 113 104 111 101 159 201 208 156 147 140 148 140 151 145 141 138 136 138 140 138 138 139 139 133 100 131 163 136 157 161 152 154 132 133 132 132 132 132 131 130 131 131 131 132 132 
137 137 137 137 136 135 136 136 136 137 137 137 136 136 104 116 138 135 135 138 137 138 137 135 125 125 125 111 112 109 113 115 112 116 119 117 128 132 138 146 197 202 192 146 139 139 151 122 117 111 141 167 174 156 129 96 91 101 117 145 146 145 139 141 139 140 140 137 134 133 131 101 158 147 149 156 163 151 145 133 135 135 133 134 133 133 132 132 132 133 133 132 
137 137 137 136 136 137 137 137 136 137 138 135 137 136 107 103 143 135 135 137 139 137 137 138 133 132 126 109 108 110 111 109 106 116 119 121 130 135 153 159 193 198 199 175 166 164 173 138 125 108 121 125 137 111 96 72 85 81 90 130 146 146 140 141 141 139 138 138 134 131 127 121 162 142 146 157 163 154 136 134 134 134 133 134 133 132 133 133 132 132 132 132 
135 138 137 137 136 136 137 136 137 139 135 137 135 137 121 134 143 133 133 135 136 137 137 138 134 132 122 108 104 106 110 106 106 115 123 128 132 135 140 145 154 167 180 187 175 161 153 132 111 129 129 127 95 78 50 45 50 50 61 100 117 145 144 142 142 138 140 135 132 135 114 159 154 145 157 158 152 167 134 133 134 133 133 133 133 134 134 133 134 133 131 131 
137 137 137 137 138 137 137 137 137 136 135 135 135 135 124 148 137 138 130 133 137 135 137 135 138 132 116 108 106 110 114 112 115 124 127 127 126 127 135 145 155 166 172 183 175 170 148 133 111 106 117 114 103 74 61 51 51 55 61 87 99 126 142 144 142 140 137 134 135 125 101 159 148 146 158 161 156 176 135 133 134 133 133 133 133 133 133 134 133 134 133 132 
137 138 137 137 137 137 137 137 135 137 137 137 137 136 136 144 134 140 138 137 135 138 138 139 137 126 122 111 117 115 116 117 119 126 126 125 129 133 142 148 150 161 170 180 175 168 159 139 127 111 89 92 109 90 74 62 54 62 62 83 107 110 140 143 142 139 138 131 132 131 90 165 148 150 158 160 159 187 134 132 133 133 133 133 133 133 134 133 133 133 133 133 
138 138 136 137 137 137 136 136 137 136 135 137 135 136 136 144 167 143 138 139 137 137 143 144 140 129 129 118 119 118 116 116 117 125 130 137 137 142 143 148 151 146 145 132 128 132 160 153 134 125 122 119 106 86 68 64 57 67 85 89 112 121 130 139 141 138 130 124 123 92 124 154 149 159 162 160 169 177 133 132 133 133 133 133 133 133 134 135 133 133 133 133 
138 138 137 138 138 137 136 137 137 136 137 136 135 134 138 139 168 147 133 143 142 136 141 141 137 132 124 123 123 126 129 132 135 145 152 154 157 158 163 166 165 154 138 129 140 171 200 198 170 176 174 166 146 124 104 85 91 88 103 110 112 129 130 136 142 135 130 130 104 98 153 151 153 160 159 161 178 169 133 133 134 133 133 133 133 133 135 135 134 134 133 133 
137 135 136 136 137 137 136 137 135 137 135 137 135 135 137 137 140 170 143 134 141 143 142 143 142 140 134 129 135 142 148 150 150 154 153 156 157 172 173 181 177 183 154 108 126 153 187 169 146 149 159 154 172 159 153 145 130 137 148 153 146 154 149 137 129 133 130 129 85 142 168 157 163 164 167 171 179 142 132 133 134 133 133 133 134 133 134 134 133 132 133 133 
137 136 135 135 136 137 137 137 137 137 136 136 135 134 137 137 140 215 158 133 143 142 142 140 141 137 134 133 142 153 155 153 153 160 158 156 151 161 169 170 161 160 124 102 119 133 164 178 150 166 171 164 169 166 152 157 156 162 158 167 171 166 153 146 134 129 126 121 118 159 162 163 163 164 169 175 172 142 132 135 132 132 132 132 133 133 133 132 133 133 134 134 
137 137 136 135 130 131 131 133 137 137 137 136 137 136 136 136 135 188 175 154 128 146 144 138 146 138 135 144 158 156 158 158 151 156 156 152 144 151 151 154 161 166 167 134 130 112 131 137 143 160 150 143 152 156 154 166 171 159 159 169 175 177 158 147 145 124 110 97 171 166 164 168 164 168 170 187 148 135 134 133 133 133 133 133 133 133 133 133 133 133 133 133 
138 137 138 137 137 137 135 136 133 132 132 130 130 130 133 133 132 176 190 166 135 143 143 136 138 136 135 145 153 153 156 154 153 155 151 146 142 148 149 160 164 169 177 164 164 131 150 171 172 175 187 175 158 152 156 166 171 171 169 169 164 175 173 153 143 121 102 102 171 164 165 169 169 169 172 183 139 133 133 134 133 133 133 133 133 133 133 133 132 133 133 134 
138 137 137 137 137 137 137 137 137 137 135 136 135 135 136 136 137 151 190 205 170 125 126 132 130 132 131 140 138 143 148 154 158 155 151 148 147 146 143 142 143 146 147 148 140 138 132 141 148 161 169 179 187 185 171 161 176 179 175 154 164 158 150 148 134 104 92 116 171 172 177 173 180 180 174 151 134 134 134 134 135 135 134 133 132 133 132 133 134 133 133 133 
137 136 138 137 138 137 139 138 139 138 137 135 135 137 135 135 137 146 167 209 199 128 117 128 131 132 124 129 135 136 145 153 156 156 159 152 145 142 139 139 143 142 151 151 142 136 130 139 148 151 155 163 180 184 182 180 166 169 174 150 156 158 140 129 121 106 143 169 172 180 172 182 182 175 188 139 134 135 133 134 134 135 133 134 133 134 133 133 134 133 133 133 
137 140 142 142 140 138 137 136 140 141 141 138 136 137 137 137 135 137 151 190 213 145 125 117 122 119 124 120 125 127 135 140 148 147 146 146 138 130 133 125 112 106 115 118 118 118 114 116 101 99 106 116 127 128 124 124 146 158 156 149 146 136 116 114 104 130 169 169 168 169 170 181 177 189 182 138 133 133 134 135 134 135 135 133 133 134 134 133 133 133 133 134 
137 137 138 138 138 137 137 140 140 140 138 139 139 138 142 140 139 141 142 188 209 174 133 122 122 118 121 121 124 125 129 134 139 142 140 140 139 135 131 130 111 107 107 112 116 119 111 117 95 95 100 107 108 100 104 100 111 125 128 133 131 124 108 103 98 147 163 177 164 169 176 183 177 194 163 133 133 132 135 135 133 133 133 133 132 132 132 132 133 133 133 133 
135 137 137 137 136 138 137 137 137 135 137 136 137 137 138 140 139 141 141 177 212 228 136 126 114 119 119 119 122 126 124 132 133 138 141 140 137 136 134 131 111 108 114 119 121 122 119 125 116 109 110 112 100 95 96 87 89 94 103 132 131 116 106 100 117 169 177 181 174 172 178 179 185 183 151 133 134 133 133 133 134 133 133 132 133 133 133 132 134 133 134 133 
137 136 137 137 138 138 135 137 138 137 137 139 140 140 140 139 138 140 138 147 180 175 166 142 127 125 125 122 124 124 127 126 127 129 130 137 138 137 138 138 124 124 127 114 130 135 137 145 143 121 114 118 94 95 82 77 76 83 85 101 109 106 104 124 148 181 195 192 176 182 191 192 182 143 135 133 134 133 132 133 134 133 133 133 133 133 133 133 134 134 134 134 
137 137 137 137 137 137 137 137 140 138 138 138 137 137 138 140 140 138 140 142 126 145 161 154 130 125 127 121 127 127 130 129 126 127 129 137 139 140 146 143 136 145 138 131 135 140 156 156 151 140 142 130 106 96 83 78 78 85 89 95 99 110 117 145 149 190 186 175 178 187 183 190 169 135 133 134 135 133 135 135 133 134 133 133 132 132 132 132 133 133 133 133 
137 137 138 137 137 137 138 138 138 138 138 138 137 138 138 135 113 98 79 73 32 109 131 130 140 133 132 129 129 130 129 129 127 129 129 134 137 140 146 146 159 158 154 159 156 167 180 185 184 160 148 135 130 110 99 98 95 93 93 110 117 133 164 168 175 129 129 159 193 193 189 177 148 135 135 133 134 134 135 133 135 135 133 134 133 133 132 134 133 133 133 133 
137 138 137 137 137 135 137 137 137 138 136 137 135 137 96 58 71 72 69 29 6 80 125 125 148 146 137 135 135 135 133 131 131 132 130 133 137 140 143 146 155 156 158 151 154 157 177 182 180 164 154 147 125 111 111 106 98 101 100 119 132 163 174 179 181 140 91 150 174 176 188 171 141 137 136 134 134 134 134 135 135 134 135 134 133 133 132 132 133 134 132 132 
137 137 137 138 137 137 137 137 135 135 137 89 80 85 36 60 47 27 28 11 48 70 119 151 151 153 148 138 137 137 137 138 138 135 130 130 133 138 140 150 147 144 148 150 153 152 162 158 160 153 145 137 123 119 121 122 117 122 124 161 180 184 196 195 187 148 172 115 161 164 124 117 103 133 135 135 135 135 135 135 135 135 134 135 133 134 134 134 134 134 132 133 
138 137 139 137 137 137 137 137 138 136 139 72 71 52 15 41 35 38 37 38 54 75 109 151 153 153 151 143 138 138 138 137 142 137 131 129 132 137 133 141 145 138 136 143 138 133 132 142 145 132 131 132 124 121 124 124 127 129 129 182 186 190 201 200 188 164 161 165 148 158 121 117 104 108 123 134 133 135 136 136 135 135 135 135 135 134 135 134 133 134 133 133 
137 138 130 122 109 99 95 95 80 72 62 51 47 44 94 91 83 95 70 61 83 125 142 145 153 154 153 150 147 145 140 138 139 136 132 132 129 131 133 132 132 130 129 130 121 124 119 116 112 94 101 102 108 117 123 127 133 153 173 198 193 203 201 191 187 238 159 160 101 123 127 110 126 96 90 121 124 123 132 135 135 135 134 136 135 134 133 133 134 134 132 134 
104 99 95 92 91 86 84 82 66 53 46 61 71 57 112 96 77 87 57 71 82 136 137 138 150 153 158 155 151 151 142 139 137 133 133 132 132 128 129 129 129 125 126 119 116 117 102 106 96 87 86 96 105 109 116 119 153 187 196 197 200 201 190 184 188 192 208 147 129 66 133 93 114 124 54 112 115 119 133 133 134 133 134 135 133 134 133 133 134 134 133 133 
92 91 86 87 82 71 69 65 60 54 58 86 82 56 104 86 96 110 90 118 119 146 137 137 149 150 151 154 154 153 145 143 141 136 135 132 131 130 129 127 125 126 125 117 114 112 97 98 91 83 85 88 102 104 117 133 182 191 195 203 208 202 190 193 190 167 200 185 124 53 100 109 106 121 90 123 123 119 118 116 118 124 129 133 132 133 133 133 134 135 133 133 
72 73 74 74 77 90 94 97 88 84 93 102 72 96 132 132 150 115 115 134 133 142 136 141 144 145 148 154 157 156 154 151 148 138 132 133 131 130 130 126 125 122 119 117 118 114 107 103 98 90 94 93 112 130 152 179 185 198 201 200 199 190 188 183 182 146 163 174 103 93 91 146 120 96 125 90 107 134 112 121 126 116 120 119 118 116 117 117 117 117 117 118 
92 96 104 101 103 101 104 103 93 87 97 135 105 148 137 139 145 116 120 134 133 137 137 137 143 148 146 147 150 156 154 151 148 143 138 135 131 130 131 127 124 120 120 122 119 116 109 108 95 93 97 114 145 155 171 183 194 193 200 200 188 185 183 183 180 150 161 157 128 117 107 126 164 101 120 56 127 140 112 113 121 118 115 117 116 116 117 116 114 114 116 114 
107 105 109 106 110 110 116 115 113 122 129 103 116 161 141 146 139 116 138 143 145 138 138 138 140 142 140 148 149 151 153 157 156 147 148 146 144 140 137 140 133 129 135 136 138 138 141 137 143 146 155 156 175 182 182 190 205 206 200 183 188 193 182 180 175 154 136 149 160 128 72 148 140 172 129 126 87 129 111 120 112 127 123 127 127 125 122 117 116 116 113 114 
117 120 127 131 135 138 137 127 127 132 124 104 141 149 137 146 137 115 137 145 143 146 137 138 137 140 140 148 151 150 151 153 159 152 153 152 145 146 143 142 145 142 141 142 145 146 146 154 159 167 163 172 183 185 192 198 206 199 182 190 190 186 183 177 161 149 135 145 175 148 60 181 149 158 152 141 83 151 130 117 115 126 125 122 122 124 121 121 121 120 116 113 
136 139 137 137 137 137 132 125 133 132 142 116 166 144 145 143 139 128 145 146 148 145 142 138 140 142 143 144 145 144 150 152 151 156 158 156 153 148 151 148 152 147 146 154 159 158 163 167 168 174 178 187 198 205 212 201 193 191 192 185 183 180 167 150 137 143 132 145 165 168 103 136 187 161 151 124 123 69 130 133 135 137 127 124 122 124 123 122 123 122 119 117 
136 134 138 138 137 133 129 122 136 136 149 129 162 144 145 143 138 135 143 150 150 142 140 144 141 146 143 144 144 144 150 151 154 154 156 154 153 151 153 154 151 154 152 163 168 172 172 176 183 184 193 198 206 206 203 191 189 190 182 180 177 174 166 156 122 138 135 146 161 174 124 124 172 178 140 141 126 96 138 148 119 130 136 125 124 125 126 124 125 124 120 119 
138 136 140 133 138 130 126 132 140 143 141 151 153 142 142 138 140 143 152 148 151 144 148 150 146 143 145 138 148 144 146 148 148 156 156 156 159 160 161 161 165 163 170 177 180 187 193 196 201 208 206 208 203 196 193 193 188 183 182 181 183 165 149 145 122 132 145 147 170 188 147 111 145 189 169 163 145 82 182 148 147 132 132 141 142 141 138 132 128 124 122 121 
140 140 138 137 138 127 130 135 135 147 124 167 150 131 147 146 139 145 150 148 150 140 148 148 145 145 140 145 142 144 148 147 147 150 155 155 157 161 161 162 166 170 176 183 187 192 193 198 191 195 197 196 194 194 190 192 185 179 183 182 173 154 150 135 140 129 146 148 167 190 152 108 142 175 193 168 142 95 145 177 137 129 130 142 140 138 140 141 140 140 133 130 
138 137 138 140 136 130 136 137 145 153 117 171 141 134 140 147 135 151 155 151 151 138 148 148 146 146 145 146 140 145 146 145 147 149 153 156 158 160 164 162 169 170 182 185 187 192 192 193 189 190 187 190 188 187 188 185 186 185 186 169 161 153 148 122 154 130 150 149 159 193 154 106 139 160 189 172 148 125 121 169 159 129 127 140 141 138 140 141 140 140 138 138 
138 142 141 140 135 133 137 143 146 157 114 169 132 141 138 140 143 151 152 150 156 137 150 146 150 145 148 146 146 142 148 147 146 148 152 158 165 169 173 171 182 183 190 193 193 196 195 195 192 189 188 187 185 187 188 190 186 171 163 154 151 151 153 122 154 138 151 142 158 196 158 103 141 156 168 154 171 142 64 148 158 129 125 129 149 142 142 141 142 140 140 140 
142 142 137 141 136 142 140 141 144 133 114 159 132 148 143 144 141 151 153 147 154 135 151 150 146 144 146 147 144 151 147 150 151 150 154 154 171 171 175 179 184 188 188 193 195 196 195 193 192 190 188 188 188 192 190 185 175 167 158 154 153 154 148 143 152 146 149 145 161 189 160 103 137 155 153 153 177 154 66 154 141 135 132 122 149 150 142 143 142 142 142 141 
137 138 135 140 133 141 141 142 153 109 124 140 140 150 147 146 141 150 151 150 149 144 142 152 150 153 154 152 151 148 149 157 151 154 165 161 166 171 179 185 186 185 187 193 193 192 190 189 188 182 181 182 175 168 168 166 159 156 156 156 157 157 115 163 151 154 150 156 179 182 163 106 127 153 143 161 182 174 95 82 137 198 129 132 138 151 151 141 143 144 143 142 
