P2
92 112
255
119 154 130 72 118 131 143 116 153 150 29 73 113 111 116 116 117 117 116 116 115 115 116 117 117 117 116 116 116 117 118 118 115 117 117 117 115 116 116 116 115 115 115 116 113 114 115 114 114 115 113 113 113 113 112 112 113 112 113 113 111 112 112 111 112 111 110 111 112 111 110 110 110 110 109 110 108 108 108 108 108 109 108 108 108 108 107 107 108 107 107 107 
97 132 126 100 96 118 138 122 172 184 146 27 81 115 117 118 116 117 115 117 116 117 116 117 116 119 115 116 116 117 117 117 116 116 116 117 116 116 116 116 117 116 117 115 116 113 115 112 115 113 115 114 114 112 112 112 111 111 111 112 112 111 112 111 112 111 110 111 111 111 111 111 111 111 110 110 109 109 109 109 110 107 108 108 108 108 107 108 106 107 106 107 
104 103 132 143 88 121 130 152 179 196 195 28 33 114 117 117 116 116 115 117 116 115 117 117 117 118 116 118 116 115 116 116 116 116 116 117 116 116 116 116 115 116 113 115 113 115 113 113 113 113 113 114 113 113 113 113 113 111 111 112 112 112 111 111 111 112 112 111 110 110 111 110 110 110 109 110 108 109 109 108 108 109 108 109 107 107 108 107 107 108 106 108 
109 91 168 145 126 111 119 117 40 150 206 39 19 32 116 115 117 116 117 116 116 116 117 115 117 117 118 117 117 114 115 115 116 116 117 116 116 113 114 114 114 111 115 112 115 111 114 114 102 104 100 103 111 112 112 113 113 112 112 112 113 111 111 111 111 111 111 111 110 111 111 110 110 110 109 108 109 109 108 110 108 107 108 108 107 108 108 107 107 105 107 106 
159 159 181 165 134 100 125 89 21 31 114 84 13 21 116 117 115 114 115 115 116 116 115 115 117 117 115 119 116 116 117 116 116 115 115 116 100 103 99 108 109 110 108 114 113 113 113 73 26 15 42 65 82 99 101 111 109 110 111 112 111 111 111 111 110 111 110 110 109 111 109 109 109 109 108 110 108 109 108 108 108 107 108 107 107 108 108 107 106 106 105 106 
151 127 163 185 140 112 100 93 29 20 121 158 38 16 48 95 117 116 115 116 116 117 117 117 117 117 117 116 116 117 116 116 116 115 88 68 35 32 38 35 70 85 50 96 105 99 47 12 13 7 10 17 27 25 25 41 99 92 108 112 110 111 111 111 110 111 111 112 109 110 111 110 108 110 108 110 108 109 108 108 107 107 107 107 106 107 106 106 107 107 105 106 
91 73 151 183 172 163 128 99 75 99 128 142 90 30 45 42 111 115 115 115 116 115 116 116 115 116 115 117 115 114 113 99 15 4 29 21 9 18 23 32 26 33 39 32 43 35 37 32 33 21 32 21 29 25 16 24 10 25 35 34 46 57 92 103 101 111 109 110 108 109 109 109 109 109 110 109 110 109 108 109 109 109 108 109 107 109 108 108 108 107 108 105 
69 67 136 180 179 174 170 110 134 173 148 167 108 84 23 39 117 115 117 116 116 115 114 115 116 116 116 115 113 114 81 33 19 33 38 42 35 17 39 42 31 35 33 32 23 60 109 91 92 53 47 30 31 32 26 22 19 13 31 34 39 47 53 53 102 108 104 109 109 110 109 110 109 110 109 109 110 110 109 108 108 107 108 108 106 106 106 106 109 106 107 106 
63 52 62 97 139 174 200 154 165 189 150 156 207 204 82 103 115 115 116 117 117 115 117 116 114 110 112 59 61 63 45 78 91 107 112 114 134 137 119 127 85 69 101 93 91 98 128 165 168 166 162 155 145 116 131 95 79 47 16 12 15 34 53 14 27 29 36 68 48 94 110 111 111 109 108 108 109 109 108 108 108 109 107 108 106 106 106 106 106 107 107 107 
81 47 81 120 166 162 164 154 140 127 115 141 200 207 177 172 122 117 117 119 116 117 117 117 89 49 23 31 43 36 125 128 110 142 162 166 165 185 166 157 120 151 159 115 128 149 149 151 155 159 146 157 157 165 169 153 136 135 108 60 62 44 39 30 29 18 17 12 57 36 102 110 110 111 110 110 108 110 109 108 109 108 107 108 107 107 106 106 106 107 106 106 
97 69 97 168 186 89 80 132 127 89 89 108 175 182 191 151 118 116 117 119 118 118 115 118 28 35 26 51 91 92 116 143 164 177 165 173 166 164 157 166 180 168 160 167 165 170 166 164 164 156 161 154 165 162 167 173 173 151 153 127 135 129 87 73 50 43 63 23 5 18 35 108 111 111 110 110 111 111 109 110 109 109 108 107 108 109 108 108 108 108 109 108 
124 127 132 184 160 119 83 92 100 94 91 96 126 175 184 172 115 119 119 116 118 116 117 67 44 69 74 79 108 119 121 156 153 171 175 172 168 162 157 189 180 185 184 181 176 187 171 178 177 171 173 167 159 163 167 184 174 169 164 150 146 164 136 116 119 73 52 40 7 20 18 95 109 109 111 111 110 110 111 111 110 108 109 109 108 109 108 108 108 106 107 107 
128 128 120 158 123 119 122 124 138 139 133 132 129 127 120 120 118 118 118 120 98 35 61 91 129 137 148 174 171 166 167 149 151 116 111 135 125 120 115 131 148 149 148 160 176 161 135 131 128 129 128 129 123 116 148 159 161 208 156 158 168 152 147 164 157 185 139 111 52 61 32 11 49 83 105 111 110 111 111 109 110 110 109 109 108 107 108 107 107 108 107 108 
127 117 148 142 113 109 114 113 133 143 142 138 144 137 125 119 119 121 127 125 84 53 76 111 146 167 167 175 167 178 155 123 127 137 114 138 125 119 122 127 136 131 138 158 151 146 143 136 130 130 129 119 133 114 111 124 123 132 140 154 162 143 147 147 164 166 149 122 90 95 24 18 32 35 53 111 110 109 109 110 110 110 110 109 109 109 108 108 107 107 107 107 
121 117 162 127 108 111 111 111 128 141 142 140 139 134 124 121 119 122 120 86 60 86 98 110 172 175 173 171 168 178 171 127 121 130 131 134 127 126 126 137 129 133 135 137 142 139 144 147 136 128 136 132 127 117 110 116 124 127 124 136 143 138 141 150 159 165 152 182 98 89 70 0 18 20 44 111 110 110 111 110 110 110 110 110 109 109 109 109 108 107 107 107 
117 125 162 123 116 118 120 119 122 123 128 127 123 124 123 122 121 112 133 121 117 154 160 167 187 175 149 126 135 143 141 126 129 139 133 135 121 132 138 140 134 130 132 136 133 132 143 142 141 131 137 136 135 136 123 123 129 110 121 135 130 124 111 118 144 147 163 153 172 147 103 67 21 19 22 40 109 110 109 110 109 109 110 109 108 107 107 107 107 107 106 107 
124 123 155 124 119 119 120 120 119 118 119 124 121 125 121 122 121 90 119 113 125 187 168 174 172 141 127 122 145 133 132 142 134 129 135 133 129 137 134 143 133 135 134 129 129 130 139 141 132 131 136 136 136 129 131 128 131 122 137 164 138 126 125 109 147 159 146 156 162 176 152 95 65 45 27 16 63 94 109 109 110 108 108 109 109 107 107 105 107 106 106 107 
120 129 140 120 119 119 119 118 120 118 122 123 124 122 124 131 114 86 98 118 145 182 185 165 131 131 125 123 131 133 130 132 131 123 134 127 134 135 134 133 128 126 126 127 124 128 127 124 130 128 127 127 128 132 133 141 129 139 134 142 146 144 155 127 123 91 115 137 165 154 200 116 104 91 49 4 28 31 84 90 110 109 110 110 109 109 109 105 107 106 106 107 
119 145 130 119 120 119 119 119 120 117 120 122 124 124 127 139 147 130 114 126 170 164 152 130 129 132 124 129 141 136 136 129 127 122 125 127 137 134 132 137 129 134 126 131 127 128 127 125 127 125 126 124 126 131 142 137 133 132 148 129 135 132 126 124 120 100 113 125 178 147 153 145 109 82 80 9 35 52 60 75 91 108 109 110 107 110 108 107 105 107 106 106 
136 170 118 118 119 117 119 119 117 120 118 123 122 121 119 121 119 140 158 161 175 140 128 136 124 130 135 132 127 129 130 125 129 123 131 129 130 129 131 127 137 133 132 124 130 126 127 127 126 127 127 127 131 132 132 136 132 123 140 139 127 139 129 134 133 128 95 110 121 167 183 180 143 143 97 91 85 48 37 47 60 76 101 109 109 109 108 107 107 107 109 105 
118 168 119 118 120 118 118 120 119 117 120 122 119 112 104 133 99 174 174 178 170 129 133 133 126 136 139 129 130 130 129 125 126 126 129 127 130 125 125 125 127 131 130 125 132 130 129 125 126 127 127 130 126 125 129 136 135 142 127 134 137 148 131 135 146 143 133 129 154 170 174 173 163 157 127 112 88 68 36 42 43 59 91 109 109 109 107 107 108 108 106 106 
139 159 117 119 119 118 120 119 118 121 121 126 116 60 113 104 110 153 146 144 141 126 128 130 130 137 127 129 127 125 129 130 128 127 129 130 128 126 124 126 127 129 124 129 127 129 127 130 127 128 124 123 133 128 136 124 134 138 121 126 129 121 121 131 147 126 125 135 137 157 165 156 164 184 166 141 103 105 109 103 80 38 69 108 107 109 107 107 108 108 106 106 
160 152 117 118 119 119 118 120 119 120 119 139 140 70 117 116 119 137 133 136 128 126 129 127 131 132 138 128 125 126 129 127 123 130 129 130 128 125 123 126 129 129 129 127 126 125 127 131 127 129 125 128 130 128 127 131 126 127 128 124 124 118 124 133 128 141 130 123 141 163 156 159 171 194 182 140 94 123 95 113 114 19 40 107 109 108 108 107 107 107 107 106 
158 141 117 119 117 118 118 117 119 121 124 158 130 110 109 131 149 145 156 140 132 130 124 124 131 128 131 128 127 126 128 126 126 129 129 131 124 123 126 130 132 131 127 128 129 126 127 126 133 133 132 130 133 134 129 126 135 117 119 140 127 115 128 130 127 120 117 123 136 127 148 146 159 192 177 146 127 147 103 147 100 15 48 108 109 108 107 107 107 108 106 106 
178 127 119 119 118 117 118 117 118 121 122 157 189 219 130 137 166 164 149 143 130 133 140 132 129 127 124 124 127 130 129 129 128 127 131 130 132 128 135 129 132 132 131 130 128 128 129 129 130 137 143 142 137 127 130 126 133 138 137 142 131 133 153 135 125 122 118 123 129 133 114 141 137 137 144 112 179 181 97 83 103 62 41 101 109 109 107 108 107 108 108 108 
168 124 120 120 116 118 118 119 120 124 123 149 176 238 165 169 168 145 128 133 131 133 135 135 131 126 127 125 126 129 126 129 131 135 134 134 134 139 138 139 137 136 135 132 131 131 132 128 128 139 145 137 139 142 127 132 146 143 151 158 145 145 140 136 126 119 123 130 115 127 120 116 116 124 104 145 184 157 88 69 79 64 53 109 109 107 108 108 107 107 109 107 
143 119 117 118 118 117 118 118 121 126 130 123 169 182 164 159 151 131 127 128 124 132 130 129 129 131 124 129 128 130 135 133 139 139 143 143 147 146 144 142 142 143 143 135 141 135 127 124 131 137 141 136 134 129 124 130 145 155 173 156 159 152 147 142 148 129 120 128 127 122 126 124 129 126 128 152 155 123 91 52 105 98 127 110 107 108 108 109 108 108 107 108 
132 120 118 117 119 118 119 118 120 128 132 131 167 139 141 157 140 131 129 129 126 128 129 127 128 128 123 124 128 132 135 134 136 139 139 139 143 140 138 138 138 132 135 137 141 137 132 125 127 137 137 136 122 118 117 121 129 145 166 162 150 157 149 146 144 137 128 113 118 138 136 120 157 147 156 142 150 126 73 92 95 111 156 117 109 108 108 107 107 107 106 106 
122 119 119 117 117 118 119 118 118 126 135 168 155 132 161 137 129 126 125 127 126 125 125 128 127 125 126 124 123 128 134 130 135 131 132 130 131 130 127 128 125 127 125 127 133 135 131 127 126 130 127 131 127 121 116 109 103 111 111 131 141 143 151 154 154 147 147 157 123 104 123 153 129 119 133 142 139 135 102 104 93 140 144 110 108 109 107 107 107 106 106 107 
121 119 119 117 118 119 119 120 120 122 141 206 166 132 163 133 132 125 127 127 125 126 123 127 128 129 124 126 121 121 126 126 125 119 121 120 120 120 120 118 121 121 119 124 128 129 128 128 124 124 123 121 127 123 119 111 101 100 92 111 116 127 158 162 162 160 155 151 142 132 125 139 141 127 133 152 123 110 94 117 102 148 124 109 108 107 109 107 108 110 109 108 
119 120 116 118 119 118 120 120 120 122 128 223 190 171 139 128 127 127 126 128 124 122 124 128 129 129 123 123 123 115 111 111 111 108 106 111 116 115 114 112 115 114 113 118 116 112 120 119 118 122 126 124 137 135 128 126 126 120 121 98 108 131 155 158 166 174 167 163 165 160 143 150 131 141 123 123 95 84 79 97 95 138 110 107 110 109 108 107 108 109 108 108 
120 119 117 118 118 119 119 120 119 123 126 225 186 167 137 127 128 124 126 125 125 123 122 128 128 128 125 120 116 115 107 105 108 104 106 106 114 112 113 113 111 109 109 111 108 109 109 111 114 117 123 121 124 119 122 124 118 121 115 123 122 133 147 157 149 159 166 164 173 163 139 134 97 136 106 115 86 63 76 95 85 129 109 108 109 108 109 107 108 107 109 107 
119 120 118 119 118 118 121 121 118 119 123 202 225 163 127 127 130 123 126 125 122 118 123 126 123 124 122 114 111 108 110 107 110 110 112 111 112 110 113 112 112 113 112 110 109 111 110 114 114 116 111 110 113 114 113 107 112 119 111 108 110 127 127 121 132 142 148 165 165 155 171 142 139 153 115 118 100 59 86 100 83 115 108 108 109 108 109 108 108 108 108 106 
120 120 118 117 117 117 120 122 117 119 127 212 237 161 126 130 131 124 125 123 120 124 124 121 121 122 118 113 111 111 111 110 111 118 114 113 113 118 116 116 112 111 111 114 113 111 112 112 118 120 120 117 106 109 110 108 111 116 111 104 101 107 112 112 117 125 138 161 159 175 155 151 138 126 123 117 106 71 103 111 88 110 106 109 109 111 109 109 108 109 107 108 
120 119 119 117 116 119 120 120 119 121 123 210 248 188 127 128 137 127 126 125 118 121 123 124 120 119 117 117 114 113 116 115 114 118 119 119 116 119 118 117 115 113 112 113 114 114 114 113 116 118 119 117 111 107 108 109 113 119 113 102 92 98 98 105 106 118 137 156 172 191 197 162 137 133 128 110 94 79 105 101 94 108 108 109 109 109 108 108 109 108 107 107 
120 119 120 117 121 120 121 121 121 120 121 194 236 251 133 129 130 127 125 123 118 115 117 117 123 119 118 121 118 119 118 124 123 124 125 129 122 123 125 123 123 120 118 117 115 119 117 118 115 117 118 119 118 118 116 114 109 107 105 106 102 97 98 97 101 106 111 117 160 171 180 183 161 139 122 123 111 68 119 100 100 114 109 109 108 109 108 107 106 107 108 106 
120 119 119 119 120 122 121 121 121 122 121 173 222 252 136 131 131 126 124 124 118 113 118 122 123 125 120 121 121 120 124 123 122 127 126 128 126 124 125 125 123 122 120 124 122 123 120 117 115 119 119 120 116 116 113 112 109 105 108 108 111 108 105 101 101 106 107 110 139 154 168 178 165 155 131 119 110 79 122 105 92 115 109 110 109 108 107 108 108 107 108 107 
120 119 117 118 121 121 122 120 120 122 122 128 202 242 130 129 126 125 125 119 115 118 118 121 123 128 127 118 120 124 121 129 124 127 128 128 128 128 128 128 127 126 125 129 129 126 125 124 122 120 119 121 121 119 120 115 112 118 120 126 128 127 126 122 115 108 109 107 122 135 152 153 158 148 127 131 132 100 105 110 122 113 114 109 108 110 110 108 107 109 107 108 
119 119 118 118 121 119 120 121 119 121 121 124 197 226 131 131 127 124 121 117 111 122 119 123 127 128 126 126 123 122 124 126 123 127 129 128 128 128 127 128 127 126 128 130 129 127 124 125 126 120 119 117 123 122 119 115 116 122 124 127 128 131 127 126 121 110 109 111 118 130 142 155 147 143 139 128 121 101 96 98 157 109 111 109 108 108 108 108 107 108 108 107 
119 118 119 121 119 120 121 122 122 121 119 122 194 207 132 133 128 121 115 121 122 124 126 125 127 129 123 123 124 124 122 123 121 123 124 126 126 124 122 121 125 127 129 130 128 127 127 128 127 123 124 121 120 120 118 117 115 115 118 130 130 130 131 128 127 122 120 110 114 120 128 143 150 153 147 118 81 107 105 107 168 110 110 109 109 109 108 109 108 108 106 106 
118 118 118 120 121 121 120 121 123 122 119 123 191 204 136 131 129 118 118 123 128 124 122 123 127 128 124 127 126 124 116 121 119 119 121 125 122 122 123 122 124 125 126 127 128 128 127 129 130 127 126 123 122 119 119 116 116 114 114 121 130 129 132 129 130 125 123 120 113 116 123 147 148 156 160 106 70 97 102 109 165 110 110 110 109 108 108 109 107 107 107 108 
119 119 119 120 122 121 120 122 121 122 122 123 161 204 151 131 129 120 126 124 123 118 124 124 128 133 133 123 121 127 127 120 120 117 121 123 122 122 122 122 120 122 121 127 127 130 128 129 127 130 130 129 124 123 123 125 114 109 109 113 120 126 128 131 132 133 130 130 119 116 115 144 152 163 161 86 72 103 89 150 122 111 110 108 108 108 109 108 108 109 108 108 
120 119 120 121 122 120 119 121 121 119 121 124 140 200 205 132 125 123 128 127 120 123 121 129 131 137 134 129 123 125 130 119 120 123 120 121 126 123 122 122 121 124 122 125 128 132 127 127 125 129 130 130 127 124 124 125 127 119 114 115 117 113 128 128 132 130 128 127 121 116 112 137 150 157 153 83 89 103 90 167 120 110 109 108 109 109 109 108 107 107 109 106 
120 119 119 122 123 120 119 121 121 121 120 126 125 197 238 136 129 132 130 121 122 125 134 131 136 131 122 126 127 130 128 124 124 127 124 124 128 126 126 121 120 121 124 126 129 135 126 123 124 125 128 131 131 133 129 127 130 127 124 114 118 110 123 129 133 132 123 122 118 113 112 137 147 159 157 112 99 103 124 164 121 111 109 108 110 107 109 108 108 109 108 109 
118 117 122 122 123 122 121 122 124 118 121 122 120 161 234 222 119 136 129 124 134 125 128 123 120 123 119 117 118 114 123 119 118 130 123 127 131 128 133 116 121 125 129 132 134 134 122 122 125 127 128 134 143 137 134 135 147 156 147 132 123 133 119 123 114 110 110 112 87 94 85 122 151 142 140 145 95 105 162 143 113 110 109 109 109 109 109 107 107 108 108 110 
117 118 123 122 121 121 121 122 121 121 120 121 120 127 227 238 128 139 126 137 141 124 120 123 119 116 115 115 117 116 116 121 118 129 129 127 127 131 127 117 124 128 133 130 132 135 127 127 127 132 138 138 140 145 150 148 156 172 163 130 127 132 125 122 109 104 109 104 82 72 71 94 150 129 128 150 97 108 175 119 113 109 111 111 109 109 109 108 108 109 108 110 
116 119 122 122 121 121 122 123 121 120 120 120 122 122 188 229 204 131 136 129 128 129 131 130 128 127 130 135 138 138 135 139 138 133 131 137 129 121 122 127 129 127 132 133 130 132 134 136 139 148 145 151 147 149 142 145 151 143 141 127 128 124 112 111 113 97 112 124 123 108 71 46 89 96 95 152 116 107 144 110 110 110 109 110 109 109 110 109 108 109 108 108 
118 120 123 121 119 122 123 123 123 122 120 122 120 119 185 205 208 140 127 132 130 135 136 136 134 137 139 146 143 141 144 145 143 140 141 137 138 133 124 127 130 131 132 127 126 129 134 138 146 159 156 143 150 133 133 140 143 141 143 142 142 130 135 122 134 122 129 130 136 126 109 43 72 79 69 148 112 136 138 110 111 110 110 109 110 110 110 108 109 108 109 108 
120 121 121 118 121 123 123 124 122 121 122 123 122 123 146 165 198 138 143 142 141 141 141 143 138 141 139 143 142 145 140 146 147 140 143 143 143 143 139 136 126 130 127 125 127 127 138 146 151 149 145 144 143 143 146 150 150 144 145 150 154 148 149 148 147 150 165 170 166 155 138 93 89 68 69 129 125 122 110 110 109 109 110 110 110 110 110 110 110 108 109 109 
120 121 122 122 121 122 123 122 122 120 122 122 120 125 140 164 169 143 151 147 143 140 140 138 137 137 137 143 141 139 141 145 144 141 142 142 144 142 141 137 129 129 126 126 124 132 136 144 153 148 148 154 149 144 153 153 150 146 151 154 150 158 159 161 162 172 168 170 163 157 143 114 106 118 100 127 124 138 109 110 111 110 110 108 111 110 110 110 108 108 108 108 
121 122 121 121 120 123 123 123 124 123 122 122 121 122 150 178 163 142 143 146 141 132 133 132 130 131 130 127 130 129 134 136 136 138 135 137 139 136 136 136 130 128 126 118 113 112 138 139 143 159 163 165 165 162 164 159 157 151 145 130 135 142 144 143 139 137 136 147 150 167 165 141 113 154 130 128 123 106 104 111 112 110 112 110 108 108 109 109 109 109 108 108 
121 121 121 121 122 123 124 123 123 122 123 122 122 120 152 179 142 141 141 141 139 129 131 128 126 122 122 123 120 124 121 122 131 128 128 133 131 135 128 126 132 128 122 111 107 111 132 145 152 171 174 171 155 153 149 148 149 147 136 132 128 127 122 118 115 111 107 107 132 141 159 145 122 171 154 126 126 95 88 110 112 111 111 111 110 110 111 110 110 109 109 110 
120 120 121 122 124 123 122 121 122 123 122 122 121 121 187 175 148 141 142 139 134 128 128 129 121 117 115 117 119 118 122 124 121 125 123 125 124 127 124 118 124 125 118 109 107 111 134 148 158 176 173 164 144 143 140 139 137 125 122 115 110 108 111 102 78 71 83 89 110 114 132 143 125 180 170 126 127 88 78 109 111 111 111 112 110 111 111 110 110 111 109 109 
121 122 123 124 123 122 122 122 122 122 122 122 120 121 189 177 117 144 140 140 135 127 122 120 128 120 116 112 109 105 107 108 109 114 121 121 127 128 123 121 105 107 108 116 120 117 139 144 161 180 158 132 126 116 114 117 117 119 107 80 66 57 66 65 67 107 122 131 75 73 82 119 119 163 183 122 128 102 55 110 111 111 111 112 111 111 110 110 110 109 110 109 
122 120 123 121 122 123 122 121 122 124 122 122 121 119 189 156 117 146 140 141 136 125 124 121 117 120 117 128 123 122 127 128 115 123 130 129 125 128 125 122 96 102 111 119 123 122 126 142 152 176 158 128 130 127 124 123 129 131 115 103 103 97 85 85 88 104 96 98 84 96 94 115 119 159 177 122 128 108 63 110 110 112 111 111 111 111 111 111 109 109 109 109 
121 123 123 123 122 124 123 122 123 124 121 121 121 120 189 118 133 143 140 140 136 139 138 134 139 131 121 161 143 133 128 128 122 135 150 143 136 126 128 118 100 110 112 106 106 112 115 120 131 150 183 163 136 129 124 120 147 159 136 134 122 90 102 113 157 164 117 139 129 135 127 132 128 122 169 119 128 126 112 110 111 111 111 111 109 111 111 111 111 110 109 109 
123 124 123 123 122 124 123 123 123 122 121 122 121 122 181 102 122 145 138 137 136 141 140 140 138 138 131 143 160 144 131 129 122 146 139 131 126 123 123 112 110 111 108 105 106 106 103 113 121 146 178 180 138 132 130 125 134 149 157 135 125 103 90 145 163 136 146 106 148 151 156 142 132 114 170 116 128 128 147 112 112 111 112 111 110 111 111 111 111 111 110 110 
121 122 123 122 124 122 122 124 123 122 122 121 120 127 169 125 145 136 137 134 134 136 132 134 133 136 136 119 130 131 137 138 138 132 118 122 122 122 117 112 118 107 103 100 107 107 114 117 119 120 126 163 159 152 134 124 120 119 130 138 156 158 127 128 108 110 137 143 144 146 142 136 130 104 160 116 127 132 163 111 112 112 112 112 111 111 111 111 111 111 109 110 
122 123 124 124 124 122 122 123 123 123 123 123 123 127 167 155 139 138 137 132 131 133 134 131 129 131 132 117 124 128 130 133 127 119 118 120 120 118 115 117 114 109 96 106 108 110 125 122 121 113 105 134 165 148 145 137 118 111 124 131 143 153 135 127 109 98 123 120 136 135 127 132 126 105 163 116 127 125 159 112 113 112 112 113 111 111 111 110 111 111 109 111 
122 123 122 124 124 122 122 124 123 122 121 122 122 128 179 161 133 134 133 133 133 131 132 131 122 122 125 126 129 121 124 122 121 123 135 129 121 118 122 123 111 101 99 112 114 113 126 127 125 115 94 101 123 134 153 143 122 127 117 113 113 116 127 105 101 109 120 126 128 126 126 129 125 119 161 116 123 115 132 111 111 112 111 111 111 110 111 111 112 111 110 110 
122 124 125 123 123 122 123 123 122 123 120 121 122 126 177 157 135 136 131 130 128 130 130 131 125 125 129 129 136 134 121 123 118 127 130 126 124 123 123 118 106 104 111 112 115 115 125 126 126 122 103 95 110 120 142 147 119 116 115 114 113 122 133 116 124 128 128 129 125 129 131 130 127 126 157 116 122 117 117 111 112 111 112 112 109 110 111 110 111 111 109 109 
124 123 124 122 125 122 121 122 122 122 123 120 120 130 160 159 143 136 132 130 131 129 131 128 126 128 127 127 127 131 127 124 127 129 127 124 128 127 122 119 114 108 112 111 112 115 124 127 124 126 115 99 94 110 122 129 129 122 119 116 126 134 149 149 141 128 135 133 136 135 136 135 132 125 153 117 119 122 95 111 112 112 112 112 111 111 111 110 111 111 110 111 
124 122 124 125 122 121 123 122 122 123 121 122 126 138 170 149 143 137 129 127 126 126 125 127 127 124 128 127 128 129 129 128 123 127 126 129 129 127 120 119 123 120 113 107 113 113 127 129 128 127 129 121 99 90 97 112 122 128 135 135 137 135 130 129 127 122 117 120 127 132 131 128 126 120 139 121 116 122 71 111 113 114 112 112 110 111 111 111 110 109 110 110 
124 123 123 123 124 122 123 122 122 122 121 121 123 141 178 148 149 135 131 133 131 125 127 132 129 128 127 131 129 130 128 131 130 128 126 128 130 124 125 120 123 122 111 106 113 113 121 127 129 128 132 129 102 97 97 101 115 122 119 129 127 122 119 119 118 117 116 116 129 135 133 126 125 118 133 122 115 120 87 112 113 112 113 112 111 111 111 110 111 111 111 110 
122 124 122 125 122 123 123 123 123 122 123 122 125 143 158 128 142 134 133 129 131 122 120 125 124 122 123 127 129 131 137 133 131 131 131 127 128 127 124 125 128 119 114 110 118 119 112 131 128 131 136 133 124 113 107 105 112 114 117 128 132 135 133 132 131 124 124 120 119 118 119 115 120 119 119 119 116 122 101 118 112 111 113 113 112 111 111 110 109 109 110 111 
123 123 123 125 122 123 122 123 123 122 122 122 120 134 196 135 142 132 131 132 128 119 118 117 121 122 123 127 129 130 131 131 129 129 128 129 129 125 122 124 126 113 113 113 119 116 111 130 127 135 130 131 123 120 113 108 107 110 111 128 133 137 140 138 139 136 130 126 120 113 115 116 119 119 117 119 116 121 107 118 112 112 112 112 113 111 111 111 110 108 111 111 
122 122 122 122 123 122 122 123 122 122 121 124 121 129 196 144 142 135 132 134 130 121 121 121 127 129 129 130 131 132 129 128 129 131 132 128 119 127 130 132 125 121 120 112 118 118 119 135 137 132 133 125 121 125 133 125 119 118 113 112 116 120 124 127 131 135 139 138 131 125 121 124 124 126 116 116 116 118 121 126 112 113 113 111 113 112 111 111 111 111 111 111 
123 123 122 124 123 123 122 123 122 123 121 121 120 132 185 138 139 134 132 134 127 121 122 122 127 130 134 133 132 138 133 133 133 135 134 128 129 133 137 132 128 132 125 111 115 120 126 138 135 142 144 132 130 133 144 141 117 121 122 116 113 113 118 122 125 135 139 138 132 129 128 125 126 128 118 116 116 119 147 123 112 112 112 112 111 111 111 111 113 113 111 111 
124 123 125 125 122 123 122 122 122 122 120 122 121 136 200 130 142 136 130 133 129 127 124 121 128 127 129 134 136 139 137 138 135 138 131 130 144 143 138 138 136 135 133 127 122 131 132 129 134 142 155 164 146 138 137 154 124 119 118 118 117 116 117 117 118 121 125 126 131 129 128 127 129 126 121 113 114 120 154 120 112 113 112 112 112 112 111 111 112 114 112 111 
123 124 125 124 125 122 122 121 121 121 121 120 122 143 202 138 146 132 133 130 131 121 121 123 128 127 129 135 135 138 136 138 134 135 133 131 143 141 134 132 131 128 128 130 127 132 125 117 120 177 190 191 145 125 122 133 135 120 119 120 119 117 122 122 121 121 122 123 124 127 131 127 128 126 124 115 115 123 160 117 113 113 114 113 111 112 110 111 111 113 111 112 
123 124 123 122 123 122 121 121 123 122 121 121 122 136 191 121 144 130 133 131 133 126 125 124 126 127 132 135 136 137 135 136 133 133 134 138 145 141 141 146 135 128 125 129 128 128 128 121 152 183 179 172 135 102 90 112 143 125 120 121 119 117 123 125 126 123 124 122 126 126 128 130 131 124 133 114 116 122 160 112 113 113 113 112 112 111 111 111 111 111 112 113 
122 123 123 123 123 123 123 121 121 122 121 121 121 134 205 131 140 134 130 130 133 125 127 125 129 131 132 135 134 135 134 132 134 134 135 141 126 124 120 113 126 139 138 121 119 121 124 132 127 139 132 70 44 46 60 78 146 141 129 123 121 125 125 128 126 121 120 120 123 124 127 130 133 120 143 114 116 105 155 113 113 113 112 114 112 112 112 112 111 112 111 112 
123 124 123 125 122 121 120 122 122 123 122 119 122 136 202 157 137 131 130 130 129 128 126 126 129 129 133 133 129 133 133 133 133 135 135 133 129 126 128 123 112 112 126 131 123 116 117 115 120 96 76 79 74 64 71 87 135 149 135 125 126 126 127 125 125 121 119 120 121 123 125 130 135 120 155 113 116 106 154 113 114 114 113 114 112 112 112 111 111 112 113 111 
124 122 124 122 121 121 121 122 122 124 122 121 121 127 212 188 126 128 131 131 131 131 130 127 128 125 127 132 132 131 133 137 136 135 133 133 136 133 132 131 136 125 118 126 135 135 110 117 121 144 141 137 141 141 158 147 125 134 144 126 124 126 126 127 126 124 123 122 124 125 124 130 130 122 158 115 114 71 142 115 114 113 113 113 112 112 112 112 113 112 112 113 
123 124 122 122 121 122 122 123 122 121 122 121 122 124 214 198 133 130 131 129 129 133 129 125 125 125 128 133 133 131 133 139 138 138 134 136 139 141 143 139 130 120 120 124 128 134 124 119 137 135 137 151 145 157 164 150 119 130 140 130 126 121 128 125 126 125 124 125 121 124 125 131 128 125 152 117 113 72 139 115 115 114 113 114 113 112 112 113 112 112 111 113 
124 125 122 122 122 121 123 122 122 121 120 120 121 121 206 213 149 137 131 132 128 132 129 129 127 130 128 135 132 136 137 141 140 139 140 143 146 140 140 139 120 112 112 128 135 132 127 144 151 172 163 159 145 156 168 156 129 126 134 139 135 130 124 127 125 128 127 127 125 128 127 133 122 144 131 111 100 80 129 115 116 115 115 113 112 113 113 114 113 111 112 112 
122 123 122 122 120 123 123 123 122 121 121 120 121 122 185 223 167 133 135 130 129 132 132 124 132 128 131 138 139 143 138 143 145 143 145 144 141 139 139 129 106 99 89 127 144 134 111 116 133 131 129 130 159 180 163 157 143 136 138 149 138 132 125 127 128 129 127 126 124 126 127 133 125 150 134 108 86 98 116 114 116 115 114 114 114 113 113 113 112 113 112 112 
124 125 123 125 122 122 122 121 122 122 122 121 120 120 159 217 216 125 136 127 126 131 128 130 129 133 132 139 143 142 134 133 136 127 126 130 122 125 120 115 108 92 88 131 154 148 111 105 119 120 116 118 130 121 142 151 145 153 152 146 129 116 131 127 128 127 128 128 127 127 129 127 139 138 113 89 69 138 115 114 114 114 114 114 113 114 114 114 114 114 112 113 
124 123 124 123 121 123 122 123 123 122 123 120 119 120 149 223 214 128 133 133 130 131 132 129 130 132 130 142 143 138 133 127 127 128 121 120 127 123 121 111 93 86 91 141 141 130 105 96 118 118 111 101 110 105 137 131 144 145 122 135 133 127 126 127 126 128 127 129 129 130 134 127 145 132 108 93 93 162 117 115 114 115 114 114 114 113 113 115 115 115 114 113 
124 124 123 122 122 123 122 122 123 124 121 121 119 120 129 205 226 121 135 135 128 128 133 132 129 132 135 144 141 132 126 122 122 121 120 121 125 118 114 115 111 97 110 138 127 113 96 96 125 127 122 110 105 127 136 127 138 120 126 121 121 119 115 124 127 127 127 128 130 129 136 119 145 124 106 76 107 177 116 113 115 114 114 115 113 113 114 114 113 115 115 116 
124 123 122 123 123 122 122 123 124 124 122 121 120 124 122 144 221 164 122 134 128 127 132 128 133 130 142 139 135 124 123 125 124 119 120 118 124 126 128 127 144 156 167 162 142 147 156 154 158 172 140 136 124 126 129 128 121 130 122 113 111 110 97 108 129 129 129 129 132 136 130 140 131 107 110 79 157 167 115 113 115 116 115 115 114 115 115 115 114 115 116 115 
122 121 123 123 122 122 123 122 122 123 122 122 122 122 125 131 219 175 126 136 129 128 130 130 131 134 143 137 126 122 124 125 122 118 116 123 131 129 131 135 140 135 130 157 149 158 174 171 161 149 170 155 148 128 148 147 132 135 127 101 104 105 91 104 124 128 129 130 135 135 125 142 125 109 103 103 166 158 114 115 116 115 115 115 115 115 115 116 114 113 112 114 
123 122 122 123 122 123 122 121 122 123 123 122 121 123 124 122 154 210 166 134 138 128 128 129 131 133 135 125 118 122 129 131 132 135 140 137 136 134 129 127 123 121 118 109 111 115 144 134 131 127 132 134 157 164 167 173 148 140 128 110 121 124 114 84 91 130 129 136 145 128 122 126 108 110 95 155 169 124 115 116 116 116 117 117 117 116 117 116 113 114 113 116 
122 122 121 123 118 122 121 122 124 121 123 121 122 123 123 126 133 204 202 135 123 127 123 131 131 135 132 126 125 130 131 130 127 128 127 130 122 121 123 119 127 125 119 115 118 127 130 126 101 93 101 105 104 117 135 158 162 147 140 119 122 127 115 101 111 126 132 136 135 127 135 106 106 103 78 161 162 125 113 115 115 116 117 116 117 117 116 115 115 115 115 116 
122 121 121 121 123 123 118 120 123 122 122 123 123 123 124 122 121 217 207 200 130 139 132 122 129 133 134 136 127 129 127 125 119 115 114 117 119 119 111 102 95 93 79 75 80 90 85 77 69 76 83 83 83 78 67 66 93 104 106 102 110 125 131 117 134 130 133 139 120 132 137 110 95 74 109 175 133 117 114 114 114 116 115 116 115 115 116 115 113 114 114 115 
121 121 123 121 124 122 123 120 116 115 117 122 122 122 123 123 122 219 214 220 145 135 137 130 133 131 133 143 128 130 127 127 123 126 127 129 127 129 122 116 109 108 98 97 82 82 104 89 123 142 144 144 137 130 116 111 92 92 97 111 121 124 138 133 135 136 136 139 119 138 131 104 81 72 154 175 121 116 114 116 114 117 116 116 116 116 116 115 114 114 115 115 
123 123 123 121 123 122 122 122 124 121 124 124 124 122 121 122 122 151 212 203 194 122 129 134 129 135 136 140 133 127 130 127 124 116 116 116 118 117 122 133 140 157 152 162 166 155 158 140 143 143 139 136 129 122 120 120 129 126 133 132 121 133 134 148 142 143 137 132 134 126 106 95 108 155 159 135 117 116 116 116 116 116 114 115 115 115 115 113 113 113 115 115 
124 126 124 123 124 122 127 126 124 122 124 121 122 122 120 122 121 141 214 201 197 132 127 128 130 133 136 135 132 131 124 127 128 131 130 133 132 131 127 125 149 139 140 149 145 139 148 129 141 163 148 142 131 130 127 123 120 124 143 147 138 136 141 137 147 140 132 127 138 105 101 98 134 161 179 121 116 116 115 114 116 116 115 116 114 115 114 113 113 114 114 116 
122 120 119 121 119 120 122 123 126 127 129 127 127 126 125 122 123 124 143 217 216 175 126 126 131 135 133 139 136 132 127 129 135 136 130 130 135 137 136 142 150 155 154 159 163 175 160 171 168 160 151 143 138 147 155 156 165 168 167 162 155 147 140 139 145 129 126 129 123 111 83 121 161 179 173 120 116 116 114 115 116 117 114 115 114 113 114 114 114 115 114 115 
122 123 123 123 123 123 122 121 121 122 120 122 120 123 125 124 125 127 127 183 207 207 145 129 129 126 130 137 132 134 131 128 133 132 133 132 133 129 136 137 145 149 153 155 153 157 149 150 149 139 135 129 130 139 140 148 158 166 162 170 156 156 140 134 128 130 128 119 113 97 90 145 163 187 150 116 116 116 116 116 116 116 116 114 113 114 114 114 114 114 115 112 
123 123 122 123 122 124 123 123 123 124 124 124 123 124 123 124 121 121 120 164 188 213 148 130 124 126 127 138 132 130 132 130 132 134 132 132 130 131 127 126 135 130 133 138 134 135 139 138 138 143 127 127 129 140 142 147 149 157 155 157 161 159 145 142 129 127 121 115 89 81 78 156 173 171 136 116 116 116 116 116 117 114 115 116 115 115 113 116 113 114 115 116 
122 122 122 122 123 123 124 124 122 122 123 122 122 122 125 124 121 124 125 140 173 214 226 170 121 123 124 130 127 127 122 124 123 131 130 131 133 130 128 122 112 104 100 94 101 102 80 95 97 85 99 110 123 129 139 145 150 142 143 134 145 133 145 133 127 122 85 86 80 99 172 181 173 128 118 116 116 115 115 116 115 115 116 115 115 114 114 114 115 114 116 116 
122 122 120 123 123 124 123 123 122 121 121 121 124 123 124 124 125 124 124 130 176 221 224 208 120 124 116 124 125 122 123 122 122 130 130 127 131 126 128 120 109 107 105 101 101 98 87 86 92 94 99 109 122 129 140 141 141 131 128 124 127 141 134 135 136 99 98 85 83 125 167 184 159 117 117 117 116 116 116 115 116 116 116 115 116 114 113 115 114 117 116 114 
123 122 122 122 123 123 123 123 122 123 123 122 122 123 123 124 126 129 130 136 179 255 134 118 124 122 117 120 123 118 121 119 118 120 126 124 126 122 119 119 108 114 107 96 96 88 92 96 98 96 95 111 114 131 135 138 115 120 111 121 117 123 117 108 111 77 72 78 158 182 182 167 135 119 118 116 116 117 117 117 115 115 115 116 114 115 114 116 115 114 115 115 
122 121 122 122 122 123 123 123 124 123 123 124 124 124 129 135 133 132 115 179 177 168 124 101 128 124 121 123 121 121 121 120 118 121 124 125 129 125 126 124 122 118 117 111 112 113 113 121 120 114 118 123 138 139 142 141 120 113 101 113 114 114 113 107 107 85 80 85 172 183 184 162 125 121 118 116 117 116 117 117 118 114 114 116 115 113 115 116 115 115 115 115 
121 122 123 122 123 122 123 122 122 123 123 130 130 130 163 126 99 85 121 122 78 56 102 138 138 139 126 123 123 122 122 120 119 122 124 125 122 126 129 127 133 135 132 134 143 136 156 148 148 153 165 172 156 142 134 128 108 110 110 106 115 111 102 104 97 111 119 157 134 95 106 120 122 119 119 116 119 117 117 117 117 116 116 115 116 116 116 116 114 115 116 116 
122 121 122 124 124 122 122 123 124 124 125 133 158 125 125 108 117 99 109 102 73 59 89 149 137 138 133 124 125 123 120 120 122 122 121 126 124 129 130 126 135 136 136 139 135 151 144 147 146 165 171 174 160 149 132 124 111 107 119 111 111 107 104 94 92 117 159 145 162 73 63 97 98 119 118 119 118 119 116 117 116 117 117 116 116 114 116 116 116 117 115 115 
122 123 126 125 128 121 115 110 104 123 125 119 120 111 52 68 63 91 91 85 72 105 122 140 133 139 133 139 126 122 123 121 123 119 124 126 126 122 123 129 130 127 128 143 153 144 142 144 139 161 167 162 139 139 127 130 124 123 126 107 115 108 87 98 124 125 228 206 157 115 80 84 106 90 98 95 109 117 117 116 116 116 116 117 116 116 116 116 117 115 115 115 
111 111 96 92 85 82 83 81 106 126 122 104 88 95 65 82 59 88 93 80 81 120 129 127 135 137 128 136 132 123 122 123 122 123 123 125 124 121 127 125 125 122 127 141 142 131 115 133 139 150 145 149 138 124 121 123 129 116 126 113 110 101 105 118 156 148 151 230 140 85 117 58 97 101 93 101 55 111 114 115 117 117 118 118 116 115 114 117 116 118 116 117 
89 89 84 85 89 99 103 104 106 112 103 74 80 101 78 67 80 116 116 122 113 121 125 128 137 135 134 134 137 130 122 124 122 123 126 124 121 122 121 125 122 127 134 139 130 124 124 129 134 139 139 130 135 124 126 118 128 118 114 111 100 92 121 159 166 167 159 173 148 66 114 22 86 107 106 98 88 84 93 94 110 117 117 117 116 116 116 114 117 116 117 117 
111 111 111 112 112 103 99 96 95 100 89 84 109 104 124 118 141 137 136 132 127 125 118 127 130 136 139 133 129 130 127 123 124 123 124 125 123 124 122 127 122 128 135 125 122 117 124 128 128 123 122 108 120 114 108 115 109 121 118 115 120 125 145 161 170 163 174 127 188 127 123 86 23 118 100 95 117 68 104 102 108 104 119 119 116 118 118 118 119 120 118 118 
110 105 101 96 98 96 95 92 96 97 94 130 145 113 117 131 129 134 135 130 134 124 117 124 134 137 137 136 133 133 131 128 122 124 123 123 123 123 130 124 119 130 128 121 116 114 120 123 117 117 115 107 106 106 102 111 111 117 101 111 116 117 165 169 165 163 171 132 146 189 174 113 1 96 99 100 99 125 114 99 101 96 99 103 112 117 118 120 119 120 119 120 
93 94 93 94 95 97 101 115 121 123 114 146 140 124 118 140 127 136 130 133 114 128 118 128 127 129 130 134 132 135 133 130 129 121 124 119 123 124 118 122 118 124 121 115 117 118 118 111 115 105 107 100 104 111 115 104 78 82 89 125 145 177 168 173 165 127 145 124 102 149 202 138 98 5 119 126 127 102 22 118 106 102 94 102 97 95 93 91 91 92 93 94 
102 108 116 119 122 123 124 131 130 122 123 148 126 121 114 139 125 134 136 132 121 125 117 122 128 128 130 129 138 135 135 130 129 126 120 120 122 122 121 119 117 117 120 114 115 112 113 110 118 101 99 99 106 105 101 91 76 90 100 156 160 175 175 169 150 125 151 123 87 143 191 171 124 42 90 127 114 122 62 97 103 107 95 105 108 107 106 107 105 105 103 100 
126 127 126 128 133 129 134 139 128 122 119 142 109 134 143 130 124 137 140 134 126 129 122 126 124 129 126 129 130 133 135 133 132 126 128 120 123 121 118 119 118 114 112 117 115 114 111 114 105 106 101 102 89 92 89 91 122 154 159 170 170 166 156 139 130 129 150 125 57 119 159 143 174 91 62 168 128 121 127 58 133 132 98 97 108 110 107 106 103 104 103 104 
131 125 127 128 130 131 136 137 121 118 122 137 124 122 143 124 127 138 141 131 126 133 119 126 127 127 125 130 129 131 131 134 135 129 130 127 120 122 117 117 115 116 111 113 114 110 106 107 102 97 91 83 86 84 91 110 146 164 165 166 163 163 155 141 131 135 144 127 71 111 150 142 161 121 77 128 169 113 134 94 93 123 114 100 108 108 109 103 105 104 104 104 
131 128 127 130 130 138 141 131 126 128 132 117 142 110 131 129 131 143 132 122 131 133 127 121 130 128 125 132 129 127 128 132 131 133 129 134 129 126 125 118 115 119 117 113 115 123 113 115 110 109 105 108 137 150 158 165 168 164 168 165 164 145 128 126 122 153 129 121 124 103 124 162 132 150 97 98 141 169 157 146 75 118 129 119 117 123 122 112 109 106 104 104 
132 126 130 134 131 137 134 125 126 125 147 120 134 106 129 130 132 139 132 122 130 135 129 119 132 134 128 129 127 129 125 128 130 135 133 137 134 131 133 125 126 124 124 124 118 122 124 122 120 134 131 143 157 167 163 165 164 162 165 159 153 132 129 125 120 161 125 122 127 110 120 175 135 142 118 92 120 178 123 173 91 132 119 132 113 119 122 123 123 123 121 114 
127 133 129 130 131 139 129 131 126 124 145 129 121 101 130 130 135 142 132 123 127 133 132 123 128 135 128 126 125 124 126 128 127 131 137 136 133 132 129 130 129 127 127 127 125 121 127 128 128 141 145 158 159 162 165 165 164 162 162 148 139 130 130 124 117 162 127 120 128 114 119 177 139 134 123 98 113 155 118 168 125 142 111 135 116 114 125 122 124 124 124 126 
131 129 125 128 129 136 127 132 127 122 147 131 110 117 133 130 130 150 130 123 133 138 133 122 131 133 129 132 129 125 126 131 128 127 126 137 133 132 131 133 132 135 127 122 123 128 137 136 141 154 157 160 162 162 164 163 160 147 138 131 131 130 125 121 128 154 130 85 127 125 112 185 152 130 107 132 91 123 147 115 174 82 134 125 125 113 112 125 123 127 124 126 
134 129 127 128 134 129 128 129 129 134 141 127 105 134 136 128 135 143 132 127 131 138 135 127 131 135 130 127 128 128 126 126 127 129 128 130 129 136 132 129 133 129 127 129 128 133 137 151 154 157 159 161 163 165 163 160 149 140 136 133 130 129 127 125 136 141 127 78 128 121 112 179 156 129 100 151 104 121 175 117 146 50 143 108 127 125 113 124 126 126 126 127 
135 130 133 132 134 134 125 132 128 148 135 110 107 146 127 127 130 143 118 134 133 134 144 125 132 137 125 128 128 127 133 129 128 128 128 127 129 128 127 127 126 119 127 137 139 139 146 148 143 149 146 149 145 140 141 138 138 140 137 127 132 138 131 123 133 131 110 111 154 109 111 175 167 130 89 176 112 112 149 170 118 136 110 129 129 121 122 116 124 125 128 126 
