P2
92 112
255
138 73 139 136 146 225 226 204 153 149 103 110 121 121 124 125 124 123 124 126 125 124 125 125 124 123 124 123 125 124 124 122 125 125 125 124 126 125 125 125 124 125 124 125 126 127 125 127 125 128 126 127 126 126 126 128 129 127 126 127 126 127 127 126 128 126 126 126 127 127 126 125 126 126 127 127 126 126 125 125 125 125 123 125 125 125 125 125 126 125 125 124 
185 105 74 166 142 160 228 221 154 154 160 97 113 122 124 123 123 124 123 124 122 125 125 125 125 125 126 124 125 124 125 124 125 126 124 125 125 127 125 127 125 124 125 125 127 126 127 126 127 128 129 128 128 126 129 128 128 128 127 129 128 129 128 128 129 128 128 127 128 127 128 127 125 127 128 126 127 127 127 127 125 125 126 126 126 127 125 126 126 125 124 126 
181 163 115 126 201 145 215 240 207 167 171 99 100 122 123 125 125 124 122 124 125 124 124 124 125 125 124 124 124 125 125 124 124 125 127 126 127 125 126 125 125 128 125 125 126 127 127 128 128 130 128 128 126 129 127 129 128 127 126 127 128 128 128 127 127 128 128 128 128 128 127 126 125 126 126 125 125 127 126 125 125 124 125 124 125 125 125 125 125 126 124 126 
157 183 116 127 146 168 150 223 198 195 220 116 99 101 128 123 125 125 124 125 124 125 125 125 125 124 124 125 125 125 124 125 124 125 123 124 125 125 124 126 126 125 125 126 125 128 125 127 123 125 126 124 125 127 127 126 127 127 129 128 129 128 129 129 129 128 127 126 128 127 125 126 127 125 125 126 126 126 125 125 124 125 125 125 125 126 125 125 123 124 123 125 
68 67 113 119 122 141 140 165 195 149 224 145 94 102 124 125 125 123 125 125 125 125 124 125 124 125 125 125 124 123 124 124 125 123 126 125 122 122 120 123 122 122 126 128 125 127 127 116 104 101 108 117 119 122 123 125 126 127 127 125 129 128 129 129 128 128 127 129 126 127 126 125 127 126 126 125 126 127 126 125 125 125 125 125 125 126 124 125 125 124 125 124 
73 63 147 101 99 86 126 218 197 185 166 159 119 97 106 117 123 125 125 125 125 126 125 125 125 123 125 125 123 123 125 124 124 125 117 112 104 103 104 104 114 116 108 122 123 123 107 99 100 99 98 100 104 103 104 107 124 122 124 127 127 129 129 128 127 129 127 129 126 127 126 125 127 126 126 125 125 125 125 125 125 125 125 125 124 125 124 124 123 124 123 124 
120 137 101 48 12 41 61 93 212 206 201 153 141 113 104 104 123 124 124 125 124 123 125 125 125 124 124 122 124 124 124 119 99 130 128 130 117 119 110 120 104 109 106 165 196 196 192 152 182 123 127 105 113 107 102 103 100 103 107 107 110 111 123 126 125 129 128 128 127 126 126 126 125 125 125 125 125 125 124 124 125 123 124 124 125 125 124 124 124 125 124 123 
128 135 86 37 22 39 46 115 160 202 201 157 145 141 97 102 125 125 123 124 124 125 124 125 125 125 125 123 124 125 141 162 181 192 183 166 177 147 168 160 130 155 173 177 176 162 75 102 90 162 167 178 141 149 122 111 103 100 106 105 107 110 111 113 125 127 126 127 127 127 127 128 128 128 126 126 125 125 125 124 124 123 123 124 125 125 125 124 124 126 126 125 
118 132 137 135 108 53 76 185 185 193 152 125 171 173 136 142 121 124 122 123 124 124 125 125 126 127 124 115 141 197 196 99 78 63 46 31 83 97 128 110 148 144 126 74 66 86 59 94 106 113 118 122 121 136 129 142 127 155 110 103 102 106 113 102 104 104 108 115 110 123 127 128 127 128 128 125 127 127 126 125 125 125 126 125 125 125 125 125 125 125 124 125 
115 129 128 133 153 86 140 188 194 163 121 116 164 175 155 174 128 123 124 124 125 123 129 126 121 110 114 141 170 197 57 28 59 79 85 99 131 124 129 148 132 129 137 97 117 124 99 121 111 144 125 115 122 111 124 138 115 129 164 154 144 116 103 126 105 101 102 98 113 106 126 127 128 128 128 126 126 127 126 126 126 125 126 125 125 125 125 125 125 125 124 124 
101 84 103 111 116 136 134 173 170 120 110 117 164 168 171 157 123 121 125 123 123 125 138 179 176 166 157 142 80 76 50 84 127 113 116 118 114 134 126 113 120 121 110 133 128 110 119 126 123 131 102 96 108 98 104 126 113 127 114 145 139 150 192 144 140 105 102 102 97 104 107 127 128 129 127 128 126 125 128 128 127 128 127 126 126 127 126 126 125 125 125 125 
102 104 97 120 116 115 118 125 135 115 112 116 138 165 176 173 122 124 122 124 125 132 191 192 163 117 106 130 72 75 136 134 147 111 125 120 125 119 124 115 113 115 116 130 119 125 123 122 119 113 105 112 113 126 111 114 110 125 127 129 110 94 143 182 156 103 107 97 101 104 102 123 128 128 127 127 126 125 128 126 127 127 127 126 125 127 126 126 125 125 124 124 
135 131 126 135 117 114 116 118 127 131 123 126 125 123 125 126 124 122 128 122 143 177 114 64 57 75 93 110 114 121 116 109 119 109 135 123 116 108 120 116 116 114 112 119 121 115 116 114 109 119 125 118 137 133 115 122 129 118 112 102 112 113 149 146 101 117 164 151 134 135 111 101 111 121 125 126 126 128 127 128 128 127 127 126 126 125 127 125 125 124 126 125 
137 131 137 141 116 113 116 116 120 130 133 131 136 136 128 123 124 125 165 198 199 143 82 63 90 113 127 134 109 132 100 99 116 130 132 125 109 127 128 124 116 114 116 122 119 116 115 116 122 128 120 118 128 77 106 113 103 123 122 120 111 111 133 132 116 81 125 159 148 153 112 103 106 108 112 127 126 127 126 127 126 127 126 126 127 128 127 127 125 125 125 125 
137 132 146 130 118 114 116 116 117 130 135 137 140 136 126 123 124 134 202 205 174 73 72 67 117 132 135 113 110 125 109 91 116 123 134 113 115 126 134 129 119 119 119 119 122 112 116 123 121 117 122 121 131 138 130 136 118 119 114 151 134 103 119 120 117 109 120 135 171 147 145 97 103 105 108 127 126 128 127 127 127 126 126 127 125 126 125 125 125 125 123 124 
135 138 153 127 116 117 115 118 118 119 127 125 126 125 122 123 126 197 135 73 62 76 121 111 121 128 122 112 122 119 122 113 147 122 125 113 121 121 122 114 137 122 128 121 115 122 122 120 115 122 122 117 125 132 122 116 117 120 110 123 105 104 146 131 116 128 132 156 157 148 135 136 110 104 102 108 127 126 126 127 126 126 126 126 124 125 125 126 125 125 125 123 
137 136 151 121 117 116 117 117 118 117 117 122 126 123 124 125 143 151 106 60 56 117 131 119 120 130 126 120 126 117 113 122 134 125 123 112 124 119 115 122 122 126 126 117 122 120 117 118 116 117 129 121 124 125 123 99 117 110 114 105 99 132 146 133 114 120 93 121 139 138 125 154 126 122 109 103 113 122 126 127 127 126 127 126 127 125 125 124 123 125 124 124 
134 136 138 116 119 118 116 116 117 119 119 123 122 122 138 197 188 147 83 81 104 119 135 124 129 117 103 125 124 112 125 128 121 120 115 115 119 124 127 124 121 123 122 121 122 120 113 113 118 120 122 111 119 112 115 116 113 103 109 122 126 132 116 111 119 124 97 104 141 131 142 193 154 143 142 98 104 106 120 122 127 126 125 126 126 125 125 124 124 124 124 124 
135 141 129 116 117 118 116 115 116 121 121 122 123 122 151 158 153 115 68 75 106 116 121 136 119 117 104 117 122 113 121 123 117 118 109 115 121 124 119 121 119 121 121 119 120 118 116 118 119 120 124 118 118 117 121 119 109 117 113 133 130 143 110 126 133 139 129 128 120 125 129 160 175 143 147 100 105 113 113 117 122 125 126 125 125 126 127 125 125 125 125 124 
139 151 117 116 116 117 118 117 118 117 119 119 122 122 139 90 93 86 96 112 113 108 117 123 118 114 113 125 119 123 121 117 121 116 121 121 123 118 119 119 124 118 118 118 115 116 119 119 118 119 119 117 125 122 110 107 110 122 136 121 106 120 122 120 136 136 132 121 138 132 101 80 122 118 146 173 133 105 110 109 114 116 125 123 126 126 126 125 125 126 125 123 
134 153 118 116 118 117 116 117 118 119 122 122 124 152 182 121 141 107 113 121 123 123 118 121 117 111 113 125 120 124 117 119 119 113 122 125 121 115 119 119 123 116 123 120 119 120 119 116 114 120 119 116 117 101 108 116 113 123 138 107 99 106 100 82 79 91 114 106 131 138 107 82 139 101 155 182 136 137 105 107 108 113 121 126 126 126 125 125 127 125 126 123 
141 153 117 116 117 116 117 116 119 118 121 170 137 104 105 94 85 103 105 119 119 121 118 112 122 118 117 121 120 116 115 119 118 115 122 119 118 119 116 118 117 116 118 121 118 117 115 118 121 115 110 118 125 127 131 144 119 117 114 102 102 113 121 107 125 139 143 130 147 103 102 125 168 90 94 162 137 118 132 140 124 108 115 125 124 125 124 125 125 125 123 125 
150 147 116 118 117 117 116 115 116 119 122 179 150 134 85 67 71 97 115 120 120 116 122 118 118 118 116 121 119 112 122 117 116 120 119 122 117 116 117 117 117 119 119 118 115 112 117 116 115 118 116 119 124 120 123 117 114 124 118 129 116 95 119 113 102 122 113 102 128 95 119 122 118 89 92 161 95 86 144 133 152 105 109 125 125 124 126 124 123 125 126 123 
132 138 117 116 116 116 116 116 120 121 121 123 171 161 100 100 95 108 114 125 119 123 113 117 118 119 116 119 118 115 119 121 119 121 121 121 116 118 116 119 114 116 119 112 111 104 112 114 113 117 122 125 113 124 114 109 115 117 109 120 119 132 115 114 106 104 134 114 102 134 119 117 80 116 76 179 94 69 137 154 145 108 110 125 124 125 127 123 123 125 123 123 
158 125 116 116 117 115 116 116 119 123 123 44 57 129 90 91 108 116 119 118 119 116 121 124 117 122 120 116 116 118 116 113 116 117 112 110 113 111 112 113 113 109 114 107 112 108 101 105 107 114 123 116 108 112 112 105 121 115 112 111 116 116 117 121 118 136 137 125 125 137 157 96 91 57 170 189 122 50 135 128 149 151 115 122 125 125 124 124 124 123 124 123 
159 121 117 116 116 116 116 118 119 118 126 56 116 106 103 104 105 115 117 119 119 119 122 122 121 120 117 118 112 115 110 107 113 109 107 107 108 107 102 106 104 109 109 112 105 108 97 101 112 114 115 111 103 93 99 107 112 116 123 111 107 112 114 135 117 132 143 141 146 148 133 103 108 136 134 171 119 40 137 116 135 148 125 127 125 125 123 124 124 125 125 123 
140 119 117 116 117 113 117 119 121 111 146 144 160 120 118 114 116 119 122 118 120 121 119 119 115 116 111 106 104 101 97 100 95 103 101 101 107 103 105 104 107 105 103 118 110 104 103 105 108 114 119 110 98 96 94 91 112 105 109 124 125 123 125 140 122 124 113 97 98 120 95 101 120 127 135 125 83 5 113 108 151 171 154 126 123 124 124 124 125 125 125 124 
129 117 116 117 118 115 117 119 119 117 120 193 133 79 119 119 119 120 121 119 121 119 118 114 115 113 113 100 97 104 99 99 99 104 105 103 112 110 114 110 108 103 104 104 98 106 101 104 113 116 114 113 110 116 116 116 120 117 115 125 119 126 121 118 118 130 116 121 100 107 115 122 112 128 121 102 47 0 122 142 150 173 168 131 127 127 126 125 125 125 123 123 
119 116 117 116 116 115 117 119 122 110 122 132 89 65 114 118 118 117 120 120 118 112 115 114 112 109 105 107 104 106 109 107 111 109 108 111 112 108 110 104 107 106 107 107 107 103 118 117 116 105 93 100 115 129 125 136 137 107 110 100 104 119 110 113 119 123 104 109 141 139 130 113 125 103 128 71 31 55 151 154 166 176 160 126 125 127 126 125 125 125 125 127 
119 116 115 115 116 116 118 120 121 116 98 115 96 69 119 119 119 119 119 119 119 113 111 108 113 111 107 112 113 114 114 113 117 109 107 108 109 107 106 106 103 106 113 113 119 119 114 117 116 98 90 93 100 107 109 119 114 107 96 92 98 102 114 118 111 121 128 130 138 140 129 106 89 100 102 83 72 89 153 162 166 175 138 125 125 124 125 124 125 125 125 125 
117 116 117 117 116 118 118 119 119 119 111 107 96 96 121 118 116 123 119 120 117 109 110 109 111 113 118 114 116 119 114 118 111 110 106 107 110 110 110 110 113 115 118 118 118 116 116 115 113 106 100 102 103 101 104 98 85 92 87 111 114 124 137 129 119 131 124 134 153 129 128 137 123 136 124 65 52 80 155 155 163 152 127 123 125 126 124 125 125 125 125 124 
118 116 117 117 114 119 118 119 119 119 119 106 98 109 118 116 117 120 121 116 113 106 110 113 118 117 112 119 116 116 114 114 110 114 108 110 114 113 110 110 113 114 116 116 116 115 115 117 116 115 116 113 110 110 107 101 102 101 108 116 125 133 130 124 125 133 120 134 128 136 160 122 122 116 120 64 83 119 157 160 161 144 125 123 125 125 125 125 125 123 127 125 
116 116 116 114 113 117 119 119 122 119 119 100 101 116 120 122 121 119 118 113 110 115 113 119 119 118 115 119 114 114 115 112 112 113 114 112 111 112 107 107 110 113 115 116 115 113 112 113 115 116 113 114 107 105 109 115 119 123 137 142 136 140 129 115 111 123 137 133 129 141 125 100 94 104 84 77 62 147 149 158 157 134 126 125 125 125 125 125 124 125 125 124 
117 116 116 115 114 118 119 119 122 119 111 97 96 115 117 119 123 119 116 112 111 119 121 119 122 118 118 113 114 115 115 113 112 110 111 113 111 110 110 108 110 112 112 115 115 116 112 110 112 112 114 110 111 108 107 116 117 119 136 137 133 129 116 117 107 113 131 120 130 143 164 97 64 88 80 81 67 148 152 164 160 127 124 124 124 125 125 124 124 124 124 125 
117 116 115 116 114 119 118 120 120 120 112 89 99 124 118 121 124 117 119 110 111 114 121 122 119 118 116 117 113 115 112 112 111 108 108 110 109 107 108 110 110 111 113 114 114 119 117 116 113 114 110 113 110 109 108 114 115 121 131 126 125 121 110 110 113 112 114 116 126 120 121 124 69 130 117 117 69 158 157 160 162 124 125 125 124 125 124 124 125 125 125 123 
115 116 117 113 116 117 118 118 119 119 119 64 98 135 128 122 121 116 116 118 110 118 120 120 121 120 112 115 111 111 109 111 110 107 109 111 109 110 109 112 112 113 113 112 114 119 116 117 114 115 114 113 113 111 105 107 116 115 115 122 119 113 114 115 115 116 127 125 126 125 116 112 79 109 134 131 44 151 158 154 166 132 126 125 126 126 126 127 125 125 123 125 
115 116 115 114 118 118 120 119 118 118 120 70 88 140 121 122 119 122 115 116 109 121 120 123 117 119 113 114 113 113 115 112 110 109 110 110 110 106 110 113 115 113 111 112 116 116 116 115 111 115 114 112 112 109 106 109 116 116 117 121 118 115 115 116 116 113 122 132 126 118 118 119 89 109 138 83 47 149 159 152 163 132 127 126 126 124 126 126 127 125 123 126 
117 116 113 116 115 119 119 118 120 119 121 104 90 124 124 122 117 115 114 105 115 122 121 117 116 117 108 107 107 107 111 110 110 115 113 114 116 115 117 116 119 119 118 115 116 114 112 110 111 112 110 113 108 111 110 117 120 123 123 122 123 120 118 116 116 116 122 124 125 116 101 101 107 113 130 57 55 151 154 162 173 129 130 125 125 126 127 127 125 126 125 123 
116 115 113 115 116 118 118 118 118 118 119 119 100 92 123 121 118 115 105 103 117 122 122 119 110 108 105 106 110 112 116 114 115 113 113 115 116 117 117 118 117 119 121 116 116 115 115 113 111 115 115 111 114 110 110 115 115 121 121 122 121 122 121 119 119 117 121 121 125 111 112 112 119 116 109 58 86 160 150 162 182 126 128 126 124 126 125 125 127 125 125 127 
114 115 116 116 116 118 117 119 119 118 120 125 90 98 119 123 117 103 106 117 126 123 116 117 108 107 110 109 111 111 119 120 120 121 122 118 116 118 119 119 120 121 120 115 116 114 113 113 114 115 117 114 117 116 115 117 119 120 119 120 117 117 118 117 119 120 119 123 116 120 121 126 119 111 105 68 160 156 158 172 184 125 127 125 124 125 125 125 125 125 125 126 
116 114 116 116 116 119 120 118 119 120 121 117 69 91 122 117 112 107 113 119 122 120 115 109 103 101 113 110 110 114 122 120 117 121 121 116 118 117 117 119 119 117 117 115 116 115 116 113 113 115 118 113 116 117 119 123 116 117 119 120 120 119 116 114 117 120 118 120 114 119 119 121 108 115 105 78 155 154 163 168 177 125 128 126 126 125 125 125 126 125 125 123 
114 114 116 116 116 118 117 118 117 119 118 119 51 89 122 119 104 114 128 127 121 113 110 119 127 129 128 130 128 132 127 125 128 118 117 118 116 119 114 118 114 118 117 121 125 121 119 117 120 119 118 117 122 122 125 120 130 139 134 126 128 127 131 129 128 117 119 117 117 117 115 112 102 112 58 110 147 156 165 172 137 126 125 126 125 125 125 124 126 125 125 125 
113 113 116 116 117 117 117 118 118 120 119 119 85 89 136 116 92 121 126 124 123 120 125 134 131 140 136 136 133 129 128 131 129 127 121 121 126 115 112 116 115 116 116 122 122 121 119 119 121 117 122 120 119 118 118 118 126 132 133 138 132 125 143 134 133 130 116 113 115 111 120 118 97 99 61 146 151 154 160 179 135 125 125 125 125 127 124 125 124 124 124 125 
113 114 115 116 117 116 118 119 120 118 120 114 110 53 137 112 99 126 128 125 135 135 138 141 137 146 142 141 142 137 132 133 126 119 126 120 118 121 114 113 116 115 115 120 119 115 118 119 119 122 125 125 118 117 117 124 136 135 133 141 152 151 152 150 145 147 140 117 113 115 121 127 86 91 60 162 157 153 171 176 136 122 125 123 125 126 125 124 125 126 124 125 
114 113 116 117 117 117 119 120 119 117 119 117 121 48 144 115 118 130 138 141 128 120 120 122 116 113 110 113 110 109 106 110 113 116 120 125 127 106 97 110 115 118 116 118 115 111 111 118 122 129 131 139 141 142 151 157 159 148 153 149 143 129 138 116 107 133 129 123 112 113 110 150 97 28 53 163 155 160 181 158 128 126 125 125 125 126 125 126 125 125 125 125 
116 116 116 118 117 117 118 118 119 118 120 118 118 106 125 116 135 148 143 125 118 116 115 112 110 107 107 106 109 107 102 104 109 117 111 110 111 110 112 105 119 117 113 115 110 107 110 125 135 132 152 141 144 132 135 129 128 119 118 119 116 115 105 105 93 93 113 106 115 106 102 162 75 31 59 160 155 160 187 136 130 127 125 127 125 126 128 126 124 126 126 126 
115 117 117 116 117 116 118 118 116 117 118 117 119 116 63 122 155 117 113 110 110 105 104 107 107 108 102 109 107 108 105 107 106 104 107 112 103 104 97 109 116 108 106 102 103 103 125 141 144 129 129 114 108 108 112 106 97 89 77 66 61 65 52 54 62 78 85 88 85 81 101 169 3 19 103 148 160 174 159 126 126 126 126 126 127 126 127 125 125 125 125 125 
116 116 117 115 118 116 118 118 116 117 117 119 118 116 42 122 153 109 106 108 105 106 106 105 103 101 100 103 103 109 108 110 112 107 111 108 109 107 99 115 116 111 105 102 102 103 127 137 129 115 114 109 103 93 93 86 78 69 68 59 57 46 45 45 69 84 78 87 82 72 74 170 22 24 131 143 165 182 154 126 127 126 127 126 126 125 127 125 125 126 125 124 
116 117 117 119 117 117 117 117 118 119 119 117 119 116 94 88 150 117 117 113 110 120 116 116 116 115 116 115 111 107 109 110 111 116 114 113 109 106 108 107 112 108 107 97 97 108 124 125 118 104 100 91 96 83 84 81 81 78 70 88 88 97 105 114 103 103 100 95 93 90 90 178 72 45 129 129 176 177 127 126 127 127 126 127 126 125 127 127 127 124 125 125 
114 117 117 118 119 115 118 117 118 118 120 118 119 114 100 103 137 119 116 117 117 116 119 122 117 119 122 126 122 123 120 118 120 120 121 122 117 121 111 116 112 104 100 94 98 105 121 122 113 115 113 108 101 107 108 104 99 95 103 110 122 115 129 125 122 125 115 113 101 112 113 183 125 75 128 127 168 179 127 126 128 127 126 127 127 126 126 125 125 124 124 124 
116 119 117 119 119 117 118 116 118 119 117 120 117 118 170 111 110 121 121 119 120 135 135 138 140 131 134 130 131 135 135 133 131 134 131 130 126 129 121 120 105 82 81 77 87 104 110 127 139 134 131 136 135 132 133 129 127 122 115 101 112 119 161 168 176 152 147 135 115 127 126 184 189 160 150 131 156 160 127 128 129 128 126 127 126 126 126 126 125 124 125 124 
118 117 118 119 116 117 117 116 119 119 117 118 117 119 177 110 104 120 127 123 130 136 134 128 129 132 133 133 137 141 137 138 134 129 127 123 122 120 122 113 96 85 78 83 91 109 116 134 150 130 130 131 121 124 127 127 143 145 146 142 140 129 116 114 147 165 148 134 116 121 125 167 197 158 113 129 144 157 122 127 129 128 128 128 126 125 126 125 125 125 125 126 
118 119 120 116 115 117 119 118 118 116 119 118 118 119 112 114 97 121 123 127 129 129 130 129 133 131 129 127 127 125 130 125 120 122 118 117 119 118 116 107 84 82 88 99 103 116 127 143 161 123 121 121 122 120 125 134 135 132 127 124 117 122 125 112 109 128 135 129 118 123 130 154 200 144 66 131 142 145 119 125 128 127 127 128 126 127 125 125 125 126 125 125 
119 119 118 118 118 117 117 118 119 117 118 118 118 119 96 118 89 118 121 117 116 125 123 125 118 100 109 128 132 131 127 109 90 108 108 118 119 117 102 87 87 97 105 116 126 141 136 133 139 128 116 113 97 92 109 124 140 141 140 108 97 92 135 121 131 81 86 87 87 100 105 128 193 134 58 129 131 144 112 126 126 128 127 129 127 127 126 126 125 126 126 125 
118 117 119 118 116 118 118 119 117 119 118 118 118 116 95 115 104 116 115 113 112 113 112 111 118 103 90 116 116 110 110 88 88 115 118 116 118 114 100 82 92 101 109 129 131 138 135 130 129 115 114 107 109 104 96 128 110 113 118 53 45 68 96 94 106 62 74 85 87 100 107 122 187 130 52 131 125 144 121 125 127 128 128 129 127 125 128 128 125 125 125 127 
118 118 116 116 116 117 117 118 119 116 116 119 115 120 81 104 111 118 113 115 108 105 103 107 106 110 129 108 104 97 97 97 110 127 120 113 113 103 95 93 111 111 122 128 120 130 125 123 120 108 74 89 102 105 121 117 91 90 66 69 75 107 69 46 48 75 107 128 130 130 125 129 182 140 36 135 128 151 151 125 127 128 128 128 127 128 125 128 126 125 125 125 
118 115 117 116 118 117 118 118 116 117 116 116 117 124 78 97 113 117 116 114 115 113 121 120 108 109 113 113 112 111 107 111 123 124 116 113 107 99 98 108 113 113 122 124 122 124 116 118 120 97 85 93 98 103 106 116 89 91 92 77 98 119 144 124 115 120 128 113 135 138 144 132 170 136 37 139 130 150 166 125 129 128 128 127 127 128 126 127 126 125 125 125 
116 117 118 117 116 118 117 117 117 116 117 118 117 124 88 100 124 113 112 116 117 112 112 110 112 113 111 104 112 109 119 112 115 115 107 105 106 106 114 113 113 116 118 115 118 117 121 119 119 115 112 109 89 98 91 88 87 94 104 100 91 90 101 112 100 113 132 139 146 143 139 129 148 128 47 139 129 145 173 127 127 127 127 127 129 126 126 126 126 126 125 125 
117 116 118 117 116 117 117 117 117 117 116 119 115 114 100 107 120 113 112 115 112 108 110 111 99 99 97 89 97 101 104 103 105 113 94 101 110 115 114 128 112 113 116 116 115 118 121 118 119 119 116 128 100 94 93 89 73 69 72 77 77 90 102 102 81 97 133 130 142 135 127 125 133 149 41 138 128 143 170 126 125 127 127 128 128 127 127 126 127 126 126 126 
117 117 117 116 115 118 116 117 118 117 117 116 118 129 107 115 120 120 119 116 110 110 107 103 99 100 100 96 100 102 110 113 113 108 107 113 120 113 114 116 111 110 109 113 110 116 120 118 118 120 120 120 115 98 105 107 113 112 114 119 122 128 129 117 118 110 125 129 126 120 121 125 122 159 68 135 130 140 145 125 125 125 127 128 127 126 126 126 126 128 125 126 
119 118 116 117 117 117 116 116 117 118 116 116 126 125 114 110 116 122 115 113 113 105 105 104 102 106 103 99 101 102 106 106 111 105 113 116 123 113 119 120 109 106 109 114 110 117 122 116 117 118 117 119 125 115 115 113 111 115 122 131 130 134 134 125 133 135 134 137 131 129 128 123 125 166 87 138 132 136 132 126 126 125 126 126 127 129 127 126 128 126 127 126 
116 116 116 116 116 116 116 115 117 116 117 116 119 128 109 109 120 125 119 117 114 106 108 110 112 112 109 109 108 109 111 112 112 120 119 119 122 118 120 122 115 102 105 111 105 115 122 119 120 123 118 119 120 135 136 133 122 120 121 129 132 136 144 145 144 134 144 139 138 132 129 125 126 155 112 137 134 134 123 126 126 125 126 127 127 127 127 126 128 127 127 126 
118 116 114 115 115 116 116 117 117 119 116 115 115 120 112 109 119 121 115 121 121 120 119 119 121 122 121 117 116 120 122 121 120 119 123 125 122 117 122 125 113 105 105 110 111 109 121 120 124 128 122 121 123 126 128 141 138 140 138 133 129 126 130 133 132 135 140 141 128 123 122 122 120 155 115 130 136 129 119 128 127 127 126 127 126 127 126 127 127 126 126 126 
116 116 116 115 116 119 118 117 118 117 116 116 113 110 122 116 122 120 119 118 121 121 116 119 118 116 118 123 125 126 125 125 123 123 126 129 116 117 118 119 116 108 106 110 97 99 123 122 122 127 116 120 124 126 129 131 139 141 137 135 125 120 112 113 113 119 124 122 123 120 119 120 121 151 121 129 135 130 128 128 127 127 126 127 126 126 126 126 127 127 126 126 
116 117 116 116 118 118 116 116 115 117 115 116 110 91 108 115 126 120 115 114 113 113 117 118 118 121 119 121 124 120 120 123 119 127 125 106 108 110 113 109 102 108 107 110 110 111 130 123 119 111 106 101 123 122 124 131 129 132 135 140 136 134 122 117 117 106 107 107 109 111 111 113 116 157 100 129 137 129 148 133 128 127 126 127 128 128 128 127 128 128 128 127 
116 115 116 116 116 118 117 117 116 118 114 117 119 103 132 116 122 117 116 117 114 111 113 116 119 120 119 120 121 119 114 121 118 125 111 99 110 114 117 119 119 109 107 116 115 127 134 125 121 116 109 108 107 125 128 126 123 123 120 136 134 132 125 124 123 122 117 113 112 109 110 112 119 162 106 131 136 130 155 133 127 127 129 127 128 127 127 126 127 127 126 127 
116 118 117 116 117 119 117 116 116 116 117 116 117 114 128 123 118 117 118 115 120 115 115 119 122 124 122 116 116 112 115 113 116 115 108 119 125 123 127 125 120 117 121 125 122 128 133 129 136 143 145 138 131 142 119 122 116 118 119 117 115 115 124 127 129 127 125 123 116 113 111 116 121 173 102 136 137 130 153 141 127 128 128 129 127 127 127 128 128 127 127 126 
117 119 118 117 116 119 117 116 116 116 116 116 119 127 125 123 122 118 117 117 120 121 119 121 123 119 121 118 117 113 112 115 116 115 116 125 135 129 123 124 120 124 123 122 127 125 129 126 147 217 201 164 127 132 120 115 117 113 114 118 115 117 122 125 129 129 126 125 122 118 119 119 119 178 100 138 136 132 174 138 127 127 128 128 126 127 126 127 127 126 126 128 
117 118 118 115 119 118 117 118 117 117 115 115 119 115 132 112 118 116 115 117 116 119 123 116 117 115 117 115 115 113 115 114 116 119 131 136 146 150 151 150 137 120 119 125 129 127 159 172 182 174 159 136 94 110 119 112 104 104 103 110 110 116 118 119 118 122 123 124 121 123 122 122 134 168 95 136 135 131 172 133 127 127 129 128 128 128 128 128 128 127 127 126 
118 118 115 117 116 118 116 117 116 115 114 117 116 93 130 117 117 117 114 116 120 115 115 115 116 117 120 114 112 115 115 114 113 117 128 133 126 120 129 129 135 131 119 121 121 116 109 104 117 72 56 44 72 103 116 112 105 107 105 111 113 115 117 122 119 119 117 122 121 119 119 123 138 159 89 135 135 130 173 130 129 130 129 129 126 126 128 126 126 127 125 126 
119 117 116 114 116 117 117 118 117 114 116 114 115 97 136 115 118 115 120 119 121 117 112 118 119 117 114 114 113 114 113 112 112 121 118 125 111 104 95 97 120 133 125 115 103 113 92 94 53 51 47 26 52 87 112 106 110 111 110 113 110 116 114 119 120 116 119 122 120 120 120 122 145 152 78 136 137 127 173 127 128 128 128 129 126 126 126 125 126 127 124 127 
117 118 117 116 118 118 116 117 114 115 113 116 115 97 135 121 121 118 116 118 118 117 117 121 116 116 117 114 108 113 110 113 116 118 119 114 105 107 106 110 108 101 101 112 95 78 88 93 88 82 53 18 82 91 98 110 117 114 110 112 115 112 114 114 116 116 117 118 116 121 122 123 167 111 55 137 134 122 169 129 128 129 127 126 127 125 128 126 128 125 126 127 
116 117 116 117 117 117 118 116 116 116 116 114 116 95 134 130 123 117 113 122 117 119 118 114 113 115 116 109 111 114 111 116 115 118 113 121 100 102 109 119 110 100 96 116 102 97 101 114 94 68 42 39 89 91 102 109 121 119 110 108 115 116 114 114 115 113 114 116 115 119 121 127 179 99 45 136 132 122 166 127 128 129 127 127 126 127 126 126 126 127 126 127 
116 115 117 115 116 116 117 115 116 115 113 116 117 109 133 147 116 118 117 120 117 118 119 113 116 110 112 113 114 111 122 128 126 139 130 131 129 128 129 124 107 88 91 110 118 119 126 146 135 136 135 124 152 154 152 151 129 142 132 115 121 118 118 113 114 113 116 116 114 119 125 144 153 88 47 136 131 113 151 128 127 126 128 126 128 127 126 127 127 125 125 124 
116 118 116 116 116 116 114 114 115 114 114 117 119 112 122 153 122 127 119 117 120 119 116 113 113 111 112 117 117 124 134 133 138 141 144 141 136 139 141 133 83 68 80 118 116 108 121 139 147 163 182 179 182 177 211 173 141 146 149 120 119 119 118 115 114 116 115 119 119 119 125 163 131 80 52 135 128 118 151 126 129 128 128 128 129 128 127 128 127 127 124 126 
117 116 118 116 114 115 114 115 114 116 114 115 118 119 82 154 126 122 118 120 121 116 119 116 117 112 116 129 130 142 138 132 139 132 123 135 125 118 111 101 55 66 98 124 106 96 86 126 118 137 157 138 187 199 205 190 174 165 154 133 125 120 119 120 119 118 117 119 122 125 126 159 92 47 102 135 120 130 141 125 125 126 127 128 128 128 127 126 125 126 129 127 
116 118 115 115 116 116 115 116 116 115 116 115 121 116 53 154 130 112 121 123 121 118 119 111 116 112 117 134 136 129 129 124 121 118 118 115 115 112 88 77 49 74 103 102 77 67 70 105 103 114 100 107 142 157 171 154 144 158 163 126 125 124 117 119 119 119 119 118 122 127 131 127 75 35 97 130 117 141 129 125 127 126 127 125 127 126 127 128 125 125 128 127 
116 115 116 119 116 117 116 117 113 116 116 116 118 115 65 75 149 117 120 121 119 115 116 117 116 119 125 126 121 120 109 113 110 97 97 99 92 102 97 103 122 148 159 109 95 103 116 132 107 62 62 69 100 107 108 108 109 101 103 113 125 111 119 118 115 119 119 126 124 120 140 82 47 68 130 124 117 163 127 125 126 125 125 124 127 128 129 128 128 125 128 127 
117 119 116 117 116 114 117 116 115 116 117 115 119 117 75 55 152 117 117 120 120 116 116 118 116 122 135 127 113 107 104 109 99 89 91 96 106 103 103 124 156 179 176 132 124 131 133 156 131 103 79 71 87 76 91 91 99 84 93 91 113 116 117 119 116 119 123 123 120 129 155 70 32 84 130 122 126 169 127 125 126 123 126 124 128 128 128 128 127 126 128 126 
116 117 114 116 116 116 116 117 115 115 119 117 117 119 114 55 119 113 118 116 118 113 116 115 116 126 125 110 102 100 104 100 93 89 100 107 109 115 116 123 141 175 193 166 166 176 159 155 147 143 128 114 75 75 78 79 80 72 71 74 74 112 116 117 118 121 122 125 121 118 163 76 28 99 131 113 133 184 128 125 125 125 125 124 126 127 128 127 126 126 128 127 
115 115 114 115 115 114 116 117 116 116 116 115 118 118 119 108 47 131 112 116 120 122 115 111 117 126 109 100 99 102 116 114 118 122 126 129 129 121 126 131 143 144 149 150 168 169 140 136 129 137 146 176 172 148 138 116 90 75 55 63 74 53 94 113 119 124 134 136 121 164 124 24 65 129 131 123 162 172 125 124 126 126 125 125 125 125 127 129 127 127 129 129 
115 114 116 115 115 116 116 116 117 116 115 117 116 116 119 114 77 144 119 113 117 120 113 117 118 117 106 102 99 107 114 110 121 123 126 117 116 114 117 116 122 124 121 107 119 125 100 101 87 76 84 91 129 165 166 148 100 85 68 66 74 66 82 110 119 127 135 129 148 153 97 17 95 131 129 135 170 164 125 125 127 125 125 125 126 126 128 129 129 125 129 128 
117 119 117 117 113 114 115 116 116 116 117 116 116 117 118 119 103 113 142 125 111 118 123 113 111 110 106 107 112 111 109 104 102 107 107 110 97 87 79 74 75 59 56 41 53 102 56 63 48 49 64 56 59 65 67 72 88 81 76 92 73 71 106 103 114 129 135 125 154 107 69 75 129 132 125 164 175 134 125 125 126 124 124 123 125 125 126 126 128 127 125 129 
118 119 119 116 114 114 115 117 117 116 118 116 117 116 118 119 121 59 139 140 115 113 121 116 116 110 110 110 110 112 112 108 107 111 119 119 118 104 94 94 84 58 48 36 40 71 107 100 111 117 126 113 97 97 64 54 76 85 90 111 101 90 112 112 122 125 128 133 128 79 31 120 131 133 121 172 168 133 126 126 127 125 125 125 127 126 127 127 128 129 127 129 
116 117 119 116 122 125 120 119 119 117 117 117 118 117 119 119 120 77 96 130 132 117 121 119 120 121 125 116 115 123 116 112 113 112 112 114 123 121 121 126 124 127 137 104 116 106 142 125 117 111 101 97 92 109 100 107 91 89 91 107 113 121 141 135 131 129 143 152 70 44 12 134 131 118 132 182 141 128 128 125 126 125 125 124 126 125 126 125 127 127 126 128 
116 117 116 116 116 117 118 118 119 120 121 123 125 125 125 122 124 92 69 117 135 115 115 117 120 127 124 122 124 126 112 116 112 115 113 119 112 113 119 130 130 133 141 126 140 116 116 154 146 126 130 116 109 105 107 113 119 112 109 116 122 132 148 141 138 126 152 150 60 17 36 138 127 118 154 180 132 127 128 126 126 125 125 124 125 125 126 124 125 126 126 128 
118 117 116 116 116 117 117 116 116 119 118 118 119 120 120 119 119 127 84 60 104 135 134 127 127 125 125 125 126 128 116 117 117 120 122 121 130 132 138 147 159 170 169 169 174 160 161 156 160 157 154 154 154 151 137 139 150 145 135 131 118 118 138 149 144 160 160 123 27 47 129 131 132 148 164 145 128 128 127 126 126 126 127 124 125 123 122 125 125 124 128 127 
117 116 115 115 115 118 119 118 116 116 117 117 119 116 119 119 119 124 101 79 68 129 135 135 129 127 128 130 127 127 124 119 122 122 121 129 137 141 147 150 162 166 166 166 171 166 167 164 167 173 167 166 163 162 158 162 163 157 152 139 128 113 138 145 157 157 101 55 16 104 133 135 140 159 180 130 128 126 125 125 125 125 127 124 125 125 125 125 126 126 129 127 
117 116 117 117 115 117 116 116 120 121 118 119 116 119 117 118 115 117 131 97 55 119 125 122 126 129 127 127 125 124 126 132 130 129 123 125 127 123 114 121 121 123 137 140 133 128 130 131 125 119 130 125 137 152 159 175 180 164 167 158 143 141 145 160 169 101 39 18 59 116 131 141 166 183 177 130 126 126 125 125 127 125 127 126 125 126 126 124 127 126 126 128 
116 116 116 117 117 116 115 115 117 118 115 119 118 119 121 120 119 119 127 152 79 97 116 116 122 125 125 120 123 122 125 129 132 128 128 125 117 113 109 101 97 97 100 97 78 71 77 83 81 88 92 97 124 140 144 159 152 159 157 154 160 139 155 160 144 62 31 16 87 113 130 147 169 190 156 126 125 125 126 125 126 126 126 127 125 125 126 125 126 127 127 128 
116 116 115 115 118 115 115 115 117 116 117 117 116 119 119 119 117 120 116 158 121 40 115 117 121 119 119 120 122 122 126 132 131 129 123 125 117 103 98 100 89 80 70 62 52 51 54 64 66 81 84 87 125 137 146 149 142 129 137 144 135 137 156 156 114 15 13 17 133 128 124 158 181 176 144 127 128 126 126 126 127 126 124 125 126 127 127 127 127 127 126 128 
116 117 115 116 116 117 117 117 117 117 118 117 119 118 119 118 122 118 122 120 160 110 127 122 110 111 113 120 117 116 116 117 121 124 123 119 116 112 107 106 93 80 78 73 68 62 53 55 53 49 76 87 131 128 133 119 117 119 109 116 114 116 117 91 65 2 45 72 122 133 157 179 177 137 128 126 126 127 127 126 126 127 124 125 128 127 125 126 127 125 127 128 
116 116 114 115 117 118 116 116 115 117 116 119 120 119 118 119 122 123 120 127 221 151 127 124 109 112 112 117 116 116 114 114 114 118 122 116 116 113 109 108 103 90 91 94 98 88 86 75 72 80 82 96 124 127 128 115 107 105 104 113 119 108 84 51 40 20 60 91 121 140 166 185 163 128 126 128 126 128 125 127 127 126 127 126 126 124 127 125 125 125 126 127 
119 116 118 116 118 119 116 116 116 117 116 117 115 121 119 122 150 165 190 179 138 152 124 117 107 115 112 113 118 116 115 114 115 118 119 121 116 119 114 120 109 106 111 122 119 130 123 123 123 140 140 130 110 103 111 102 99 95 99 102 91 79 40 36 41 154 184 146 158 171 182 170 141 127 126 126 126 127 127 127 125 126 126 126 125 128 127 126 126 127 127 126 
117 117 116 118 118 116 117 119 117 116 116 119 118 117 169 214 198 201 193 100 100 137 132 115 107 107 115 116 117 118 115 117 115 119 117 114 116 124 122 127 122 114 118 126 125 128 135 140 149 155 162 143 137 115 100 107 99 105 95 109 103 53 46 43 46 142 232 170 185 197 187 166 133 129 126 124 126 127 126 127 125 127 125 127 124 127 126 126 126 126 127 126 
117 116 117 118 116 117 118 118 118 117 119 174 187 183 143 120 95 66 88 82 75 83 108 112 113 106 109 118 116 116 117 116 113 115 118 115 120 124 125 132 123 138 139 150 140 143 144 163 173 177 167 162 158 139 119 108 118 101 100 66 44 40 44 55 72 137 171 255 201 184 177 143 164 129 126 126 126 126 126 127 127 126 126 125 126 124 127 128 126 125 126 125 
115 114 116 118 115 117 118 119 118 119 118 197 139 96 88 87 83 81 77 78 80 64 85 120 113 107 108 109 115 116 120 116 112 117 119 120 119 121 124 131 130 140 146 140 147 139 152 160 172 177 163 157 141 141 146 118 120 101 104 53 44 45 59 103 121 123 126 197 229 172 156 139 151 157 141 129 125 127 125 126 127 125 126 126 127 125 125 128 127 125 127 126 
116 116 126 135 149 158 161 159 133 88 88 96 103 55 85 79 63 68 60 71 78 110 115 121 119 121 112 109 107 107 119 119 119 120 123 119 121 126 126 126 137 135 138 135 129 139 141 134 148 154 149 148 132 141 119 132 121 98 69 48 45 65 120 125 129 167 57 116 226 118 94 141 132 159 170 130 138 141 126 125 125 126 127 126 127 127 127 126 127 127 125 127 
147 151 152 154 151 157 160 156 98 65 78 92 89 78 64 70 70 69 72 68 77 118 111 117 120 121 117 104 107 107 114 120 120 122 121 121 121 125 128 129 135 131 124 130 130 132 132 128 139 137 135 140 127 122 110 103 97 60 54 47 53 87 120 129 139 175 129 51 189 138 97 92 133 130 207 143 118 142 126 126 125 125 127 126 127 128 126 127 126 128 125 125 
150 145 153 146 134 115 106 105 94 78 91 86 66 76 76 69 85 105 94 106 119 116 109 113 125 124 117 110 111 108 113 114 118 121 122 121 126 126 131 124 137 128 130 130 118 122 113 123 122 117 123 117 117 119 113 95 71 56 67 54 75 117 129 145 147 181 132 114 123 182 103 78 104 104 158 131 126 127 135 134 141 139 134 131 127 125 125 125 127 127 127 125 
94 100 91 84 89 82 87 79 85 79 75 75 73 97 111 120 126 116 112 108 127 117 108 116 119 124 122 119 119 114 107 103 107 117 120 119 121 119 122 122 118 122 122 118 115 118 117 118 115 106 96 100 97 75 63 49 47 50 50 81 127 129 145 155 155 201 117 138 24 126 181 81 83 52 109 144 100 109 144 135 133 141 143 144 146 148 147 147 145 147 146 145 
89 88 79 82 78 80 80 82 79 84 72 95 120 122 112 122 114 117 108 105 129 116 111 116 118 119 124 122 123 117 110 105 104 109 116 119 119 121 118 120 119 120 123 110 112 107 122 112 110 102 95 72 60 52 46 49 47 46 63 118 129 133 150 162 156 191 116 130 78 83 224 97 69 66 105 188 99 108 150 141 134 134 138 138 144 147 148 147 149 149 147 147 
88 84 82 82 82 87 90 96 105 97 106 107 115 111 124 108 114 117 111 111 123 115 112 119 117 118 120 121 124 125 122 115 110 106 100 102 108 107 111 104 111 109 107 99 96 93 96 82 79 61 50 45 45 45 41 46 98 115 117 127 140 152 154 157 158 132 92 125 110 51 127 144 93 97 129 134 203 101 87 116 120 101 104 111 127 132 134 141 141 142 145 147 
97 101 105 108 110 111 112 113 114 110 115 112 112 119 112 109 121 110 122 115 116 111 110 116 118 114 116 118 122 124 121 119 116 105 100 100 103 103 107 103 99 101 100 95 95 93 86 72 68 51 50 50 48 47 53 78 117 116 118 141 147 157 160 154 145 126 76 121 110 85 74 174 125 73 135 124 182 142 72 112 116 103 97 101 103 103 102 103 102 104 106 107 
121 115 115 119 117 118 115 119 112 118 116 114 114 122 112 120 122 111 117 119 100 110 111 114 119 117 121 118 124 122 120 119 121 119 116 111 103 103 100 101 97 98 95 93 92 87 77 66 62 47 50 60 75 88 112 113 129 133 140 148 152 154 147 132 145 117 77 120 103 114 84 119 168 107 106 50 142 188 104 76 133 128 93 93 98 98 98 98 98 94 98 101 
115 123 119 120 124 116 115 117 110 111 118 119 119 121 115 117 124 111 117 116 97 117 105 110 116 114 116 120 117 112 123 119 120 122 121 120 110 107 103 100 107 97 98 94 89 85 80 78 77 78 79 97 110 113 116 121 132 141 148 151 149 151 144 133 172 99 88 121 103 118 100 115 149 134 100 129 47 174 136 83 107 130 108 94 100 98 99 98 97 97 95 97 
119 122 120 122 117 116 117 109 113 114 112 116 129 113 116 120 121 115 121 118 108 124 111 106 114 115 118 119 115 119 113 119 122 119 119 114 115 111 113 108 109 109 99 91 90 88 91 93 95 109 107 109 125 126 130 132 141 147 150 151 146 130 122 127 166 73 110 113 103 121 117 86 126 147 118 117 121 94 141 152 81 123 131 112 112 116 113 105 102 97 93 96 
122 123 114 116 121 120 116 117 118 117 112 110 124 108 115 117 118 113 117 116 115 122 113 109 112 112 117 117 118 116 119 117 116 125 119 114 118 115 110 113 105 104 100 88 90 93 102 102 104 114 115 123 129 129 136 142 146 148 147 139 134 118 121 138 136 55 113 114 104 122 125 60 115 127 151 117 122 91 104 186 96 121 125 131 112 112 116 115 113 113 107 106 
122 119 119 119 121 117 110 116 116 116 111 130 124 98 118 116 119 113 120 112 109 125 116 109 110 110 115 113 115 115 116 116 116 123 120 114 116 116 112 111 100 95 91 92 92 97 100 107 112 120 123 125 132 138 138 144 147 144 142 126 126 117 118 158 120 52 113 110 109 129 124 57 112 119 159 125 115 108 141 160 125 123 122 135 110 113 115 116 113 113 114 113 
119 122 116 116 114 111 108 113 112 121 113 130 116 113 121 119 119 119 122 119 113 128 121 111 112 117 115 106 113 120 116 116 116 116 111 112 113 106 105 101 93 95 93 97 101 112 115 120 121 130 129 135 141 138 138 137 135 125 119 116 116 118 122 168 117 73 114 100 119 140 131 59 85 115 134 128 127 118 174 101 176 109 121 132 121 109 113 115 113 116 117 114 
119 120 117 115 110 113 119 121 113 127 110 125 111 116 120 118 119 122 122 116 110 132 119 109 113 116 114 115 111 110 116 113 110 112 110 110 111 103 106 100 95 94 94 104 112 115 123 124 122 128 130 134 137 137 131 132 131 120 118 116 118 121 133 144 117 94 115 100 120 134 127 66 82 122 124 132 115 125 90 119 132 80 132 115 126 118 109 115 115 117 115 117 
119 119 111 111 116 122 127 125 113 117 117 129 104 107 114 116 128 126 117 115 116 116 122 112 117 119 113 108 116 116 110 109 107 102 103 110 102 97 106 101 104 104 108 113 115 123 124 125 122 126 127 128 123 120 119 119 116 115 121 123 121 122 177 118 113 114 111 107 143 124 141 70 66 116 120 135 121 119 116 117 120 145 102 119 129 128 122 115 118 117 114 113 
