P2
92 112
255
165 146 157 198 198 165 168 165 198 202 217 236 247 247 247 247 247 247 247 247 247 247 247 247 247 247 247 247 247 247 247 247 247 247 247 247 247 247 247 247 247 247 247 247 247 247 247 247 247 247 247 247 247 247 247 251 251 251 251 251 251 251 251 251 251 251 251 251 251 251 251 251 251 251 251 251 251 251 251 251 251 251 251 251 251 251 255 255 251 255 255 255 
172 153 146 146 187 183 165 157 206 195 187 221 240 247 247 247 247 247 247 247 247 247 247 247 247 247 247 247 247 247 247 247 247 247 247 247 247 247 247 247 247 247 247 247 247 247 247 247 247 247 247 247 247 247 247 247 247 251 247 251 251 251 251 251 251 251 251 251 251 251 251 251 251 251 251 251 251 251 251 251 251 251 251 251 251 251 255 251 251 255 255 255 
180 165 131 116 157 198 168 165 183 191 191 221 221 247 247 247 247 247 247 247 247 247 247 247 247 247 247 247 247 247 247 247 247 247 247 247 247 247 247 247 247 247 247 247 247 247 247 247 247 247 247 247 247 247 247 247 247 247 251 251 251 251 251 251 251 251 251 251 251 251 251 251 251 251 251 251 251 251 251 251 255 251 251 251 255 255 255 255 255 251 255 251 
165 176 131 105 112 191 195 153 183 172 172 213 221 221 247 247 247 247 247 247 247 247 247 247 247 247 247 247 247 247 247 247 247 247 247 247 247 247 247 247 243 247 247 247 247 247 247 247 243 243 243 247 247 247 247 247 247 251 251 251 251 251 251 251 251 251 251 251 251 251 251 251 251 251 251 251 251 251 251 251 251 255 251 251 255 255 255 251 255 255 255 255 
146 146 138 123 112 195 195 168 180 180 127 180 217 217 247 247 247 247 247 247 247 247 247 247 247 247 247 247 247 247 247 247 247 247 247 247 240 240 240 243 243 243 247 247 247 247 247 236 221 217 225 232 240 243 243 247 247 247 247 251 251 251 251 251 251 251 251 251 251 251 251 251 251 251 251 251 251 251 251 251 251 251 251 251 251 251 251 255 255 251 255 251 
146 168 142 138 116 168 191 150 180 183 168 183 206 217 225 240 247 247 247 243 247 247 247 247 247 247 247 247 247 247 247 247 247 247 240 228 221 217 221 221 232 236 225 240 243 243 225 213 217 213 213 217 221 221 221 225 243 240 247 247 251 251 251 251 251 251 251 251 251 251 251 251 251 251 251 251 251 251 251 251 251 251 251 251 255 251 255 255 251 251 251 251 
187 183 165 153 157 153 161 161 161 210 217 168 161 195 225 221 243 243 243 243 243 247 243 243 247 247 243 243 247 247 243 240 213 195 206 202 202 206 210 210 217 217 221 195 187 183 180 187 187 202 206 213 217 217 217 221 217 221 225 225 228 232 243 247 247 251 251 251 251 251 251 251 251 251 251 251 251 251 251 251 251 251 251 251 251 251 251 251 251 251 251 251 
191 180 161 157 161 153 153 138 161 176 183 176 157 172 217 221 247 243 243 243 243 247 247 243 243 243 247 243 243 243 225 195 183 183 172 172 180 191 191 187 202 198 195 187 187 172 123 131 135 161 165 180 198 202 210 210 217 217 225 225 225 228 232 232 247 247 247 251 251 251 251 251 251 251 251 251 251 251 251 251 251 251 251 251 251 251 251 255 251 251 251 251 
183 161 157 172 172 150 127 150 172 210 232 206 183 183 165 213 243 243 243 243 243 247 243 243 243 243 243 225 217 195 172 153 131 131 120 112 108 116 120 123 131 138 135 123 127 116 101 86 82 90 90 101 101 120 120 142 153 165 183 213 217 225 232 221 221 225 228 240 232 243 251 251 251 251 251 251 251 251 251 251 251 251 251 251 251 251 251 251 251 251 251 251 
165 161 168 195 202 191 142 146 161 210 243 202 180 180 195 217 240 243 243 243 243 243 243 243 236 221 210 202 191 180 127 116 120 112 97 86 93 97 93 90 101 101 93 101 93 93 86 86 82 86 93 90 90 93 101 105 120 127 150 168 180 202 217 217 221 217 221 217 236 225 247 251 251 251 251 251 251 251 251 251 251 251 251 251 251 251 251 251 251 251 251 251 
161 153 176 198 202 210 195 168 191 221 232 217 180 176 191 225 240 240 240 243 243 243 236 217 176 176 180 168 157 127 116 101 90 78 82 90 86 78 86 86 75 75 78 71 71 71 67 67 71 78 78 86 90 86 93 93 97 105 112 120 131 127 142 157 172 206 210 213 217 221 225 251 251 251 251 251 251 251 251 251 251 251 251 251 251 251 251 251 255 251 251 251 
172 157 183 202 217 236 213 198 202 228 232 232 228 210 202 217 240 240 240 240 243 236 213 183 168 153 153 146 135 112 105 101 82 78 78 78 75 78 75 75 71 71 67 63 63 63 63 60 63 71 78 82 82 82 90 86 86 93 97 105 123 120 123 120 138 195 198 191 213 221 221 247 247 251 251 251 251 251 251 251 251 251 251 251 251 251 251 251 251 255 251 251 
180 176 183 210 240 243 240 240 228 225 228 225 232 232 236 240 240 240 240 240 225 176 157 131 108 101 93 78 82 90 78 82 63 37 33 37 37 33 33 30 41 41 33 41 45 41 22 18 22 22 33 37 56 52 78 90 86 105 101 101 97 101 116 108 101 116 131 161 187 206 221 221 232 240 251 251 251 251 251 251 251 251 251 251 251 251 251 251 255 251 255 251 
176 180 191 217 236 236 236 236 232 225 225 225 225 232 236 240 236 236 225 213 195 161 138 108 93 78 82 75 78 71 63 45 33 37 30 30 26 30 30 30 26 33 26 37 30 30 22 18 22 15 22 30 48 60 48 48 56 67 78 86 90 105 105 97 93 120 108 146 161 195 213 221 225 225 232 251 251 251 251 251 251 251 251 251 251 251 251 251 255 251 255 251 
176 183 202 228 236 236 232 236 232 225 225 225 232 232 236 236 236 236 206 191 168 142 120 112 86 78 75 75 71 63 52 52 33 30 33 30 26 26 26 30 30 30 30 26 22 22 22 22 26 18 26 22 41 45 41 37 52 41 48 75 90 101 90 90 101 116 108 116 157 157 191 217 221 221 228 251 251 251 251 251 251 251 251 251 251 251 251 251 251 251 251 251 
183 183 221 236 240 243 243 243 240 240 236 236 236 240 236 236 236 206 180 138 120 97 90 75 71 63 52 37 37 33 33 30 37 33 26 22 18 22 22 18 26 26 18 18 18 11 18 18 18 22 22 22 33 26 37 33 33 45 41 52 52 63 67 71 93 97 82 97 116 135 165 176 206 221 225 228 251 251 251 251 251 251 251 251 251 251 251 251 251 251 251 251 
183 187 228 243 243 243 243 243 243 240 240 236 240 240 236 236 232 187 161 120 108 78 86 71 56 41 30 30 33 26 22 30 30 26 26 22 18 18 18 18 18 22 15 11 15 7 15 15 15 15 18 15 26 26 26 26 26 37 37 45 56 48 71 75 82 86 82 93 112 108 131 165 183 213 221 221 236 247 251 251 251 251 251 251 251 251 251 251 251 251 251 251 
183 195 236 243 247 243 243 243 243 240 240 240 240 240 232 210 202 161 123 101 90 67 75 63 30 26 26 18 26 22 18 15 15 15 15 11 11 15 15 11 11 7 7 3 7 7 7 3 7 11 11 15 18 18 22 22 45 26 26 33 41 45 45 48 45 60 78 75 86 93 108 146 157 165 195 217 225 225 240 243 251 251 251 251 251 251 251 251 251 251 251 251 
183 198 240 243 247 247 243 243 243 240 240 236 240 240 228 213 195 146 112 97 78 56 41 41 30 22 22 18 22 22 15 7 15 11 7 7 11 11 11 11 11 11 3 3 7 3 3 3 3 7 11 7 15 11 18 18 33 33 30 33 33 41 48 41 48 56 60 60 97 97 101 116 142 157 168 217 228 228 236 240 243 251 251 251 251 251 251 251 251 251 251 251 
195 210 243 247 247 243 243 243 243 240 240 240 240 240 210 183 146 93 78 75 71 37 26 22 15 18 18 11 15 11 11 7 11 3 7 7 11 7 3 3 7 7 7 0 3 0 3 3 3 3 7 7 11 11 18 22 22 18 30 33 33 30 30 37 37 56 52 33 63 90 93 112 97 108 135 153 195 210 221 228 232 240 247 251 251 251 251 251 251 251 251 251 
191 213 247 247 247 247 247 243 243 240 240 240 240 225 195 161 142 71 71 63 63 33 26 18 15 18 18 11 15 11 7 7 3 3 11 7 11 7 3 3 3 3 7 0 3 0 0 3 3 3 7 7 11 15 18 18 22 22 30 26 33 37 45 48 56 41 37 56 60 67 86 101 108 93 116 138 172 191 221 225 228 232 247 251 251 251 251 251 251 251 251 251 
195 225 247 243 247 243 243 243 243 240 240 221 228 195 153 138 123 71 52 37 30 22 22 18 11 11 11 7 7 3 3 3 3 3 3 7 3 3 0 3 0 0 0 3 3 3 3 3 3 7 7 7 11 7 11 15 15 26 18 22 26 26 33 37 45 48 41 37 48 60 63 75 101 101 108 108 131 153 202 198 225 228 236 251 251 251 251 251 251 251 251 251 
210 228 247 247 247 243 243 243 240 240 240 206 195 176 138 112 105 56 33 30 22 18 18 18 7 7 15 7 3 3 7 3 0 0 3 3 3 3 0 0 0 0 3 0 3 3 3 3 7 7 7 7 11 11 7 7 11 11 11 26 22 26 26 33 45 63 52 52 56 48 48 67 86 93 123 93 131 153 180 202 202 217 228 251 251 251 251 251 251 251 251 251 
213 236 247 247 247 243 243 243 243 240 240 195 187 165 116 101 75 45 41 22 22 15 18 11 7 7 11 7 3 0 0 0 0 3 3 0 3 0 0 0 3 0 0 3 3 7 7 7 11 11 7 11 15 11 11 11 11 11 15 18 22 26 30 33 41 48 37 45 71 56 56 56 86 93 127 101 112 142 172 195 187 213 228 251 251 251 251 251 251 251 251 251 
210 240 247 243 247 247 243 243 240 240 236 206 165 135 90 78 63 41 30 18 15 11 11 7 3 0 3 0 3 3 3 3 3 3 3 3 7 3 11 7 7 7 3 7 7 11 15 15 15 18 18 15 18 15 11 15 15 15 18 18 18 18 37 41 45 41 48 60 63 60 63 63 63 90 86 112 101 131 176 172 172 195 221 247 251 251 251 251 251 251 251 251 
221 243 243 243 247 243 243 243 240 236 236 206 153 123 71 60 56 22 15 11 11 7 3 7 3 0 0 3 3 3 3 7 3 7 7 11 11 15 15 11 11 11 11 11 15 15 22 22 22 26 26 22 26 26 26 26 22 26 30 33 26 26 30 26 33 45 41 52 60 52 71 48 52 78 63 105 97 116 165 172 168 198 217 251 251 251 251 251 251 251 251 251 
236 243 247 243 247 243 243 240 240 236 225 187 165 116 41 37 30 11 7 7 7 7 3 3 3 3 3 7 11 15 18 18 22 30 30 26 33 33 33 30 30 30 30 30 30 30 37 37 41 37 41 37 37 41 48 45 52 45 48 48 48 41 33 33 37 37 45 41 48 60 45 45 48 67 67 78 86 112 157 180 165 191 228 251 251 251 251 251 251 251 251 251 
240 243 247 243 247 243 243 240 240 232 232 183 142 108 26 30 18 7 3 7 3 3 3 0 0 3 7 15 15 18 26 30 30 33 37 37 41 41 41 41 37 37 37 33 37 41 45 45 48 45 48 48 45 41 52 60 52 60 63 52 45 48 37 33 30 37 30 41 48 45 37 48 45 67 63 63 93 112 168 157 168 202 228 247 251 251 251 251 251 251 251 251 
243 243 243 247 247 243 243 240 240 236 225 168 123 90 37 15 7 3 3 0 0 0 0 3 7 7 15 22 30 37 41 48 52 56 56 56 60 60 60 60 60 60 60 60 63 60 63 67 67 63 63 60 60 63 63 67 78 75 75 75 71 60 56 56 48 45 56 48 48 60 56 52 56 56 45 82 97 101 157 161 176 213 236 251 251 251 251 251 251 251 251 251 
243 243 247 247 247 243 240 240 243 236 228 150 120 75 37 15 7 0 3 0 0 3 3 3 11 11 18 30 33 41 52 56 60 63 67 67 71 67 67 67 67 71 75 71 71 71 71 75 78 78 75 71 67 71 75 75 82 82 86 82 78 75 71 67 60 52 48 52 48 41 52 52 41 37 52 86 116 108 153 168 180 217 243 251 251 251 251 251 251 251 251 251 
243 243 247 247 243 243 240 240 240 240 236 146 101 63 18 7 7 0 3 0 0 7 7 15 18 22 30 41 45 52 63 71 71 78 82 82 86 86 82 86 86 86 90 90 93 93 90 93 93 93 97 90 86 90 86 90 97 101 108 116 112 108 90 86 86 63 63 56 48 52 52 45 48 60 56 86 101 93 146 165 191 236 251 251 251 251 251 251 251 251 251 251 
243 243 247 247 243 243 240 240 240 240 240 142 93 56 11 7 7 0 0 0 0 11 11 18 22 26 33 41 48 56 71 75 78 82 86 90 93 90 90 93 93 97 97 97 101 101 101 105 105 105 105 101 101 101 101 105 112 116 116 120 127 123 112 101 97 78 71 63 48 63 56 48 52 56 56 75 101 112 146 176 191 240 251 251 251 251 251 251 251 251 251 251 
243 243 247 243 243 243 240 240 240 240 240 150 105 37 7 3 3 0 0 0 3 15 18 26 33 33 41 48 56 63 75 78 86 90 97 97 101 101 105 105 108 112 112 112 112 116 112 116 116 120 120 120 120 120 123 127 135 138 142 142 146 146 135 131 123 101 93 78 52 52 48 45 48 48 52 67 93 123 153 183 198 243 251 251 251 251 251 251 251 251 251 251 
243 243 247 243 243 243 240 240 240 240 240 157 112 37 7 3 3 0 0 3 7 18 26 30 37 37 45 52 60 67 78 82 90 101 101 101 105 108 108 108 112 116 116 120 123 123 120 120 123 127 131 131 127 127 131 135 146 153 161 161 157 157 146 142 135 116 105 90 75 63 56 45 60 52 45 60 90 123 153 183 195 247 251 251 251 251 251 251 251 251 251 251 
243 243 247 243 243 240 240 240 240 240 240 157 120 45 7 3 7 0 3 3 7 22 26 33 37 41 45 56 63 67 82 86 93 97 105 105 112 112 112 112 116 120 120 123 127 127 127 127 131 131 135 131 131 131 135 138 150 157 165 168 165 165 157 150 142 127 112 101 86 82 67 60 71 48 45 60 90 127 161 180 191 251 251 251 251 251 251 251 251 251 251 251 
243 243 243 243 243 240 240 240 240 240 240 183 123 71 11 7 3 0 0 3 11 26 30 33 41 48 48 60 67 71 86 90 97 108 108 112 116 116 120 120 120 123 127 131 135 135 138 138 138 142 142 142 142 142 146 146 157 161 168 172 172 172 165 161 157 150 142 127 105 86 78 56 60 63 52 71 97 131 165 172 195 247 251 251 251 251 251 251 251 251 251 251 
243 243 243 240 243 240 240 240 240 236 240 202 135 71 11 7 7 0 3 3 11 26 33 41 48 48 52 60 67 75 86 93 97 108 112 112 120 120 123 123 127 127 131 135 138 138 138 142 142 146 146 146 146 150 150 153 161 161 168 168 172 172 172 165 161 153 150 135 112 97 82 60 63 60 56 82 108 146 165 168 195 247 251 251 251 251 251 251 251 251 251 251 
243 243 243 240 240 240 240 240 240 236 240 232 168 101 11 7 7 3 7 11 18 33 37 45 52 52 60 63 75 75 90 97 105 112 116 120 127 131 131 131 135 135 138 138 142 142 142 146 146 150 153 153 161 161 165 168 172 176 180 183 183 183 180 176 172 165 165 153 127 116 105 75 60 52 63 90 105 157 165 180 202 251 247 251 251 251 251 251 251 251 251 251 
243 243 243 240 240 240 240 240 236 236 240 236 172 135 15 7 7 7 11 15 18 37 41 45 52 56 60 67 75 78 93 101 105 116 120 123 127 131 131 135 138 138 142 142 142 142 142 146 146 150 153 157 161 165 168 172 180 183 187 191 191 187 183 180 176 165 165 157 131 116 108 78 67 67 67 97 116 153 168 191 217 251 251 251 251 251 251 251 251 251 251 251 
243 243 243 240 240 240 240 240 236 236 240 240 176 165 18 15 11 15 18 22 26 41 45 48 56 60 63 75 78 86 93 101 105 116 120 123 131 135 138 138 142 142 146 146 146 146 150 150 150 153 153 157 165 168 172 176 187 191 195 198 198 195 187 183 180 176 172 165 150 131 116 86 86 78 82 105 135 157 183 198 221 251 251 251 251 251 251 251 251 251 251 251 
243 243 243 240 240 240 240 240 236 236 240 240 187 165 15 11 11 15 22 26 30 41 45 52 60 60 63 75 82 86 97 105 108 116 120 123 131 135 135 138 142 146 150 150 146 146 150 150 150 153 157 157 165 165 172 176 187 191 195 198 198 198 187 183 183 176 176 172 157 138 116 86 86 82 90 105 135 157 191 202 228 251 251 251 251 251 251 251 251 251 251 251 
243 243 240 240 240 240 240 236 236 236 240 240 217 165 22 11 18 22 30 33 41 45 52 52 60 67 71 75 78 86 97 101 101 112 116 120 123 127 131 135 142 146 146 146 146 146 150 150 150 153 157 157 161 168 168 172 176 180 191 195 195 195 187 187 183 183 180 176 172 157 138 101 93 86 105 120 138 157 191 221 243 251 251 251 251 251 251 251 251 251 251 251 
243 243 240 240 240 240 240 236 236 236 236 240 232 172 41 15 22 26 33 37 41 45 48 52 56 60 60 67 71 78 93 93 93 105 112 116 120 123 131 131 138 142 146 146 146 146 146 146 150 153 153 157 161 165 165 168 172 176 183 187 191 191 180 183 183 180 180 180 172 165 153 105 101 93 127 135 150 161 198 225 247 251 251 251 251 251 251 251 251 251 251 251 
243 243 240 240 240 240 236 240 236 236 236 236 236 183 52 18 26 33 37 37 37 41 45 48 48 48 56 60 67 67 75 86 86 97 105 108 112 120 123 131 135 142 142 142 142 142 142 146 146 150 153 153 157 157 157 161 161 165 168 172 172 176 172 172 172 172 172 180 172 168 161 116 112 105 127 146 161 157 206 228 247 251 251 251 251 251 251 251 251 251 251 251 
243 240 240 240 240 240 236 240 236 236 240 240 240 221 63 56 33 41 37 37 33 30 33 33 37 41 37 41 45 48 56 60 63 71 78 82 97 101 112 112 127 131 138 138 142 138 138 138 138 138 142 138 138 135 135 135 135 131 135 138 138 138 142 146 146 138 146 150 172 168 161 131 116 138 146 165 157 165 217 236 251 251 251 251 251 251 251 251 251 251 251 251 
243 240 240 236 240 240 236 236 236 236 240 236 240 236 75 71 45 37 41 33 33 30 30 30 33 30 33 33 37 41 48 48 56 63 67 75 90 90 101 108 123 127 131 135 138 135 135 131 131 131 127 127 127 123 120 120 116 116 112 108 116 116 123 127 131 120 127 131 153 168 165 127 120 150 153 172 161 165 221 247 247 251 251 251 251 251 251 251 251 251 251 251 
240 240 240 240 240 236 240 236 236 236 236 240 240 240 165 75 75 45 41 33 33 26 22 22 22 22 26 26 26 26 30 33 33 41 45 48 63 71 71 82 105 112 120 123 127 127 123 120 120 112 112 105 101 97 93 90 93 86 86 86 86 86 93 93 93 105 97 101 120 131 150 127 131 142 176 195 161 191 236 251 251 251 251 251 251 251 251 251 251 251 251 251 
240 240 240 236 240 236 236 236 236 236 240 240 240 240 191 101 75 48 41 37 33 26 26 22 22 22 26 22 26 22 26 26 30 33 37 41 52 60 63 75 97 105 116 120 127 123 120 116 112 105 101 97 90 82 82 78 82 82 82 75 78 86 82 93 90 93 93 97 112 120 135 131 135 142 187 191 168 202 240 251 251 251 251 251 251 251 251 251 251 251 251 251 
240 240 240 236 240 236 236 236 236 236 236 236 240 236 217 176 86 60 52 37 33 30 30 26 26 26 26 26 26 26 26 22 22 22 26 26 37 41 48 60 78 90 97 116 120 120 120 112 108 97 93 86 75 71 67 63 63 63 67 67 67 71 82 90 90 97 97 105 116 120 123 120 127 150 198 202 198 198 251 251 251 251 251 251 251 251 251 251 251 251 251 251 
240 240 236 236 240 236 236 236 236 236 236 236 240 236 225 180 116 63 52 37 33 30 30 22 22 22 22 26 22 22 18 18 18 18 22 22 30 37 45 48 71 75 90 108 120 120 116 112 105 93 82 75 67 63 60 56 60 60 60 63 67 71 82 90 93 105 105 108 116 127 131 123 116 146 210 206 202 206 251 251 251 251 251 251 251 251 251 251 251 251 251 251 
236 236 240 236 236 236 236 236 236 236 236 236 240 236 198 187 153 67 52 45 41 26 22 18 18 18 18 15 18 18 15 15 11 7 7 7 15 18 26 33 56 75 82 108 120 123 120 112 101 78 67 60 52 52 48 45 52 52 60 75 78 82 71 75 86 101 108 112 131 138 142 146 123 138 202 210 217 206 247 251 251 251 251 251 251 251 251 251 251 251 251 251 
236 236 236 236 236 236 236 236 236 236 236 236 240 240 195 180 146 67 56 45 37 26 26 22 18 18 18 18 15 15 15 11 11 3 3 3 7 11 18 26 52 67 78 108 116 127 123 116 97 75 63 56 48 48 45 41 37 37 37 48 52 60 82 82 75 90 105 112 131 138 150 153 131 138 195 206 210 195 243 251 247 251 251 251 251 251 251 251 251 251 251 251 
240 236 240 236 236 236 236 236 236 236 236 236 240 240 176 176 153 67 60 45 37 30 30 26 15 11 11 7 7 11 7 11 7 3 0 0 3 7 11 22 48 63 78 105 120 131 131 120 101 71 60 52 41 37 33 26 22 18 15 22 26 33 52 67 75 93 101 108 127 138 150 161 138 142 187 206 213 183 240 251 251 251 251 251 251 251 251 251 251 251 251 251 
236 236 236 236 236 236 236 236 236 236 236 236 240 236 172 172 101 63 56 45 41 26 26 22 30 30 30 15 15 11 7 11 15 3 7 0 3 3 7 18 41 63 78 105 123 138 150 142 120 71 52 33 30 30 22 18 18 15 18 41 56 63 52 67 75 90 101 116 123 135 142 172 150 142 176 206 206 168 232 251 251 251 251 251 251 251 251 251 251 251 251 251 
236 236 236 236 236 236 236 236 236 236 236 236 236 240 176 165 82 63 56 48 41 30 30 26 18 18 18 11 7 7 11 15 11 3 3 0 0 3 11 18 41 60 75 112 127 138 157 153 138 78 52 30 22 22 26 15 11 11 11 37 52 56 71 75 90 90 93 101 123 138 150 172 150 146 180 210 206 168 225 251 251 251 251 251 251 251 251 251 251 251 251 251 
236 236 236 236 236 236 236 236 236 236 236 236 236 240 176 150 78 60 56 48 45 33 26 18 22 18 22 22 15 15 7 7 11 15 15 11 7 7 11 18 41 63 78 116 135 150 168 168 161 108 71 45 26 26 30 30 30 33 26 33 37 56 63 86 101 108 112 123 131 146 153 176 161 153 183 217 206 172 225 251 251 251 251 251 251 251 251 251 251 251 251 251 
236 236 236 236 236 236 236 236 236 236 236 236 240 232 176 138 71 63 52 48 45 33 30 26 22 18 18 15 15 11 7 7 11 15 11 7 7 11 11 18 45 63 82 120 135 150 176 172 161 123 82 60 30 22 18 22 26 26 33 30 41 56 82 97 108 116 131 131 135 150 161 180 165 161 183 221 206 180 228 251 251 251 251 251 251 251 251 251 251 251 251 251 
236 236 236 236 236 236 236 236 236 236 236 236 236 228 180 135 71 63 56 52 45 37 30 26 22 18 22 30 18 18 15 11 11 18 15 15 11 11 15 22 41 67 86 127 146 157 180 180 176 150 127 90 48 45 41 37 45 48 41 48 60 71 97 105 108 120 120 127 150 157 165 183 176 176 187 221 206 195 228 251 251 251 251 251 251 251 251 251 251 251 251 251 
236 236 236 232 236 236 236 236 236 236 236 236 236 232 183 135 71 63 56 52 48 41 37 30 26 26 26 30 26 18 11 11 15 11 18 15 15 18 18 22 45 67 86 127 150 161 180 183 176 153 135 108 71 56 48 48 48 48 48 52 60 82 97 112 127 131 127 135 150 161 172 187 187 172 187 221 210 206 228 251 251 251 251 251 251 251 251 251 251 251 251 251 
236 236 232 232 236 236 236 236 236 236 236 236 236 225 180 138 75 63 60 56 56 52 48 48 37 41 37 33 37 30 26 18 18 22 26 22 22 26 30 33 48 71 90 131 153 161 183 187 183 168 146 138 112 105 93 86 67 67 60 63 63 75 101 116 123 142 150 150 165 176 183 191 191 180 195 221 213 228 240 251 247 251 251 247 251 251 251 251 251 251 251 251 
236 232 236 232 236 236 236 236 236 236 236 236 236 228 176 146 82 63 60 60 60 56 56 52 45 45 41 37 41 37 26 30 26 26 30 26 22 26 30 33 52 71 93 135 153 165 183 187 187 172 157 146 127 120 105 101 82 78 78 78 86 97 120 123 127 142 153 161 172 176 183 191 195 180 195 221 217 225 247 251 251 251 251 251 251 251 251 251 251 251 251 251 
232 232 236 232 236 236 236 236 236 236 236 236 236 221 172 146 86 63 63 60 63 60 60 56 52 52 52 45 48 45 33 30 30 30 30 30 30 30 33 37 52 71 93 135 153 165 183 187 183 172 168 153 142 131 120 116 105 93 90 82 93 105 127 135 142 153 161 168 176 183 183 191 195 183 191 221 221 217 243 247 251 251 251 251 251 251 251 251 251 251 251 251 
236 232 232 236 236 236 236 236 236 236 236 236 232 217 176 120 82 67 63 63 63 67 67 67 67 63 67 60 60 56 48 41 41 37 37 33 33 33 37 41 56 75 90 131 150 168 183 187 187 180 172 168 161 153 150 142 138 135 131 120 123 123 131 135 142 157 168 172 183 187 191 195 195 183 198 221 225 213 232 247 251 251 251 247 251 251 251 251 251 251 251 251 
232 232 232 232 236 232 232 236 236 232 236 236 236 217 165 112 82 63 63 63 63 71 75 75 75 71 75 67 67 63 52 48 45 41 37 37 37 37 45 45 56 71 90 127 153 168 183 187 187 180 176 172 165 161 161 153 146 142 142 131 135 131 138 142 150 157 168 168 183 187 191 195 195 183 202 221 225 213 232 247 251 251 251 247 251 251 251 251 251 251 251 251 
232 232 232 232 236 232 236 236 236 232 236 236 236 221 157 90 78 67 63 63 63 75 78 82 86 82 86 82 78 75 63 60 56 48 48 48 45 45 45 48 56 71 86 127 146 161 187 191 191 183 183 176 168 172 168 168 168 168 165 157 157 157 161 161 161 165 168 172 183 187 187 195 195 180 202 221 225 213 221 247 247 247 251 247 251 247 251 251 251 251 251 251 
232 232 232 232 232 232 236 236 232 232 232 236 236 228 157 86 82 67 63 63 63 75 78 86 90 90 90 86 82 78 67 63 60 52 52 48 52 45 45 48 56 67 78 123 138 157 187 191 191 183 180 176 172 168 172 172 172 172 172 168 168 168 165 168 168 172 172 172 180 183 187 191 191 180 198 221 225 213 213 247 247 247 247 247 251 247 247 247 251 251 251 251 
232 232 232 232 232 232 232 236 232 232 236 236 236 228 157 82 78 67 63 60 63 75 78 86 93 90 90 90 90 86 75 67 63 60 52 56 48 48 48 48 56 63 71 112 131 150 180 191 191 180 176 168 176 172 168 172 180 176 176 172 176 172 172 172 172 172 176 176 180 183 187 191 191 176 198 221 225 217 228 243 247 247 247 247 251 247 247 251 251 247 251 247 
232 232 232 232 232 232 232 232 232 232 232 236 236 221 153 78 78 67 63 63 63 71 78 86 93 93 93 93 93 90 78 71 67 60 56 56 48 52 48 48 52 60 71 105 127 142 176 191 180 153 153 161 172 176 168 168 176 176 176 176 176 176 176 176 172 176 180 180 180 180 183 191 191 172 198 221 225 217 217 243 247 247 247 247 251 247 247 247 247 251 251 251 
232 228 232 232 232 232 232 232 236 232 232 236 236 221 168 78 82 67 67 67 63 71 75 82 93 93 97 93 90 86 78 71 67 56 52 45 48 41 37 41 48 56 63 90 112 127 153 157 157 161 153 150 168 176 176 165 168 168 172 176 176 176 176 176 180 180 180 180 183 183 183 191 187 176 198 221 225 213 225 243 251 247 247 247 247 247 247 247 251 247 251 247 
232 232 232 232 232 232 232 232 232 232 232 232 236 217 165 78 78 67 67 67 63 67 75 78 90 93 93 90 90 86 78 71 67 56 52 45 45 45 45 45 48 48 60 82 101 123 153 172 176 142 138 138 165 176 176 172 165 165 168 172 176 176 176 176 180 180 183 183 183 187 183 187 187 180 198 221 225 213 228 247 247 247 247 247 251 247 247 251 251 247 247 251 
232 232 232 232 232 232 232 232 232 232 232 232 236 225 161 75 78 67 67 63 63 71 75 78 86 90 93 90 90 86 75 67 63 52 52 41 41 37 41 37 41 48 52 75 97 112 150 165 153 138 146 150 157 168 172 172 161 161 165 168 172 176 176 176 180 180 183 183 187 187 187 191 183 183 195 221 225 210 228 247 247 247 247 251 251 251 251 247 251 247 247 247 
228 228 232 228 232 232 232 232 232 232 232 232 236 225 161 78 78 67 67 63 67 63 71 75 82 82 86 82 82 78 71 67 63 56 48 45 41 45 41 37 37 45 48 63 82 105 135 146 161 165 157 131 146 146 157 165 165 157 157 165 168 168 172 176 176 180 183 183 187 187 187 191 176 195 191 221 221 206 228 247 247 247 247 247 251 251 247 251 251 247 251 247 
228 228 228 228 232 232 232 232 232 228 232 232 236 225 146 82 75 67 63 63 67 67 67 71 78 78 82 78 78 78 71 67 63 52 52 45 41 41 37 33 37 37 45 60 71 90 123 138 153 150 138 131 127 142 153 165 168 161 157 161 168 168 172 172 176 180 180 180 183 187 187 187 172 195 187 221 217 198 228 247 247 247 247 247 251 251 251 251 251 247 247 247 
228 228 228 228 232 232 232 232 232 232 232 232 236 228 153 86 67 67 67 63 63 63 63 63 71 75 75 75 71 71 67 60 56 48 45 41 37 26 26 26 30 45 48 45 52 71 105 116 123 123 127 131 116 116 142 165 172 165 161 157 161 165 168 168 172 176 176 180 183 183 183 180 180 191 191 221 213 187 236 247 247 247 247 247 247 251 251 251 247 247 247 247 
228 228 228 228 232 232 228 232 232 228 232 232 232 232 146 101 67 63 63 60 63 63 63 63 71 71 75 67 67 63 60 56 52 45 41 37 30 26 26 18 33 45 48 45 45 60 97 105 112 135 131 116 101 116 135 157 172 168 157 161 161 165 168 168 172 172 176 180 183 183 183 172 183 187 191 217 210 198 236 247 247 247 247 247 251 251 251 251 247 247 247 247 
228 228 228 228 228 228 228 232 228 232 232 232 236 232 176 120 71 63 60 60 60 60 63 60 63 63 63 60 56 52 52 48 45 41 41 37 26 18 18 18 33 37 48 45 45 48 78 86 97 97 97 86 97 112 131 150 157 157 157 161 161 161 165 168 168 172 172 172 180 180 183 172 187 183 206 217 195 206 240 247 247 247 247 247 251 251 251 251 247 247 247 247 
228 228 228 228 228 228 232 232 232 228 232 232 236 232 191 127 75 63 63 60 60 60 60 63 63 60 60 56 52 48 48 45 41 37 37 33 26 18 22 30 41 45 48 48 56 52 78 86 97 101 101 105 108 116 142 150 157 146 153 157 165 165 165 165 168 168 172 172 180 180 180 180 187 180 206 213 191 213 247 247 247 247 247 247 247 251 251 251 251 247 247 247 
225 225 228 228 228 228 228 228 232 228 232 232 232 232 213 161 97 60 60 56 56 60 56 56 56 56 52 45 45 41 33 37 37 33 33 33 26 22 22 15 18 33 48 56 56 52 60 75 90 108 108 116 123 123 123 123 131 127 127 138 150 157 165 165 165 165 168 168 172 176 172 187 176 191 213 198 195 221 247 247 247 247 247 247 247 247 247 247 247 247 251 247 
225 225 228 228 228 228 228 232 228 228 228 232 232 232 217 172 101 60 60 56 56 56 56 56 56 56 48 41 41 37 33 33 33 33 33 30 26 22 18 22 26 37 45 71 67 56 56 78 93 93 105 116 123 116 123 116 123 123 123 131 135 153 165 165 165 165 168 168 172 172 161 183 172 198 210 195 206 221 247 247 247 247 247 247 247 247 247 247 247 247 247 247 
225 225 228 228 228 228 228 228 228 228 232 228 232 232 228 187 123 60 63 56 56 56 56 56 56 48 48 37 41 33 30 30 30 26 30 26 22 18 22 22 22 26 41 82 78 63 56 71 86 93 90 97 116 112 116 108 112 108 116 120 131 138 161 165 165 165 165 165 172 172 157 183 172 202 210 183 210 221 247 247 247 247 247 247 247 247 247 247 247 247 247 247 
225 225 225 225 228 228 228 228 228 232 228 228 232 232 232 217 165 63 56 48 48 52 56 56 52 48 45 37 37 26 22 18 18 15 15 18 15 15 11 7 11 18 37 75 78 63 41 60 75 67 60 71 86 86 93 82 86 90 97 105 116 120 146 157 165 165 161 161 161 153 165 165 187 210 206 191 225 225 247 247 247 247 247 247 247 247 247 247 247 247 247 247 
225 225 225 225 228 228 228 228 228 232 228 228 232 228 228 225 180 67 52 56 52 52 52 52 52 48 41 33 30 26 15 15 15 15 15 15 18 18 15 18 18 22 37 86 97 78 71 82 90 82 86 82 90 67 82 78 75 78 86 97 101 116 138 153 161 161 161 161 150 150 176 161 195 206 202 206 225 228 247 247 247 247 247 247 247 247 247 247 247 247 247 247 
225 221 225 225 228 228 228 228 228 228 228 228 232 228 228 228 217 108 60 48 52 48 52 52 52 45 45 33 26 18 15 15 11 11 15 15 22 26 26 30 33 41 60 93 93 90 78 78 86 82 75 71 82 90 90 75 60 52 56 75 90 101 131 138 146 157 157 157 138 165 172 180 202 202 187 225 225 240 247 247 247 247 247 247 247 247 247 247 247 247 247 247 
221 225 225 225 225 228 228 228 228 228 228 228 232 228 228 228 225 131 71 52 48 48 48 48 48 48 45 30 26 22 15 15 15 15 15 18 22 26 26 30 37 48 60 78 82 78 90 93 97 86 90 93 90 90 90 78 56 56 56 67 78 97 127 131 146 157 153 153 153 168 157 195 198 198 172 225 228 243 247 247 247 247 247 247 247 247 247 247 247 247 247 247 
225 221 225 225 225 225 225 225 228 228 228 228 232 228 228 228 232 161 112 67 48 52 48 45 48 45 45 26 22 18 18 18 22 15 22 22 30 30 33 33 41 45 41 63 75 90 105 90 82 75 93 93 90 93 93 86 63 48 48 56 71 86 120 131 135 150 146 138 168 161 142 195 195 172 195 217 240 247 247 247 247 247 247 247 247 247 247 247 247 247 247 247 
221 221 225 225 225 228 228 228 225 225 225 225 228 228 228 228 232 172 135 82 48 45 48 45 48 48 45 26 22 18 26 26 22 18 22 26 30 26 30 33 37 45 45 45 60 71 78 78 82 86 86 93 112 112 108 101 67 52 45 56 71 82 112 127 138 150 142 138 165 150 153 195 180 172 217 221 243 247 247 247 247 247 247 247 247 247 247 247 247 247 247 247 
221 221 225 225 225 225 225 228 228 228 228 228 228 228 228 228 232 217 161 127 67 45 48 41 41 45 41 30 26 26 26 26 22 22 22 22 22 22 18 18 26 33 33 33 41 45 67 63 67 78 86 90 97 93 97 101 75 71 60 60 71 90 112 116 138 135 131 138 150 153 187 180 176 206 221 236 247 247 247 243 247 247 247 247 247 247 247 247 247 247 247 247 
221 221 221 221 225 225 225 225 225 225 225 225 228 228 228 228 232 221 183 146 101 37 41 41 41 41 41 30 26 26 26 26 22 22 26 22 22 22 22 18 30 33 33 37 45 52 75 67 71 90 93 97 90 90 90 90 78 78 71 67 75 90 112 123 123 131 146 157 142 172 187 172 191 221 217 243 247 247 247 247 247 247 247 247 247 247 247 247 247 247 247 247 
221 217 221 221 221 225 225 225 225 225 225 225 225 225 225 228 225 225 221 165 131 48 30 30 33 33 37 30 26 22 26 26 26 26 26 26 26 26 26 26 37 45 45 52 56 60 67 71 78 90 97 101 105 105 105 101 82 67 67 75 78 78 105 108 112 138 153 142 161 180 180 183 221 217 221 243 247 247 247 247 247 247 247 247 247 247 247 247 247 247 247 247 
221 221 221 221 225 225 225 225 225 225 225 225 225 225 225 225 225 225 228 195 146 75 33 30 30 30 33 26 22 22 22 26 26 26 30 30 30 30 26 30 37 45 48 60 60 67 75 75 90 97 97 105 105 105 108 101 90 78 78 71 75 75 97 101 108 138 142 135 168 172 172 198 221 213 232 243 247 247 247 247 247 247 247 247 247 247 247 247 247 247 247 247 
221 217 225 221 225 225 225 225 225 225 225 225 228 228 228 228 228 228 228 210 168 97 33 22 26 26 30 26 22 22 22 26 26 33 30 30 30 26 30 26 37 45 48 67 75 75 78 78 82 90 93 93 97 101 101 97 97 90 82 67 67 71 93 93 112 138 135 131 180 176 165 210 217 221 236 243 247 247 247 247 247 247 247 247 247 247 247 247 247 247 247 247 
217 217 221 221 225 225 225 225 225 225 225 225 228 228 228 228 228 228 232 225 206 112 75 37 15 22 18 18 15 15 15 15 22 30 30 30 30 26 26 26 30 33 33 45 48 56 67 67 71 82 75 78 78 86 82 82 82 82 78 63 67 63 78 90 108 123 131 142 165 172 195 213 221 240 243 247 243 247 247 247 247 247 247 247 247 247 247 247 247 247 247 243 
217 217 221 221 225 225 225 225 225 225 228 225 228 228 228 228 228 228 232 228 191 108 82 52 15 15 15 15 15 11 11 15 18 26 26 30 30 26 26 22 22 26 26 41 48 52 63 67 71 67 71 71 75 75 75 78 75 71 67 60 60 63 75 90 101 120 138 157 165 180 213 217 228 243 243 247 247 247 247 247 247 243 247 247 247 247 247 247 247 247 247 247 
217 217 221 217 225 221 225 225 225 225 225 225 228 228 228 225 217 210 210 198 172 142 71 52 15 7 11 7 11 7 7 7 11 18 18 22 26 26 26 18 18 18 18 26 33 41 48 56 60 56 56 52 67 63 63 63 60 48 45 41 45 52 78 75 82 90 135 150 191 206 213 225 236 243 243 243 247 247 247 247 247 247 247 243 247 247 247 247 247 247 247 247 
217 217 221 221 221 221 221 225 225 225 225 225 225 225 210 195 198 198 198 168 153 120 75 52 18 15 11 7 7 3 3 3 7 15 18 22 26 26 22 18 22 22 22 22 30 37 52 56 63 63 60 60 60 60 60 63 48 41 33 30 45 56 71 75 75 112 116 138 198 206 213 225 240 243 243 243 247 247 247 247 247 243 247 247 247 247 247 247 247 247 247 247 
213 217 217 217 221 221 221 221 221 221 225 202 202 202 172 180 157 138 153 131 101 101 56 33 22 18 15 7 7 3 0 3 3 7 11 15 18 18 22 22 22 22 18 26 33 37 56 63 71 71 63 60 60 52 48 45 33 30 26 41 48 52 56 67 75 131 150 135 187 176 202 240 232 243 243 243 243 243 247 243 243 243 247 243 247 247 247 247 247 247 247 247 
213 217 217 217 221 221 221 221 225 221 225 198 191 168 142 157 157 150 138 97 93 86 60 33 26 18 15 7 3 0 0 0 3 7 11 15 18 22 18 22 22 22 22 26 33 37 56 63 75 67 67 63 56 48 48 41 30 26 22 41 45 48 56 78 97 120 138 165 176 165 198 232 225 232 240 243 243 243 243 243 243 247 247 243 247 247 247 247 247 247 247 247 
213 213 213 210 206 202 198 198 183 176 168 165 165 142 127 120 97 93 86 71 75 48 37 37 30 30 18 11 11 7 0 0 0 7 7 11 15 18 15 18 22 18 22 30 30 33 48 60 63 75 78 71 52 48 37 33 22 26 37 41 45 52 78 90 101 101 108 138 146 161 165 213 221 210 213 232 236 240 243 243 243 243 247 243 247 247 247 247 247 247 247 247 
195 195 191 187 187 187 187 183 168 157 157 150 142 116 97 105 97 86 82 67 71 37 41 41 30 30 22 11 11 7 0 0 0 3 7 7 11 11 15 15 22 18 18 26 30 33 48 56 60 71 67 67 48 37 33 30 30 37 41 41 45 63 86 101 116 127 116 120 161 161 168 187 217 221 187 221 225 236 243 247 243 243 247 243 247 247 247 247 247 247 247 247 
183 183 183 183 180 172 168 168 165 161 150 131 120 93 101 93 86 75 56 48 48 33 37 41 33 30 26 18 11 11 3 0 0 3 3 3 7 7 11 15 18 18 18 26 30 30 41 48 56 63 63 56 45 37 37 33 41 45 48 41 52 75 93 112 120 138 120 127 165 146 183 168 195 210 202 225 217 228 232 232 236 240 243 243 247 247 247 247 247 247 247 247 
165 165 157 153 150 138 135 131 127 120 123 112 86 86 78 63 67 60 45 41 41 33 33 37 37 30 30 22 22 15 7 7 7 3 3 3 3 7 11 7 11 11 15 15 15 22 26 33 41 48 52 41 41 37 45 45 45 41 41 56 82 90 108 127 135 127 146 146 142 123 157 161 161 180 210 191 210 195 217 221 225 236 240 240 240 240 240 240 240 240 240 240 
142 142 135 131 131 127 127 127 120 116 116 90 67 75 71 63 67 52 41 37 33 33 37 37 37 37 33 26 26 22 11 7 3 7 3 3 3 3 7 7 11 11 11 11 15 15 30 30 30 41 41 45 37 37 41 41 37 41 45 71 86 90 123 135 138 131 142 153 157 101 131 180 131 180 202 172 213 198 221 221 228 228 232 232 236 240 240 240 240 236 240 236 
131 127 127 123 123 120 120 112 101 97 93 60 67 75 60 67 71 48 41 41 30 33 33 37 33 33 33 30 30 26 22 15 11 3 11 7 7 3 7 7 7 7 11 7 11 15 22 22 30 41 37 41 41 37 41 37 52 63 71 86 101 112 135 138 138 153 150 161 150 127 120 168 165 123 176 187 165 210 180 206 206 202 206 210 217 217 217 225 225 225 225 225 
120 116 112 112 112 108 105 101 93 90 90 63 67 78 60 63 71 45 41 37 30 33 30 33 37 37 33 30 30 26 22 18 15 7 7 7 7 3 7 7 7 7 7 7 11 11 18 22 30 33 41 37 37 37 37 45 60 67 82 97 108 123 135 138 146 153 150 157 142 135 127 150 168 127 165 198 168 191 161 206 202 206 202 206 206 206 206 202 202 202 206 206 
105 105 105 105 105 101 97 93 90 86 86 56 75 67 67 67 67 41 41 37 30 33 33 33 33 33 30 30 30 30 22 26 22 15 11 7 11 7 3 3 7 3 7 7 11 11 18 22 26 30 33 33 37 45 52 60 78 93 97 116 123 127 138 146 142 153 146 161 135 146 142 161 150 146 135 168 191 161 183 150 202 198 198 198 206 206 202 202 198 198 198 195 
101 105 101 101 101 97 93 86 86 82 86 56 75 60 63 67 63 41 45 37 30 37 30 33 33 33 33 33 33 33 26 26 22 22 15 11 11 7 7 7 7 7 7 11 11 15 18 26 26 33 37 45 52 56 60 71 90 101 112 123 127 131 138 146 131 150 150 161 138 146 146 165 153 146 135 183 176 172 183 153 187 198 195 202 206 206 202 202 198 198 195 195 
101 97 101 97 101 93 86 86 78 78 75 63 71 63 63 63 63 45 41 41 33 37 37 33 37 33 33 33 33 30 30 30 26 22 26 22 18 18 15 11 15 15 15 18 22 26 30 37 37 48 52 56 75 86 90 93 108 116 120 127 131 142 150 146 131 146 161 161 146 146 157 153 168 150 120 172 191 150 183 176 150 195 198 195 195 198 198 195 198 195 195 195 
97 97 97 97 97 90 86 82 75 75 67 71 63 67 71 67 60 41 45 41 37 37 41 33 37 37 33 33 33 33 30 30 26 26 26 26 22 22 18 18 18 22 22 26 30 33 41 45 52 63 71 75 86 93 101 105 116 120 123 131 138 146 146 138 138 142 157 161 150 146 161 150 168 165 120 161 195 153 195 165 161 195 195 191 191 198 195 195 191 191 187 187 
97 97 97 97 97 86 82 82 78 78 63 75 60 60 71 71 60 41 48 41 41 37 41 33 37 33 37 33 30 33 30 30 30 26 26 26 26 26 26 22 26 26 30 33 37 41 48 52 60 71 78 86 97 105 105 112 116 123 127 135 142 146 150 135 146 142 161 161 161 150 157 150 172 168 123 153 183 176 183 172 157 195 191 191 195 195 198 195 191 191 187 187 
93 93 93 90 90 82 78 75 75 78 56 67 63 56 67 63 60 48 45 45 48 37 45 37 41 41 41 33 37 33 33 33 37 30 33 33 33 33 33 37 37 41 45 45 52 56 71 75 78 90 97 101 112 116 120 120 127 135 142 146 150 150 150 131 153 150 165 153 172 150 161 150 172 172 146 153 165 202 146 195 168 172 191 187 191 195 191 195 195 191 187 183 
93 93 93 86 90 78 78 71 78 71 56 63 67 63 67 67 63 45 48 45 48 37 48 41 41 45 37 37 37 37 37 33 33 33 37 33 37 37 37 41 41 48 45 52 60 63 75 82 86 93 101 105 112 116 120 123 135 138 142 146 150 150 146 142 157 157 165 150 172 153 161 150 172 176 150 153 157 195 135 198 183 150 195 180 187 191 191 195 195 191 187 187 
90 90 90 86 82 78 75 71 82 60 52 63 56 63 63 63 60 48 48 52 48 41 48 45 48 48 45 41 41 37 37 41 41 41 45 41 45 45 48 48 52 60 63 71 78 86 93 101 105 112 120 120 127 135 138 138 146 146 146 153 157 157 131 157 161 165 161 153 165 161 157 150 165 176 157 142 153 168 138 146 187 131 183 183 191 187 191 195 195 191 187 187 
